<?xml version="1.0" encoding="utf-8"?>
<!-- Generator: Adobe Illustrator 26.3.1, SVG Export Plug-In . SVG Version: 6.00 Build 0)  -->
<svg version="1.1" xmlns="http://www.w3.org/2000/svg" xmlns:xlink="http://www.w3.org/1999/xlink" x="0px" y="0px"
	 viewBox="0 0 120 120" style="enable-background:new 0 0 120 120;" xml:space="preserve">
<style type="text/css">
	.st0{display:none;}
	.st1{fill:url(#SVGID_1_);}
	.st2{fill:url(#SVGID_00000143617464714558820510000006285285288780674460_);}
	.st3{fill:url(#SVGID_00000030459169335413813720000000118456842919324036_);}
	.st4{opacity:0.24;fill:url(#SVGID_00000114793381051512126960000003966083645825781148_);}
	.st5{fill:url(#SVGID_00000030456389380923641450000014731439371470859428_);}
	.st6{fill:url(#SVGID_00000176010062456729494440000007886011580563109774_);}
	.st7{fill:url(#SVGID_00000111172637191002609010000016157220383390363826_);}
	.st8{fill:url(#SVGID_00000165197158892328609200000011612778870733679546_);}
	.st9{fill:url(#SVGID_00000031188352762319829670000014342458102017748906_);stroke:#ABABAB;stroke-miterlimit:10;}
	.st10{opacity:0.73;fill:#41E5CD;}
	.st11{opacity:0.27;fill:#FFFFFF;}
	.st12{opacity:0.24;fill:#FFFFFF;}
	.st13{opacity:0.32;fill:#FFFFFF;}
	.st14{opacity:0.48;fill:none;stroke:#FFFFFF;stroke-miterlimit:10;}
	.st15{fill:url(#SVGID_00000139284553301217985250000018270404018143037864_);}
	.st16{opacity:0.08;fill:none;stroke:#FFFFFF;stroke-linecap:round;stroke-linejoin:round;stroke-miterlimit:10;}
	.st17{fill:url(#SVGID_00000086664881072380615040000015041665353111134133_);}
	.st18{fill:url(#SVGID_00000139994296583015403090000012571120734716689035_);}
	.st19{opacity:0.12;fill:#FFFFFF;}
	.st20{fill:url(#SVGID_00000070805765330243913270000017310267112454945934_);}
	.st21{fill:none;stroke:#CCCCCC;stroke-miterlimit:10;}
	.st22{fill:url(#SVGID_00000044881549161653837260000007728517278159660447_);stroke:#7C7C7C;stroke-miterlimit:10;}
	.st23{fill:none;stroke:#7C7C7C;stroke-miterlimit:10;}
	.st24{fill:url(#SVGID_00000126286691475655816320000009019945978097182640_);}
	.st25{fill:none;stroke:#8F9CC9;stroke-miterlimit:10;}
</style>
<g id="Layer_3" class="st0">
</g>
<g id="icon">
	<g>
		
			<linearGradient id="SVGID_1_" gradientUnits="userSpaceOnUse" x1="45.6504" y1="97.7658" x2="62.5566" y2="75.871" gradientTransform="matrix(1.0059 -0.2541 0.3015 0.9745 -15.3859 14.4412)">
			<stop  offset="0" style="stop-color:#FFFFFF;stop-opacity:0"/>
			<stop  offset="8.723259e-03" style="stop-color:#F9F9F9;stop-opacity:2.616978e-03"/>
			<stop  offset="0.0869" style="stop-color:#C5C5C5;stop-opacity:0.0261"/>
			<stop  offset="0.1704" style="stop-color:#969696;stop-opacity:0.0511"/>
			<stop  offset="0.2574" style="stop-color:#6E6E6E;stop-opacity:0.0772"/>
			<stop  offset="0.3486" style="stop-color:#4C4C4C;stop-opacity:0.1046"/>
			<stop  offset="0.4452" style="stop-color:#303030;stop-opacity:0.1336"/>
			<stop  offset="0.5492" style="stop-color:#1B1B1B;stop-opacity:0.1648"/>
			<stop  offset="0.6642" style="stop-color:#0C0C0C;stop-opacity:0.1993"/>
			<stop  offset="0.7987" style="stop-color:#030303;stop-opacity:0.2396"/>
			<stop  offset="1" style="stop-color:#000000;stop-opacity:0.3"/>
		</linearGradient>
		<path class="st1" d="M71.13,106.89l-29.64-3.16l27.02-28.6c0,0,12.17,6.11,12.79,8.11C82.38,86.63,71.13,106.89,71.13,106.89z"/>
	</g>
	
		<linearGradient id="SVGID_00000176733466714782882190000016489197237000932754_" gradientUnits="userSpaceOnUse" x1="52.0253" y1="89.1968" x2="73.4099" y2="89.1968" gradientTransform="matrix(0.9511 -0.309 0.309 0.9511 -15.7871 21.7498)">
		<stop  offset="0" style="stop-color:#000000"/>
		<stop  offset="0.3218" style="stop-color:#3D3D3D"/>
		<stop  offset="0.6436" style="stop-color:#262626"/>
		<stop  offset="1" style="stop-color:#737373"/>
	</linearGradient>
	<path style="fill:url(#SVGID_00000176733466714782882190000016489197237000932754_);" d="M80.59,80.81l0.68,2.09
		c0.78,2.41-3.14,5.84-8.75,7.66c-5.62,1.82-10.8,1.35-11.58-1.05l-0.77-2.36"/>
	
		<linearGradient id="SVGID_00000055701578423947661970000005740569094945741726_" gradientUnits="userSpaceOnUse" x1="41.0212" y1="73.6357" x2="84.414" y2="73.6357" gradientTransform="matrix(0.9511 -0.309 0.309 0.9511 -15.7871 21.7498)">
		<stop  offset="0" style="stop-color:#1C1C1C"/>
		<stop  offset="0.1384" style="stop-color:#101010"/>
		<stop  offset="0.2723" style="stop-color:#000000"/>
		<stop  offset="0.7178" style="stop-color:#000000"/>
		<stop  offset="0.7491" style="stop-color:#0A0A0A"/>
		<stop  offset="0.8024" style="stop-color:#252525"/>
		<stop  offset="0.8715" style="stop-color:#525252"/>
		<stop  offset="0.9527" style="stop-color:#8E8E8E"/>
		<stop  offset="1" style="stop-color:#B5B5B5"/>
	</linearGradient>
	<path style="fill:url(#SVGID_00000055701578423947661970000005740569094945741726_);" d="M41.79,65.21c0,0,4.61,29.02,29.31,20.99
		s11.37-34.21,11.37-34.21"/>
	
		<linearGradient id="SVGID_00000098911724046587478260000018366763259250183043_" gradientUnits="userSpaceOnUse" x1="50.8106" y1="99.0029" x2="58.448" y2="48.851" gradientTransform="matrix(0.9511 -0.309 0.309 0.9511 -15.7871 21.7498)">
		<stop  offset="0" style="stop-color:#A8A8A8"/>
		<stop  offset="0.1253" style="stop-color:#9C9C9C"/>
		<stop  offset="0.3523" style="stop-color:#7C7C7C"/>
		<stop  offset="0.6551" style="stop-color:#484848"/>
		<stop  offset="1" style="stop-color:#050505"/>
	</linearGradient>
	<path style="opacity:0.24;fill:url(#SVGID_00000098911724046587478260000018366763259250183043_);" d="M74.01,85.26
		c0,0,2.94-5.77-0.4-11.11c-3.34-5.34-9.37-6.6-9.37-6.6c-10.95,3.38-20.91,2.37-22.44-2.34c0,0,4.61,29.02,29.31,20.99
		c1.01-0.33,1.96-0.69,2.85-1.08"/>
	
		<linearGradient id="SVGID_00000118382259967437974700000011101721561795677082_" gradientUnits="userSpaceOnUse" x1="48.7818" y1="60.6732" x2="77.9946" y2="57.4274" gradientTransform="matrix(0.9511 -0.309 0.309 0.9511 -15.7871 21.7498)">
		<stop  offset="0" style="stop-color:#262626"/>
		<stop  offset="0.2595" style="stop-color:#323232"/>
		<stop  offset="0.2723" style="stop-color:#333333"/>
		<stop  offset="0.7178" style="stop-color:#1C1C1C"/>
		<stop  offset="0.8389" style="stop-color:#262626"/>
		<stop  offset="1" style="stop-color:#3B3B3B"/>
	</linearGradient>
	<path style="fill:url(#SVGID_00000118382259967437974700000011101721561795677082_);" d="M82.47,51.99
		c1.56,4.81-6.27,11.67-17.51,15.32c-11.23,3.65-21.61,2.71-23.17-2.11c-1.56-4.81,6.27-11.67,17.51-15.32
		C70.53,46.23,80.91,47.18,82.47,51.99z"/>
	
		<linearGradient id="SVGID_00000120561331584731018300000003343358794582211469_" gradientUnits="userSpaceOnUse" x1="44.388" y1="59.1248" x2="81.0472" y2="59.1248" gradientTransform="matrix(0.9511 -0.309 0.309 0.9511 -15.7871 21.7498)">
		<stop  offset="0" style="stop-color:#000000"/>
		<stop  offset="0.3218" style="stop-color:#121212"/>
		<stop  offset="0.6436" style="stop-color:#000000"/>
		<stop  offset="1" style="stop-color:#6B6B6B"/>
	</linearGradient>
	<path style="fill:url(#SVGID_00000120561331584731018300000003343358794582211469_);" d="M79.56,52.94
		c1.25,3.85-5.54,9.51-15.17,12.64c-9.63,3.13-18.45,2.54-19.7-1.31s5.54-9.51,15.17-12.64S78.31,49.08,79.56,52.94z"/>
	
		<linearGradient id="SVGID_00000011033242161466777740000004294390769616801427_" gradientUnits="userSpaceOnUse" x1="51.2755" y1="64.8364" x2="76.6804" y2="62.0136" gradientTransform="matrix(0.9511 -0.309 0.309 0.9511 -15.7871 21.7498)">
		<stop  offset="0" style="stop-color:#9C9C9C"/>
		<stop  offset="0.0506" style="stop-color:#A8A8A8"/>
		<stop  offset="0.1422" style="stop-color:#C8C8C8"/>
		<stop  offset="0.2636" style="stop-color:#FBFBFB"/>
		<stop  offset="0.2723" style="stop-color:#FFFFFF"/>
		<stop  offset="0.7178" style="stop-color:#D6D6D6"/>
		<stop  offset="0.8067" style="stop-color:#CCCCCC"/>
		<stop  offset="0.958" style="stop-color:#B1B1B1"/>
		<stop  offset="1" style="stop-color:#A8A8A8"/>
	</linearGradient>
	<path style="fill:url(#SVGID_00000011033242161466777740000004294390769616801427_);" d="M45.92,67.19c0,0,6.75-4.71,9.91-5.74
		c3.17-1.03,14.74-0.97,17.33-3.76s5.51-3.25,5.51-3.25l2.41,0.68c0,0-4.04,9.11-17.28,11.46S45.92,67.19,45.92,67.19z"/>
	
		<linearGradient id="SVGID_00000168821210487538284240000014944306045189369255_" gradientUnits="userSpaceOnUse" x1="48.7818" y1="60.6732" x2="77.9946" y2="57.4274" gradientTransform="matrix(0.9511 -0.309 0.309 0.9511 -15.7871 21.7498)">
		<stop  offset="0" style="stop-color:#262626"/>
		<stop  offset="0.2595" style="stop-color:#323232"/>
		<stop  offset="0.2723" style="stop-color:#333333"/>
		<stop  offset="0.7178" style="stop-color:#1C1C1C"/>
		<stop  offset="0.8389" style="stop-color:#262626"/>
		<stop  offset="1" style="stop-color:#3B3B3B"/>
	</linearGradient>
	<path style="fill:url(#SVGID_00000168821210487538284240000014944306045189369255_);" d="M59.3,49.88
		c-11.23,3.65-19.07,10.51-17.51,15.32c1.56,4.81,11.94,5.76,23.17,2.11c11.23-3.65,19.07-10.51,17.51-15.32
		C80.91,47.18,70.53,46.23,59.3,49.88z M64.4,65.57c-9.63,3.13-18.45,2.54-19.7-1.31c-1.25-3.85,5.54-9.51,15.17-12.64
		c9.63-3.13,18.45-2.54,19.7,1.31C80.82,56.79,74.02,62.44,64.4,65.57z"/>
	
		<linearGradient id="SVGID_00000062888280019201106880000005733168127735931266_" gradientUnits="userSpaceOnUse" x1="32.0037" y1="17.6131" x2="36.3315" y2="34.4153" gradientTransform="matrix(0.9511 -0.309 0.309 0.9511 -15.7871 21.7498)">
		<stop  offset="0" style="stop-color:#808080"/>
		<stop  offset="0.0721" style="stop-color:#8C8C8C"/>
		<stop  offset="0.202" style="stop-color:#ABABAB"/>
		<stop  offset="0.2723" style="stop-color:#BFBFBF"/>
		<stop  offset="0.7178" style="stop-color:#8F8F8F"/>
		<stop  offset="0.82" style="stop-color:#999999"/>
		<stop  offset="0.9939" style="stop-color:#B4B4B4"/>
		<stop  offset="1" style="stop-color:#B5B5B5"/>
	</linearGradient>
	<path style="fill:url(#SVGID_00000062888280019201106880000005733168127735931266_);stroke:#ABABAB;stroke-miterlimit:10;" d="
		M31.87,17.51c0,0,7.29-2.43,12.35,9.04c3.82,8.66,0.07,14.52,0.07,14.52s-1.15,6.04-1.89,7.08c-0.73,1.04-5.5-2.06-5.5-2.06
		l-18.82,9.06c-4.7,1.53-10.47-3.24-12.87-10.64S4.67,29.86,9.37,28.34L31.87,17.51z"/>
	<path class="st10" d="M11.05,53.38l26.6-11.62c0,0,6.14-1.29,11.35,4.24s10.86,17.35,10.86,17.35l-7.5,2.24
		c0,0-6.01-19.73-13.74-20.03l-20.53,9.59c0,0-3.57,0.25-4.77-0.36S11.05,53.38,11.05,53.38z"/>
	<path class="st11" d="M28.45,35.73L7.71,49.7c0,0-1.52-1.86-2.28-4.53s-0.96-3.65-0.96-3.65l22.76-9.54L28.45,35.73z"/>
	<path class="st12" d="M36.23,46.42c0,0-2.24-1.28-4-3.9c-1.76-2.62-2.11-3.25-2.11-3.25L11.05,53.38c0,0,3.87,3.3,7.04,1.77
		S36.23,46.42,36.23,46.42z"/>
	
		<ellipse transform="matrix(0.9511 -0.309 0.309 0.9511 -12.2275 6.2862)" class="st13" cx="13.73" cy="41.74" rx="8.96" ry="14.1"/>
	<path class="st14" d="M9.37,28.34c4.7-1.53,10.47,3.24,12.87,10.64s0.54,14.65-4.16,16.17"/>
	
		<linearGradient id="SVGID_00000092458811185075444440000012536995638985870989_" gradientUnits="userSpaceOnUse" x1="109.8955" y1="32.3335" x2="112.9505" y2="38.8253" gradientTransform="matrix(0.9511 -0.309 0.309 0.9511 -15.7871 21.7498)">
		<stop  offset="0" style="stop-color:#0D0D0D"/>
		<stop  offset="0.1258" style="stop-color:#171717"/>
		<stop  offset="0.3408" style="stop-color:#323232"/>
		<stop  offset="0.619" style="stop-color:#5E5E5E"/>
		<stop  offset="0.9464" style="stop-color:#9B9B9B"/>
		<stop  offset="1" style="stop-color:#A6A6A6"/>
	</linearGradient>
	<path style="fill:url(#SVGID_00000092458811185075444440000012536995638985870989_);" d="M100.48,33.29l-2.83-8.72
		c0,0,3.9-5.28,5.85-6.72c1.94-1.43,6.3-2.85,6.79-3.81c0.49-0.96-2.38-4.85-4.32-3.41s-4.87,4.79-4.87,4.79s-3.9,5.28-4.39,6.25
		c-0.49,0.96-5.81,1.89-5.81,1.89l2.36,7.26L100.48,33.29z"/>
	<path class="st16" d="M44.31,72.02c7.59,2.22,14.34,0.56,21.6-1.8c-4.09,6.92-10.26,8.99-18.33,8.16
		c8.2,1.47,14.32,0.49,21.67-2.82c-4.65,4.84-8.54,7.77-15.13,8.73c7.07,0.24,13.89-0.44,19.92-3.86c0,0-4.42,4.95-13.6,6.33"/>
	
		<linearGradient id="SVGID_00000082346298441326495100000013649477579220111511_" gradientUnits="userSpaceOnUse" x1="84.4936" y1="44.423" x2="109.0696" y2="39.8896" gradientTransform="matrix(0.9511 -0.309 0.309 0.9511 -15.7871 21.7498)">
		<stop  offset="0" style="stop-color:#707070"/>
		<stop  offset="0.0828" style="stop-color:#7C7C7C"/>
		<stop  offset="0.2322" style="stop-color:#9C9C9C"/>
		<stop  offset="0.2723" style="stop-color:#A6A6A6"/>
		<stop  offset="0.7178" style="stop-color:#303030"/>
		<stop  offset="0.7574" style="stop-color:#3B3B3B"/>
		<stop  offset="0.8251" style="stop-color:#565656"/>
		<stop  offset="0.9125" style="stop-color:#828282"/>
		<stop  offset="1" style="stop-color:#B5B5B5"/>
	</linearGradient>
	<polygon style="fill:url(#SVGID_00000082346298441326495100000013649477579220111511_);" points="81.56,44.26 77.73,39.88 
		87.99,24.5 96.2,25.05 	"/>
	<g>
		
			<linearGradient id="SVGID_00000026885473921896054600000003961605110727890330_" gradientUnits="userSpaceOnUse" x1="77.4311" y1="51.4252" x2="110.1033" y2="74.0149" gradientTransform="matrix(0.9511 -0.309 0.309 0.9511 -15.7871 21.7498)">
			<stop  offset="0" style="stop-color:#FFFFFF"/>
			<stop  offset="0.9368" style="stop-color:#312D2E"/>
			<stop  offset="1" style="stop-color:#000000"/>
		</linearGradient>
		<path style="fill:url(#SVGID_00000026885473921896054600000003961605110727890330_);" d="M88.88,34.65c0,0-15.98,5.19-17.03,16.78
			c-1.05,11.58-6.44,10.81-0.97,9.84c5.47-0.97,5.76-4.97,5.76-4.97s-0.97-5.44,2.45-9.76S88.88,34.65,88.88,34.65z"/>
	</g>
	<polygon class="st19" points="88.67,35.25 86.51,26.72 87.99,24.5 89.74,34.85 	"/>
	
		<linearGradient id="SVGID_00000070820877607352108570000004839872854717124254_" gradientUnits="userSpaceOnUse" x1="102.2547" y1="33.2127" x2="91.4351" y2="62.3619" gradientTransform="matrix(0.9511 -0.309 0.309 0.9511 -15.7871 21.7498)">
		<stop  offset="0" style="stop-color:#808080"/>
		<stop  offset="0.0721" style="stop-color:#8C8C8C"/>
		<stop  offset="0.202" style="stop-color:#ABABAB"/>
		<stop  offset="0.2723" style="stop-color:#BFBFBF"/>
		<stop  offset="0.7178" style="stop-color:#8F8F8F"/>
		<stop  offset="0.82" style="stop-color:#999999"/>
		<stop  offset="0.9939" style="stop-color:#B4B4B4"/>
		<stop  offset="1" style="stop-color:#B5B5B5"/>
	</linearGradient>
	<polygon style="fill:url(#SVGID_00000070820877607352108570000004839872854717124254_);" points="81.56,44.26 100.48,33.29 
		96.2,25.05 	"/>
	<path class="st21" d="M36.91,46.09c-3.78-0.96-7.36-6.76-9.2-12.41c-2.41-7.4-0.54-14.65,4.16-16.17s10.47,3.24,12.87,10.64
		c1.65,5.07,1.29,10.06-0.6,13.2"/>
	
		<linearGradient id="SVGID_00000174564519343484859180000013035877724859420805_" gradientUnits="userSpaceOnUse" x1="51.1696" y1="36.9338" x2="51.1696" y2="36.9338" gradientTransform="matrix(0.9511 -0.309 0.309 0.9511 -15.7871 21.7498)">
		<stop  offset="0" style="stop-color:#808080"/>
		<stop  offset="0.0721" style="stop-color:#8C8C8C"/>
		<stop  offset="0.202" style="stop-color:#ABABAB"/>
		<stop  offset="0.2723" style="stop-color:#BFBFBF"/>
		<stop  offset="0.7178" style="stop-color:#8F8F8F"/>
		<stop  offset="0.82" style="stop-color:#999999"/>
		<stop  offset="0.9939" style="stop-color:#B4B4B4"/>
		<stop  offset="1" style="stop-color:#B5B5B5"/>
	</linearGradient>
	<path style="fill:url(#SVGID_00000174564519343484859180000013035877724859420805_);stroke:#7C7C7C;stroke-miterlimit:10;" d="
		M44.29,41.06"/>
	<polyline class="st23" points="25.97,41.84 24.93,39.67 13.27,44.97 14.16,46.88 	"/>
	<line class="st23" x1="18.58" y1="42.55" x2="19.47" y2="44.55"/>
	
		<linearGradient id="SVGID_00000075127058258879346590000006474533876580477861_" gradientUnits="userSpaceOnUse" x1="83.3384" y1="43.0864" x2="105.4867" y2="43.0864" gradientTransform="matrix(0.9511 -0.309 0.309 0.9511 -15.7871 21.7498)">
		<stop  offset="0" style="stop-color:#808080"/>
		<stop  offset="0.0699" style="stop-color:#8C8C8C"/>
		<stop  offset="0.1958" style="stop-color:#ABABAB"/>
		<stop  offset="0.2723" style="stop-color:#C2C2C2"/>
		<stop  offset="0.7178" style="stop-color:#8F8F8F"/>
		<stop  offset="0.7593" style="stop-color:#999999"/>
		<stop  offset="0.8301" style="stop-color:#B4B4B4"/>
		<stop  offset="0.844" style="stop-color:#BABABA"/>
		<stop  offset="1" style="stop-color:#C7C7C7"/>
	</linearGradient>
	<polygon style="fill:url(#SVGID_00000075127058258879346590000006474533876580477861_);" points="78.19,40.4 88.26,25.32 
		94.46,25.88 81.27,43.35 81.56,44.26 96.2,25.05 87.99,24.5 77.73,39.88 	"/>
</g>
<g id="highlight">
	<g>
		<line class="st25" x1="26.26" y1="85.52" x2="36.79" y2="85.52"/>
		<line class="st25" x1="31.52" y1="90.79" x2="31.52" y2="80.25"/>
	</g>
	<g>
		<line class="st25" x1="83.33" y1="113.86" x2="88.91" y2="113.86"/>
		<line class="st25" x1="86.12" y1="116.64" x2="86.12" y2="111.07"/>
	</g>
	<circle class="st25" cx="114.25" cy="37.75" r="1.37"/>
	<circle class="st25" cx="73.35" cy="3.08" r="1.67"/>
	<circle class="st25" cx="49.92" cy="102.52" r="1.67"/>
	<circle class="st25" cx="3.67" cy="65.59" r="1.67"/>
	<polyline class="st25" points="98.57,65.64 105.47,70.06 99.95,75.02 	"/>
</g>
</svg>
