<svg version="1.2" xmlns="http://www.w3.org/2000/svg">
    <symbol id="logo">
        <rect x="7" y="7" width="59" height="46"/>
        <rect x="20" y="20" class="st0" width="7" height="19.8" fill="currentColor"/>
        <path class="st0" d="M0,0v53h7V7h33v46H7v6.8h66V0H0z M66,53H53V7h13V53z" fill="currentColor"/>
    </symbol>

    <symbol id="news-matte">
        <polygon points="81.3,0 0,0 0,52.1 12.9,65 87.5,65 87.5,6.3"/>
    </symbol>
    
    <symbol id="news-hover">
        <polygon points="81.3,0 0,0 0,52.1 12.9,65 87.5,65 87.5,6.3"/>
    </symbol>

    <symbol id="news-border">
        <polygon points="88,66.1 13.3,66.1 13.3,65.1 87,65.1 87,7.3 80.8,1 0,1 0,0 81.2,0 88,6.9 "/>
    </symbol>

    <symbol id="news-highlight">
        <!-- no nighlight for news -->
    </symbol>

    <symbol id="news-icon">
        <polygon points="13.9,1 4.1,1 2,1 2,1 2,5 4,5 4,3 14,3 14,5 16,5 16,1"/>
        <polygon points="14,14 4,14 4,12 2,12 2,16 2,16 4.1,16 13.9,16 16,16 16,12 14,12"/>
        <rect x="6" y="5" width="6" height="1"/>
        <rect x="6" y="8" width="6" height="1"/>
        <rect x="6" y="11" width="6" height="1"/>
    </symbol>

    <symbol id="news-selection">
        <polygon points="16.3,61.9 5,50.5 5,13.9 12,13.9 12,9.9 5,9.9 0,9.9 0,13.9 0,52.7 13.2,65.9 17.3,65.9 23.1,65.9 23.1,61.9"/>
        <polygon points="74.9,13.9 74.9,9.9 81.9,9.9 86.9,9.9 86.9,13.9 86.9,61.9 86.9,65.9 81.9,65.9 74.9,65.9 74.9,61.9 81.9,61.9 81.9,13.9"/>
    </symbol>

    <symbol id="articles-icon">
        <polygon points="5.1,7 7,7 9,9 15,9 15,6 5.6,6 4,4.5 4,1.1 3,1.1 3,13.1 3.2,13.1 3.1,13.1 5.1,15 7,15 9,16.9 15,16.9 15,14 5.6,14 4,12.5 4,9.9 5.1,11 7,11 9,13 15,13 15,10 5.6,10 4,8.5 4,5.9"/>
    </symbol>

    <symbol id="projects-icon">
        <polygon points="10,0 9,0 6,3 6,7 9,10 10,10 13,7 13,3 "/>
        <polygon points="14,8 13,8 13,9 12,9 12,10 11,10 11,11 10,11 10,15 13,18 14,18 17,15 17,11 "/>
        <polygon points="8,11 8,10 7,10 7,9 6,9 6,8 5,8 2,11 2,15 5,18 6,18 9,15 9,11 "/>
    </symbol>

    <symbol id="about-border">
        <polygon points="87,7 87,65 1,65 1,10 0,10 0,66 88,66 88,7"/>
    </symbol>

    <symbol id="about-icon">
        <polygon points="12,4 10,4 10,1 9,1 9,4 7,4 7,9 12,9"/>
        <polygon points="14,11 14,13 12,13 12,11 7,11 5,9 5,4 0,4 0,9 4,9 7,12 7,16 12,16 12,14 14,14 14,16 19,16 19,11"/>
    </symbol>
    
    <symbol id="matte">
        <polygon points="87,65 87,6.4 80.7,0.1 6.4,0.1 0,6.3 0,65"/>
    </symbol>

    <symbol id="hover">
        <polygon points="87,65 87,6.4 80.7,0.1 6.4,0.1 0,6.3 0,65"/>
    </symbol>

    <symbol id="highlight">
        <rect x="1" y="7" width="1" height="58"/>
    </symbol>

    <symbol id="border">
        <path d="M88,66H0V6.8L6.8,0h74.4L88,6.8L88,66L88,66z M1,65h86V7.3L80.7,1H7.2L1,7.3V65z"/>
    </symbol>

    <symbol id="selection">
        <polygon points="13,14.1 13,10.1 1,10.1 1,66 13,66 13,62 6,62 6,14.1"/>
        <polygon points="75,14.1 75,10.1 87,10.1 87,66 75,66 75,62 82,62 82,14.1"/>
    </symbol>

    <symbol id="clock">
        <ellipse cx="8" cy="8" rx="6" ry="6" fill="white" stroke="darkgray" stroke-width="1.35"/>
        <line x1="8" y1="8" x2="8" y2="5" stroke="darkgray" stroke-width="1"/>
        <line x1="8" y1="8" x2="10.5" y2="10.5" stroke="darkgray" stroke-width="1"/>
    </symbol>

    <symbol id="submit">
        <rect x="1" width="1" height="8" stroke="none"/>
        <rect x="2" y="8" width="6" height="1" stroke="none"/>
        <path d="M7.5,7L4,3.9V2.7l3,2.7V0h1v5.4l3-2.7v1.2L7.5,7z" stroke="none"/>
    </symbol>

    <symbol id="register">
        <rect x="4" width="2" height="1" stroke="none"/>
        <rect x="1" y="9" width="8" height="1" stroke="none"/>
        <rect x="2" y="7" width="6" height="1" stroke="none"/>
        <rect x="2" y="5" width="6" height="1" stroke="none"/>
        <rect y="2" width="1" height="7" stroke="none"/>
        <rect x="9" y="2" width="1" height="7" stroke="none"/>
        <polygon points="6 1 6 2 4 2 4 1 1 1 1 2 3 2 3 3 7 3 7 2 9 2 9 1 6 1" stroke="none"/>
    </symbol>

    <symbol id="cancel">
        <line x1="8" y1="0" x2="0" y2="8" fill="none"/>
        <line x1="0" y1="0" x2="8" y2="8" fill="none"/>
    </symbol>

    <symbol id="star">
        <polygon points="7.9,0 9.8,5.9 16,5.9 11,9.5 12.9,15.3 7.9,11.7 3,15.3 4.9,9.5 -0.1,5.9 6,5.9" fill="currentColor" stroke="none"/>
    </symbol>
</svg>