<svg version="1.2" xmlns="http://www.w3.org/2000/svg">
    <symbol id="facebook">
        <path stroke="none" d="M11.1,6.1c0,0.6,0,1.2,0,1.8c-0.7,0-1.4,0-2.2,0c0,1.8,0,3.6,0,5.5c-0.7,0-1.4,0-2.1,0c0-1.8,0-3.6,0-5.4
		C6.1,8,5.6,8,4.9,8c0-0.6,0-1.2,0-1.8c0.6,0,1.2,0,1.9,0c0-0.5,0-1,0-1.4C6.9,3.3,8,2.3,9.4,2.3c0.6,0,1.1,0,1.7,0c0,0.7,0,2,0,2
		l-1.5,0c-0.4,0-0.6,0.2-0.6,0.6c0,0.4,0,0.8,0,1.3C9.6,6.1,10.3,6.1,11.1,6.1z"/>
    </symbol>

    <symbol id="twitter">
        <path stroke="none" d="M5.2,14.3c5.7,0,8.8-4.7,8.8-8.8c0-0.1,0-0.3,0-0.4c0.6-0.4,1.2-0.6,1.5-1.6c-0.6,0.2-1.7,0.8-2.3,0.6
            c0.6-0.4,1.9-0.9,1.9-1.8c-0.6,0.4-1.3,0.6-2,0.8c-0.6-0.6-1.4-1-2.3-1c-1.7,0-3.1,1.4-3.1,3.1c0,0.2,0,0.5,0.1,0.7
            C5.3,5.8,3,4.5,1.5,2.6c-0.3,0.5-0.4,1-0.4,1.6c0,1.1,0.5,2,1.4,2.6c-0.5,0-1-0.2-1.4-0.4c0,0,0,0,0,0c0,1.5,1.1,2.7,2.5,3
            C3.3,9.5,3,9.6,2.7,9.6c-0.2,0-0.4,0-0.6-0.1c0.4,1.2,1.5,2.1,2.9,2.1C4,12.5,2.6,13,1.2,13c-0.2,0-0.5,0-0.7,0
            C1.8,13.8,3.5,14.3,5.2,14.3"/>
    </symbol>

    <symbol id="linkedin">
        <rect stroke="none" x="3.1" y="5.1" width="2.4" height="7.9"/>
        <path stroke="none" d="M14.4,6.9c-0.2-0.8-0.7-1.3-1.4-1.7c-0.5-0.2-1-0.3-1.5-0.3C10.6,5,9.9,5.4,9.4,6.1l-0.1,0c0-0.4-0.1-0.6-0.1-1
            c-0.7,0-1.4,0-2.1,0V13h2.5V9.5l0,0c0-0.4,0-0.9,0-1.3c0-0.8,0.6-1.3,1.4-1.3c0.5,0,0.8,0.3,1,0.8s0.2,1.1,0.2,1.1V13h2.4
            c0,0,0-4.6,0-4.7C14.6,7.8,14.4,7.4,14.4,6.9z"/>
        <circle stroke="none" cx="4.3" cy="2.9" r="1.2"/>
    </symbol>

    <symbol id="google">
        <path stroke="none" d="M0,7.7c0-2.7,2.5-5,5.2-5C6.5,2.6,7.7,3.2,8.7,4C8.3,4.5,7.8,4.9,7.4,5.4C6.2,4.5,4.5,4.3,3.3,5.3c-1.7,1.2-1.8,3.9-0.1,5.2
            c1.6,1.4,4.6,0.7,5-1.5c-1,0-2,0-3,0c0-0.6,0-1.2,0-1.8c1.7,0,3.3,0,5,0c0.1,1.4-0.1,2.9-0.9,4C8,13,5.4,13.6,3.3,12.8
            C1.3,12-0.2,9.9,0,7.7z"/>
        <rect stroke="none" x="11.5" y="7.2" width="4.5" height="1.5"/>
        <rect stroke="none" x="13" y="5.7" width="1.5" height="4.5"/>
    </symbol>

    <symbol id="microsoft">
        <polygon stroke="none" points="7.5,3.1 13.8,2.2 13.8,7.7 7.5,7.7 	"/>
        <polygon stroke="none" points="7.5,12.9 13.8,13.8 13.8,8.3 7.5,8.3 	"/>
        <polygon stroke="none" points="2.2,3.8 7,3.1 7,7.7 2.2,7.8 	"/>
        <polygon stroke="none" points="2.2,12.2 7,12.9 7,8.3 2.2,8.2 	"/>
    </symbol>

    <symbol id="github">
        <path stroke="none" d="M10.2,10.1c0.6,0.5,0.7,1,0.7,1.6c0,0.7,0,1.3,0,2c0,0.4,0.1,0.7,0.5,0.9c0.1,0.1,0.2,0.2,0.3,0.3c-0.2,0-0.4,0.1-0.6,0.1
            c-0.7-0.1-1-0.2-1-1.1c0-0.6,0-1.2,0-1.8c0-0.2-0.2-0.5-0.4-0.7c-0.1,0.1-0.1,0.2-0.1,0.3c0,0.8,0,1.6,0,2.3c0,0.3,0.1,0.6,0.3,0.8
            c0.1,0.1,0.1,0.3,0.2,0.4c-0.1,0-0.1,0.1-0.2,0.1c-0.5,0-0.9-0.5-1-1C9,14,9,13.6,9,13.3c0-0.6,0-1.1,0-1.7c0-0.1,0-0.2,0-0.3
            c-0.2,0-0.4,0.2-0.4,0.3c0,0.8,0,1.7,0,2.5c0,0.4-0.1,0.7-0.4,1c-0.2,0.1-0.4,0.2-0.6,0.3c-0.1,0-0.2,0-0.3-0.1c0-0.1,0-0.1,0-0.1
            c0.5-0.4,0.5-1,0.6-1.5c0-0.7,0-1.4,0-2.2c-0.2,0.1-0.5,0.3-0.6,0.4c0,0.2,0,0.4,0,0.7c0,0.5,0,1,0,1.5c0,0.4,0,0.6-0.4,0.8
            C6.4,15,6,15.1,5.6,14.9c0.2-0.2,0.3-0.3,0.4-0.4c0.3-0.2,0.4-0.4,0.4-0.7c0-0.4,0-0.9,0-1.3c-0.3,0-0.5,0-0.7,0
            c-1,0-1.7-0.3-2.1-1.3c-0.2-0.4-0.5-0.7-0.8-1C2.7,10.1,2.6,10,2.4,9.9c0.1-0.1,0.2-0.1,0.3-0.1c0.4,0,0.8,0.1,1.1,0.5
            c0.1,0.2,0.3,0.4,0.4,0.6c0.6,0.7,1.3,0.8,2.1,0.4c0.2-0.4,0.4-0.7,0.6-1C6.3,10,5.8,9.9,5.2,9.7C4,9.3,3.3,8.4,3,7.2
            C2.9,6.4,2.8,5.7,3,4.9C3,4.6,3.2,4.4,3.3,4.1c0.1-0.2,0.3-0.5,0.5-0.7C3.6,2.7,3.5,1.9,3.9,1.1C4.9,1,5.6,1.6,6.4,2
            c1.4-0.4,2.8-0.3,4.2-0.1C11.3,1.5,12,1,12.9,1c0.2,0.4,0.3,0.7,0.3,1.1c0,0.4,0,0.7-0.1,1.1c0.1,0.1,0.2,0.2,0.2,0.3
            c0.4,0.6,0.7,1.2,0.7,1.9c0.1,0.8,0,1.5-0.2,2.3c-0.2,0.9-0.8,1.5-1.6,1.8C11.7,9.9,11,10,10.2,10.1z"/>
    </symbol>

    <symbol id="reddit">
        <path stroke="none" d="M8.1,14.4C6.2,14.3,4.7,14,3.4,13c-0.6-0.4-1.1-0.9-1.4-1.6c-0.3-0.6-0.4-1.2-0.3-1.8c0.1-0.3,0-0.5-0.3-0.7
            c-1-0.8-0.6-2.1,0.4-2.5c0.5-0.2,0.9-0.1,1.3,0.2c0.2,0.2,0.4,0.2,0.7,0c0.9-0.6,1.9-0.8,2.9-1c0.1,0,0.3,0,0.4,0
            c0.4,0,0.4-0.1,0.5-0.4c0.1-0.5,0.2-1,0.3-1.5C8.2,3,8.3,2.3,8.5,1.6C8.5,1.3,8.7,1.3,9,1.3c0.8,0.2,1.6,0.3,2.4,0.5
            c0.3,0.1,0.4,0,0.6-0.2c0.3-0.3,0.6-0.4,1.1-0.3c0.4,0.1,0.7,0.4,0.8,0.8c0.1,0.5-0.2,1.1-0.7,1.3c-0.5,0.1-1.1-0.1-1.3-0.6
            c0-0.1-0.1-0.2-0.1-0.3c0-0.2-0.2-0.3-0.4-0.3c-0.7-0.2-1.4-0.3-2.1-0.5C9,1.7,8.9,1.8,8.8,2C8.7,2.8,8.5,3.6,8.3,4.3
            C8.2,4.6,8.2,4.8,8.2,5C8,5.6,8,5.6,8.6,5.6c1,0.1,1.9,0.3,2.8,0.8c0.2,0.1,0.3,0.2,0.5,0.3c0.2,0.1,0.3,0.1,0.5,0
            c0.3-0.2,0.6-0.3,0.9-0.3c0.7,0,1.1,0.4,1.4,0.9c0.2,0.6,0.1,1.1-0.3,1.5c-0.1,0.1-0.2,0.2-0.3,0.2C14,9.2,13.9,9.3,14,9.4
            c0.2,1.1-0.2,2-0.9,2.8c-0.9,1-2,1.6-3.3,1.9C9.2,14.3,8.8,14.4,8.1,14.4z M4,9.4c0,0.7,0.6,1.3,1.2,1.2c0.7,0,1.2-0.6,1.2-1.3
            c0-0.6-0.7-1.3-1.3-1.2C4.5,8.2,4.1,8.7,4,9.4z M11.6,9.4c0-0.7-0.5-1.3-1.3-1.3c-0.7,0-1.1,0.5-1.2,1.2c-0.1,0.6,0.6,1.3,1.3,1.3
            C11.1,10.6,11.6,10.2,11.6,9.4z M7.8,13c0.8,0,1.4-0.1,2.1-0.4c0.2-0.1,0.4-0.3,0.6-0.4c0.1-0.1,0.1-0.3,0-0.4
            c-0.1-0.1-0.2-0.2-0.4-0.1c-0.1,0.1-0.2,0.1-0.4,0.2c-0.2,0.1-0.4,0.3-0.7,0.3c-1.1,0.2-2.3,0.3-3.3-0.4c-0.1,0-0.1-0.1-0.2-0.1
            c-0.2-0.1-0.3,0-0.4,0.1c-0.1,0.1-0.1,0.3,0,0.4c0.2,0.2,0.4,0.3,0.6,0.4C6.4,12.9,7.1,13.1,7.8,13z"/>
    </symbol>

    <symbol id="yahoo">
        <path stroke="none" d="M11,12.7H3.9v-0.6l0,0c0,0,0.2-0.3,0.5-0.3l0.1,0c0.3,0,1.2,0,1.3,0c0,0,0.4-0.1,0.4-0.4V9.2L2.4,4.6l0,0
		c0,0-0.3-0.2-1-0.3C0.6,4.3,0.1,4.2,0.1,4.2L0,4.2v-1h7.4l0,0.2C7.2,3.9,7.1,4.1,6.9,4.1c-1.5,0-1.7,0.1-1.7,0.1l0,0L8,7.9
		c0.7-0.6,2.2-1.9,2.6-2.3c-0.2-0.1-0.7-0.2-1-0.2c-0.8,0-0.9-0.2-0.9-0.3l0-0.7H15l-0.1,0.2c-0.4,0.9-0.6,0.9-0.6,0.9
		c0,0-0.1,0-0.3,0c-0.3,0-1.1,0-1.3,0.2C12.4,5.9,9.2,8.6,8.8,9v2.3c0,0.1,0,0.3,0.1,0.4l2.2,0V12.7z M6.9,3.8
		C6.9,3.8,6.9,3.8,6.9,3.8C6.9,3.8,6.9,3.8,6.9,3.8L6.9,3.8z"/>
    </symbol>
</svg>