<?xml version="1.0" encoding="utf-8"?>
<!-- Generator: Adobe Illustrator 23.1.1, SVG Export Plug-In . SVG Version: 6.00 Build 0)  -->
<svg version="1.0" xmlns="http://www.w3.org/2000/svg" xmlns:xlink="http://www.w3.org/1999/xlink" x="0px" y="0px" width="24px"
	 height="24px" viewBox="0 0 24 24" enable-background="new 0 0 24 24" xml:space="preserve">
<g id="Border" display="none">
	<path display="inline" fill="#D3D3D3" d="M19.3,24.6H4.7L-2.6,12L4.7-0.6h14.6L26.6,12L19.3,24.6z M5.3,23.6h13.4L25.4,12L18.7,0.4
		H5.3L-1.4,12L5.3,23.6z"/>
</g>
<g id="Icon">
	<path fill="#464646" d="M4,15.8c0.4,0,0.8,0,1.3,0c0-2.5,0-5,0-7.5c-0.5,0-0.9,0-1.3,0C4,10.8,4,13.3,4,15.8z"/>
	<path fill="#464646" d="M6,15.8c0.4,0,0.8,0,1.3,0c0-2.5,0-5,0-7.5c-0.4,0-0.8,0-1.3,0C6,10.8,6,13.3,6,15.8z"/>
	<path fill="#464646" d="M8.2,15.8c0.4,0,0.8,0,1.3,0c0-2.5,0-5,0-7.5c-0.5,0-0.8,0-1.3,0C8.2,10.8,8.2,13.3,8.2,15.8z"/>
	<path fill="#464646" d="M10.3,15.8c0.4,0,0.8,0,1.3,0c0-2.5,0-5,0-7.5c-0.5,0-0.9,0-1.3,0C10.3,10.8,10.3,13.3,10.3,15.8z"/>
	<path fill="#898989" d="M12.4,14.5c0,0.4,0,0.8,0,1.2c2.5,0,5.1,0,7.6,0c0-0.4,0-0.8,0-1.2C17.5,14.5,15,14.5,12.4,14.5z"/>
	<path fill="#898989" d="M20,8.2c-2.5,0-5,0-7.6,0c0,0.4,0,0.8,0,1.2c2.5,0,5,0,7.6,0C20,9,20,8.6,20,8.2z"/>
	<path fill="#898989" d="M20,11.5c0-0.4,0-0.8,0-1.2c-2.5,0-5,0-7.6,0c0,0.4,0,0.8,0,1.2C15,11.5,17.5,11.5,20,11.5z"/>
	<path fill="#898989" d="M20,12.4c-2.5,0-5,0-7.6,0c0,0.4,0,0.8,0,1.2c2.6,0,5,0,7.6,0C20,13.2,20,12.8,20,12.4z"/>
</g>
</svg>
