<?xml version="1.0" encoding="utf-8"?>
<!-- Generator: Adobe Illustrator 23.1.1, SVG Export Plug-In . SVG Version: 6.00 Build 0)  -->
<svg version="1.1" id="Layer_2" xmlns="http://www.w3.org/2000/svg" xmlns:xlink="http://www.w3.org/1999/xlink" x="0px" y="0px"
	 width="24px" height="24px" viewBox="0 0 24 24" style="enable-background:new 0 0 24 24;" xml:space="preserve">
<style type="text/css">
	.st0{fill:#898989;}
	.st1{fill:#D3D3D3;}
	.st2{fill:#D3D3D3;stroke:#FFFFFF;stroke-width:0.5;stroke-miterlimit:10;}
	.st3{fill:#3B4A51;}
</style>
<polygon class="st0" points="7.3,1.8 17.3,1.8 15.7,5.8 8.1,5.8 "/>
<rect x="7.4" y="3" class="st1" width="9.4" height="1.8"/>
<polygon class="st0" points="16.2,12.3 20.4,5.6 17.3,1.8 13,10.9 14.5,11.3 "/>
<polygon class="st1" points="19.6,4.6 15.3,11.8 13.9,11.1 18.2,2.9 "/>
<polygon class="st0" points="8.4,12.3 4.2,5.6 7.3,1.8 11.8,11.1 10.1,11.3 "/>
<polygon class="st1" points="5,4.6 9.3,11.8 10.7,11.1 6.4,2.9 "/>
<circle class="st2" cx="12.3" cy="16.9" r="5"/>
<g>
	<path class="st3" d="M12.3,11.1c3.2,0,5.8,2.6,5.8,5.8s-2.6,5.8-5.8,5.8s-5.8-2.6-5.8-5.8S9.1,11.1,12.3,11.1 M12.3,10.6
		c-3.5,0-6.3,2.8-6.3,6.3s2.8,6.3,6.3,6.3s6.3-2.8,6.3-6.3S15.7,10.6,12.3,10.6L12.3,10.6z"/>
</g>
<rect x="11" y="15.9" class="st0" width="0.9" height="2.1"/>
<rect x="12.5" y="15.9" class="st0" width="0.9" height="2.1"/>
</svg>
