<?xml version="1.0" encoding="utf-8"?>
<!-- Generator: Adobe Illustrator 23.1.1, SVG Export Plug-In . SVG Version: 6.00 Build 0)  -->
<svg version="1.1" xmlns="http://www.w3.org/2000/svg" xmlns:xlink="http://www.w3.org/1999/xlink" x="0px" y="0px" width="24px"
	 height="24px" viewBox="0 0 24 24" style="enable-background:new 0 0 24 24;" xml:space="preserve">
<style type="text/css">
	.st0{fill:#949494;}
	.st1{fill:#3B4A51;}
	.st2{fill:#D3D3D3;}
</style>
<g id="Layer_1">
	<polygon class="st0" points="20.5,9.8 7.1,16 7.1,12.3 21.2,5.7 20.8,4.8 6.6,11.4 3.8,9.3 3.2,10.1 6.1,12.2 6.1,22 7.1,22 
		7.1,17.1 20.9,10.7 	"/>
	<rect x="9.4" y="5.4" transform="matrix(0.9066 -0.422 0.422 0.9066 -1.4129 5.4619)" class="st1" width="4.4" height="1"/>
	<path class="st2" d="M8.9,8.2L8,7.8l0-3.6l0.3-0.4l6-2.7L15,1.5l0.1,3.6l-0.2,0.4l-1.2,0.5l-0.6-0.2l0-2.1l-2.8,1.3l0,2.2l-0.2,0.4
		L8.9,8.2z"/>
</g>
<g id="Layer_2">
	<path class="st1" d="M21.3,4.8l-3.1-2.2l-0.5,0l-2.5,1.2l0-2.2l-0.7-0.4L8.2,3.9L7.9,4.3v2.8L3.3,9.3L3,9.7v10.1l0.2,0.4l3.1,2.2
		l0.5,0l14.4-6.7l0.3-0.5V5.2L21.3,4.8z M20.5,15L6.6,21.4L4,19.5V10l3.9-1.8v0h1V4.7l5.2-2.4l0.1,3.6l1-0.4l0-0.6l2.7-1.2l2.6,1.9
		V15z"/>
</g>
</svg>
