<?xml version="1.0" encoding="utf-8"?>
<!-- Generator: Adobe Illustrator 23.1.1, SVG Export Plug-In . SVG Version: 6.00 Build 0)  -->
<svg version="1.0" xmlns="http://www.w3.org/2000/svg" xmlns:xlink="http://www.w3.org/1999/xlink" x="0px" y="0px" width="29.2px"
	 height="25.5px" viewBox="0 0 29.2 25.5" enable-background="new 0 0 29.2 25.5" xml:space="preserve">
<g id="Border">
	<path fill="#D0CECE" d="M21.9,25.4H7.3L0,12.7L7.3,0.1h14.6l7.3,12.6L21.9,25.4z M7.9,24.4h13.4L28,12.7L21.3,1.1H7.9L1.2,12.7
		L7.9,24.4z"/>
</g>
<g id="Icon">
	<line fill="none" stroke="#929292" stroke-miterlimit="10" x1="14.7" y1="12.6" x2="14.7" y2="19.5"/>
	<line fill="none" stroke="#929292" stroke-miterlimit="10" x1="20.4" y1="9.8" x2="14.7" y2="12.6"/>
	<line fill="none" stroke="#929292" stroke-miterlimit="10" x1="14.7" y1="12.6" x2="9" y2="9.8"/>
	<path fill="none" stroke="#000000" stroke-miterlimit="10" d="M14.7,12.6"/>
	<line fill="none" stroke="#444444" stroke-miterlimit="10" x1="8.9" y1="16.6" x2="5.6" y2="18.3"/>
	<line fill="none" stroke="#444444" stroke-miterlimit="10" x1="20.4" y1="16.7" x2="23.7" y2="18.3"/>
	<polygon fill="none" stroke="#444444" stroke-miterlimit="10" points="14.7,7 20.4,9.8 20.4,16.7 20.4,16.7 14.7,19.5 9,16.7 
		9,16.7 9,9.8 14.6,7 	"/>
	<line fill="none" stroke="#444444" stroke-miterlimit="10" x1="14.7" y1="7" x2="14.7" y2="3.1"/>
</g>
</svg>
