<?xml version="1.0" encoding="utf-8"?>
<!-- Generator: Adobe Illustrator 23.1.1, SVG Export Plug-In . SVG Version: 6.00 Build 0)  -->
<svg version="1.0" xmlns="http://www.w3.org/2000/svg" xmlns:xlink="http://www.w3.org/1999/xlink" x="0px" y="0px" width="29.2px"
	 height="25.5px" viewBox="0 0 29.2 25.5" enable-background="new 0 0 29.2 25.5" xml:space="preserve">
<g id="Border">
	<path fill="#D0CECE" d="M21.9,25.4H7.3L0,12.7L7.3,0.1h14.6l7.3,12.6L21.9,25.4z M7.9,24.4h13.4L28,12.7L21.3,1.1H7.9L1.2,12.7
		L7.9,24.4z"/>
</g>
<g id="Icon">
	<path fill="none" stroke="#848484" stroke-miterlimit="10" d="M15.9,9.5c2.5,0.6,4.5,2.9,5,5.8"/>
	<path fill="none" stroke="#848484" stroke-miterlimit="10" d="M8.2,15.4c0.5-2.9,2.5-5.3,5.1-5.9"/>
	<line fill="none" stroke="#848484" stroke-miterlimit="10" x1="15.9" y1="8.7" x2="19.4" y2="8.7"/>
	<line fill="none" stroke="#848484" stroke-miterlimit="10" x1="9.7" y1="8.7" x2="13.2" y2="8.7"/>
	<rect x="7" y="15.4" fill="none" stroke="#000000" stroke-miterlimit="10" width="2.7" height="2.7"/>
	<rect x="13.2" y="7.3" fill="none" stroke="#000000" stroke-miterlimit="10" width="2.7" height="2.7"/>
	<rect x="19.4" y="15.4" fill="none" stroke="#000000" stroke-miterlimit="10" width="2.7" height="2.7"/>
	<circle fill="none" stroke="#000000" stroke-miterlimit="10" cx="8.4" cy="8.7" r="1.4"/>
	<circle fill="none" stroke="#000000" stroke-miterlimit="10" cx="20.8" cy="8.7" r="1.4"/>
</g>
</svg>
