<?xml version="1.0" encoding="utf-8"?>
<!-- Generator: Adobe Illustrator 23.1.1, SVG Export Plug-In . SVG Version: 6.00 Build 0)  -->
<svg version="1.0" xmlns="http://www.w3.org/2000/svg" xmlns:xlink="http://www.w3.org/1999/xlink" x="0px" y="0px" width="24px"
	 height="24px" viewBox="0 0 24 24" enable-background="new 0 0 24 24" xml:space="preserve">
<g id="Border" display="none">
	<path display="inline" fill="#D3D3D3" d="M19.3,24.6H4.7L-2.6,12L4.7-0.6h14.6L26.6,12L19.3,24.6z M5.3,23.6h13.4L25.4,12L18.7,0.4
		H5.3L-1.4,12L5.3,23.6z"/>
</g>
<g id="Icon">
	<line fill="none" stroke="#898989" stroke-miterlimit="10" x1="12.1" y1="11.8" x2="12.1" y2="18.8"/>
	<line fill="none" stroke="#898989" stroke-miterlimit="10" x1="17.8" y1="9" x2="12.1" y2="11.8"/>
	<line fill="none" stroke="#898989" stroke-miterlimit="10" x1="12.1" y1="11.8" x2="6.4" y2="9"/>
	<path fill="none" stroke="#000000" stroke-miterlimit="10" d="M12.1,11.8"/>
	<line fill="none" stroke="#3B4A51" stroke-miterlimit="10" x1="6.3" y1="15.9" x2="3" y2="17.5"/>
	<line fill="none" stroke="#3B4A51" stroke-miterlimit="10" x1="17.8" y1="15.9" x2="21.1" y2="17.6"/>
	<polygon fill="none" stroke="#3B4A51" stroke-miterlimit="10" points="12.2,6.2 17.8,9 17.8,15.9 17.8,16 12.1,18.8 6.4,16 
		6.4,15.9 6.4,9 12,6.2 	"/>
	<line fill="none" stroke="#3B4A51" stroke-miterlimit="10" x1="12.1" y1="6.3" x2="12.1" y2="2.4"/>
</g>
</svg>
