<?xml version="1.0" encoding="utf-8"?>
<!-- Generator: Adobe Illustrator 23.1.1, SVG Export Plug-In . SVG Version: 6.00 Build 0)  -->
<svg version="1.1" xmlns="http://www.w3.org/2000/svg" xmlns:xlink="http://www.w3.org/1999/xlink" x="0px" y="0px" width="24px"
	 height="24px" viewBox="0 0 24 24" style="enable-background:new 0 0 24 24;" xml:space="preserve">
<style type="text/css">
	.st0{fill:none;stroke:#3B4A51;stroke-miterlimit:10;}
	.st1{fill:#D3D3D3;}
	.st2{fill:none;stroke:#000000;stroke-miterlimit:10;}
	.st3{fill:#FFFFFF;stroke:#000000;stroke-miterlimit:10;}
	.st4{fill:#FFFFFF;stroke:#3B4A51;stroke-miterlimit:10;}
	.st5{fill:none;stroke:#898989;stroke-miterlimit:10;}
</style>
<g id="Layer_1">
</g>
<g id="Layer_2">
	<polygon class="st0" points="23.3,11.6 12.3,3.5 1.3,11.6 7.4,16.1 17.3,16.1 	"/>
	<ellipse class="st1" cx="12.3" cy="16.1" rx="4.9" ry="3"/>
	<path class="st2" d="M9.7,17.9"/>
	<path class="st3" d="M1.3,11.6"/>
	<path class="st4" d="M2.7,12.5c0,0-1.1,1.3-1.1,2.7v3.1"/>
	<path class="st0" d="M7.5,15.9c0,1.8,2.2,3.3,4.9,3.3s4.9-1.5,4.9-3.3"/>
	<path class="st5" d="M7.5,16.5c0-1.8,2.2-3.3,4.9-3.3s4.9,1.5,4.9,3.3v-3.6c0-1.8-2.2-3.3-4.9-3.3s-4.9,1.5-4.9,3.3V16.5z"/>
</g>
</svg>
