<?xml version="1.0" encoding="utf-8"?>
<!-- Generator: Adobe Illustrator 23.1.1, SVG Export Plug-In . SVG Version: 6.00 Build 0)  -->
<svg version="1.0" xmlns="http://www.w3.org/2000/svg" xmlns:xlink="http://www.w3.org/1999/xlink" x="0px" y="0px" width="29.2px"
	 height="25.5px" viewBox="0 0 29.2 25.5" enable-background="new 0 0 29.2 25.5" xml:space="preserve">
<g id="Border">
	<path fill="#D0CECE" d="M21.9,25.4H7.3L0,12.7L7.3,0.1h14.6l7.3,12.6L21.9,25.4z M7.9,24.4h13.4L28,12.7L21.3,1.1H7.9L1.2,12.7
		L7.9,24.4z"/>
</g>
<g id="Icon">
	<path fill="#848484" d="M10.2,5.6C9,5.6,8,6.6,8,7.8c0,0.8,0.4,1.5,1.1,1.9v7.2C8.5,17.2,8,17.9,8,18.7c0,1.2,1,2.2,2.2,2.2
		s2.2-1,2.2-2.2c0-0.8-0.4-1.5-1.1-1.9V9.7c0.7-0.4,1.1-1.1,1.1-1.9C12.4,6.6,11.4,5.6,10.2,5.6z M10.2,19.8c-0.6,0-1.1-0.5-1.1-1.1
		c0-0.6,0.5-1.1,1.1-1.1c0.6,0,1.1,0.5,1.1,1.1C11.3,19.3,10.8,19.8,10.2,19.8z M10.2,8.9c-0.6,0-1.1-0.5-1.1-1.1s0.5-1.1,1.1-1.1
		c0.6,0,1.1,0.5,1.1,1.1S10.8,8.9,10.2,8.9z"/>
	<path d="M20,16.9V10c0-3.3-3.3-3.3-3.3-3.3h-1.1V4.5l-3.3,3.3l3.3,3.3V8.9c0,0,0.5,0,1.1,0c1,0,1.1,1.1,1.1,1.1v6.9
		c-0.7,0.4-1.1,1.1-1.1,1.9c0,1.2,1,2.2,2.2,2.2s2.2-1,2.2-2.2C21.1,17.9,20.7,17.2,20,16.9z M18.9,19.8c-0.6,0-1.1-0.5-1.1-1.1
		c0-0.6,0.5-1.1,1.1-1.1c0.6,0,1.1,0.5,1.1,1.1C20,19.3,19.5,19.8,18.9,19.8z"/>
</g>
</svg>
