<?xml version="1.0" encoding="utf-8"?>
<!-- Generator: Adobe Illustrator 23.1.1, SVG Export Plug-In . SVG Version: 6.00 Build 0)  -->
<svg version="1.0" xmlns="http://www.w3.org/2000/svg" xmlns:xlink="http://www.w3.org/1999/xlink" x="0px" y="0px" width="24px"
	 height="24px" viewBox="0 0 24 24" enable-background="new 0 0 24 24" xml:space="preserve">
<g id="Border" display="none">
	<path display="inline" fill="#D3D3D3" d="M19.3,24.6H4.7L-2.6,12L4.7-0.6h14.6L26.6,12L19.3,24.6z M5.3,23.6h13.4L25.4,12L18.7,0.4
		H5.3L-1.4,12L5.3,23.6z"/>
</g>
<g id="Icon">
	<line fill="none" stroke="#3B4A51" stroke-miterlimit="10" x1="9.9" y1="18.1" x2="5.4" y2="18.1"/>
	<circle fill="none" stroke="#3B4A51" stroke-miterlimit="10" cx="12" cy="18.1" r="2.2"/>
	<line fill="none" stroke="#3B4A51" stroke-miterlimit="10" x1="16.2" y1="13.9" x2="13.6" y2="16.5"/>
	<path fill="none" stroke="#3B4A51" stroke-miterlimit="10" d="M18.6,8.4c0,0-0.1,0-0.1,0c-1.8,0-3.2,1.4-3.2,3.2s1.4,3.2,3.2,3.2
		c1.8,0,3.2-1.4,3.2-3.2"/>
	<path id="path34" fill="#898989" d="M7,11.3c0,0.8-0.6,1.5-1.4,1.5s-1.4-0.7-1.4-1.5c0-0.8,0.6-1.5,1.4-1.5S7,10.4,7,11.3"/>
	<path id="path36" fill="#898989" d="M7,6.2C7,7,6.3,7.7,5.5,7.7S4.1,7,4.1,6.2c0-0.8,0.6-1.5,1.4-1.5S7,5.4,7,6.2"/>
	<path id="path38" fill="#898989" d="M12,11.3c0,0.8-0.6,1.5-1.4,1.5c-0.8,0-1.4-0.7-1.4-1.5c0-0.8,0.6-1.5,1.4-1.5
		C11.3,9.8,12,10.4,12,11.3"/>
	<path id="path40" fill="#898989" d="M12,6.2c0,0.8-0.6,1.5-1.4,1.5C9.7,7.7,9.1,7,9.1,6.2c0-0.8,0.6-1.5,1.4-1.5
		C11.3,4.7,12,5.4,12,6.2"/>
</g>
</svg>
