<?xml version="1.0" encoding="utf-8"?>
<!-- Generator: Adobe Illustrator 23.1.1, SVG Export Plug-In . SVG Version: 6.00 Build 0)  -->
<svg version="1.0" xmlns="http://www.w3.org/2000/svg" xmlns:xlink="http://www.w3.org/1999/xlink" x="0px" y="0px" width="24px"
	 height="24px" viewBox="0 0 24 24" enable-background="new 0 0 24 24" xml:space="preserve">
<g id="Border" display="none">
	<path display="inline" fill="#D3D3D3" d="M19.3,24.6H4.7L-2.6,12L4.7-0.6h14.6L26.6,12L19.3,24.6z M5.3,23.6h13.4L25.4,12L18.7,0.4
		H5.3L-1.4,12L5.3,23.6z"/>
</g>
<g id="Icon">
	<path fill="#898989" d="M7.6,4.9c-1.2,0-2.2,1-2.2,2.2c0,0.8,0.4,1.5,1.1,1.9v7.2c-0.6,0.4-1.1,1.1-1.1,1.9c0,1.2,1,2.2,2.2,2.2
		s2.2-1,2.2-2.2c0-0.8-0.4-1.5-1.1-1.9V9c0.7-0.4,1.1-1.1,1.1-1.9C9.8,5.9,8.8,4.9,7.6,4.9z M7.6,19.1c-0.6,0-1.1-0.5-1.1-1.1
		c0-0.6,0.5-1.1,1.1-1.1c0.6,0,1.1,0.5,1.1,1.1C8.7,18.6,8.2,19.1,7.6,19.1z M7.6,8.2C7,8.2,6.5,7.7,6.5,7.1S7,6,7.6,6
		c0.6,0,1.1,0.5,1.1,1.1S8.2,8.2,7.6,8.2z"/>
	<path fill="#3B4A51" d="M17.5,16.1V9.3C17.5,6,14.2,6,14.2,6h-1.1V3.8L9.8,7.1l3.3,3.3V8.2c0,0,0.5,0,1.1,0c1,0,1.1,1.1,1.1,1.1
		v6.9c-0.7,0.4-1.1,1.1-1.1,1.9c0,1.2,1,2.2,2.2,2.2s2.2-1,2.2-2.2C18.5,17.2,18.1,16.5,17.5,16.1z M16.4,19.1
		c-0.6,0-1.1-0.5-1.1-1.1c0-0.6,0.5-1.1,1.1-1.1c0.6,0,1.1,0.5,1.1,1.1C17.5,18.6,17,19.1,16.4,19.1z"/>
</g>
</svg>
