<?xml version="1.0" encoding="utf-8"?>
<!-- Generator: Adobe Illustrator 23.1.1, SVG Export Plug-In . SVG Version: 6.00 Build 0)  -->
<svg version="1.0" xmlns="http://www.w3.org/2000/svg" xmlns:xlink="http://www.w3.org/1999/xlink" x="0px" y="0px" width="29.2px"
	 height="25.5px" viewBox="0 0 29.2 25.5" enable-background="new 0 0 29.2 25.5" xml:space="preserve">
<g id="Border">
	<path fill="#D0CECE" d="M21.9,25.4H7.3L0,12.7L7.3,0.1h14.6l7.3,12.6L21.9,25.4z M7.9,24.4h13.4L28,12.7L21.3,1.1H7.9L1.2,12.7
		L7.9,24.4z"/>
</g>
<g id="Icon">
	<path fill="#848484" d="M11.2,8.8c-1.2-1.2-3.1-1.2-4.3,0s-1.2,3.1,0,4.3c0.7,0.7,2.5,1.1,3.4,2.1s1.4,2.7,2.1,3.4
		c1.2,1.2,3.1,1.2,4.3,0c1.2-1.2,1.2-3.1,0-4.3c-0.7-0.7-2.4-1-3.4-2.1S11.9,9.5,11.2,8.8z M7.9,9.8c0.7-0.7,1.7-0.7,2.4,0
		s0.7,1.7,0,2.4s-1.7,0.7-2.4,0S7.3,10.4,7.9,9.8z M15.7,17.6c-0.7,0.7-1.7,0.7-2.4,0s-0.7-1.7,0-2.4s1.7-0.7,2.4,0
		C16.4,15.9,16.4,16.9,15.7,17.6z"/>
	<path fill="#231F20" d="M22.2,13.2c1.2-1.2,1.2-3.1,0-4.3c-1.2-1.2-3.1-1.2-4.3,0c-0.7,0.7-1.1,2.5-2.1,3.4s-2.7,1.4-3.4,2.1
		c-1.2,1.2-1.2,3.1,0,4.3c1.2,1.2,3.1,1.2,4.3,0c0.7-0.7,1-2.4,2.1-3.4C19.8,14.2,21.5,13.9,22.2,13.2z M21.2,9.9
		c0.7,0.7,0.7,1.7,0,2.4c-0.7,0.7-1.7,0.7-2.4,0s-0.7-1.7,0-2.4C19.5,9.2,20.6,9.2,21.2,9.9z M13.4,17.7c-0.7-0.7-0.7-1.7,0-2.4
		s1.7-0.7,2.4,0s0.7,1.7,0,2.4S14.1,18.3,13.4,17.7z"/>
</g>
</svg>
