<?xml version="1.0" encoding="utf-8"?>
<!-- Generator: Adobe Illustrator 23.1.1, SVG Export Plug-In . SVG Version: 6.00 Build 0)  -->
<svg version="1.0" xmlns="http://www.w3.org/2000/svg" xmlns:xlink="http://www.w3.org/1999/xlink" x="0px" y="0px" width="24px"
	 height="24px" viewBox="0 0 24 24" enable-background="new 0 0 24 24" xml:space="preserve">
<g id="Border" display="none">
	<path display="inline" fill="#D3D3D3" d="M19.3,24.6H4.7L-2.6,12L4.7-0.6h14.6L26.6,12L19.3,24.6z M5.3,23.6h13.4L25.4,12L18.7,0.4
		H5.3L-1.4,12L5.3,23.6z"/>
</g>
<g id="Icon">
	<path fill="#898989" d="M8.6,8.1c-1.2-1.2-3.1-1.2-4.3,0s-1.2,3.1,0,4.3c0.7,0.7,2.5,1.1,3.4,2.1s1.4,2.7,2.1,3.4
		c1.2,1.2,3.1,1.2,4.3,0c1.2-1.2,1.2-3.1,0-4.3c-0.7-0.7-2.4-1-3.4-2.1S9.3,8.8,8.6,8.1z M5.3,9.1C6,8.4,7,8.4,7.7,9.1
		c0.7,0.7,0.7,1.7,0,2.4s-1.7,0.7-2.4,0S4.7,9.7,5.3,9.1z M13.1,16.9c-0.7,0.7-1.7,0.7-2.4,0s-0.7-1.7,0-2.4s1.7-0.7,2.4,0
		S13.8,16.2,13.1,16.9z"/>
	<path fill="#3B4A51" d="M19.7,12.4c1.2-1.2,1.2-3.1,0-4.3c-1.2-1.2-3.1-1.2-4.3,0c-0.7,0.7-1.1,2.5-2.1,3.4s-2.7,1.4-3.4,2.1
		c-1.2,1.2-1.2,3.1,0,4.3c1.2,1.2,3.1,1.2,4.3,0c0.7-0.7,1-2.4,2.1-3.4C17.2,13.5,19,13.1,19.7,12.4z M18.7,9.1
		c0.7,0.7,0.7,1.7,0,2.4c-0.7,0.7-1.7,0.7-2.4,0s-0.7-1.7,0-2.4C17,8.5,18,8.5,18.7,9.1z M10.9,16.9c-0.7-0.7-0.7-1.7,0-2.4
		s1.7-0.7,2.4,0c0.7,0.7,0.7,1.7,0,2.4C12.6,17.6,11.5,17.6,10.9,16.9z"/>
</g>
</svg>
