<?xml version="1.0" encoding="utf-8"?>
<!-- Generator: Adobe Illustrator 23.1.1, SVG Export Plug-In . SVG Version: 6.00 Build 0)  -->
<svg version="1.0" xmlns="http://www.w3.org/2000/svg" xmlns:xlink="http://www.w3.org/1999/xlink" x="0px" y="0px" width="24px"
	 height="24px" viewBox="0 0 24 24" enable-background="new 0 0 24 24" xml:space="preserve">
<g id="Border" display="none">
	<path display="inline" fill="#D3D3D3" d="M19.3,24.6H4.7L-2.6,12L4.7-0.6h14.6L26.6,12L19.3,24.6z M5.3,23.6h13.4L25.4,12L18.7,0.4
		H5.3L-1.4,12L5.3,23.6z"/>
</g>
<g id="Icon">
	<path fill="#3B4A51" d="M17.3,15.6c2.2,0,4-1.8,4-4s-1.8-4-4-4c-1.3,0-3.3,1.3-5.1,1.3S8.3,7.5,7,7.5c-2.2,0-4,1.8-4,4s1.8,4,4,4
		c1.3,0,3.2-1.3,5.1-1.3S16,15.6,17.3,15.6z M19.2,11.5c0,1.1-0.9,2-2,2s-2-0.9-2-2s0.9-2,2-2S19.2,10.5,19.2,11.5z M5.1,11.5
		c0-1.1,0.9-2,2-2s2,0.9,2,2s-0.9,2-2,2S5.1,12.6,5.1,11.5z"/>
</g>
</svg>
