<?xml version="1.0" encoding="utf-8"?>
<!-- Generator: Adobe Illustrator 23.1.1, SVG Export Plug-In . SVG Version: 6.00 Build 0)  -->
<svg version="1.0" xmlns="http://www.w3.org/2000/svg" xmlns:xlink="http://www.w3.org/1999/xlink" x="0px" y="0px" width="24px"
	 height="24px" viewBox="0 0 24 24" enable-background="new 0 0 24 24" xml:space="preserve">
<g id="Border" display="none">
	<path display="inline" fill="#D3D3D3" d="M19.3,24.6H4.7L-2.6,12L4.7-0.6h14.6L26.6,12L19.3,24.6z M5.3,23.6h13.4L25.4,12L18.7,0.4
		H5.3L-1.4,12L5.3,23.6z"/>
</g>
<g id="Icon">
	<path fill="#3B4A51" d="M6,6V18H18V6H6z M8.5,17.6H6.8v-1.8h1.8V17.6z M8.5,14.5H6.8v-1.8h1.8V14.5z M8.5,11.5H6.8V9.7h1.8V11.5z
		 M8.5,8.5H6.8V6.7h1.8V8.5z M14.5,12H9.5v-1h4.9V12z M17.3,17.6h-1.8v-1.8h1.8V17.6z M17.3,14.5h-1.8v-1.8h1.8V14.5z M17.3,11.5
		h-1.8V9.7h1.8V11.5z M17.3,8.5h-1.8V6.7h1.8V8.5z"/>
</g>
</svg>
