<?xml version="1.0" encoding="utf-8"?>
<!-- Generator: Adobe Illustrator 23.1.1, SVG Export Plug-In . SVG Version: 6.00 Build 0)  -->
<svg version="1.0" xmlns="http://www.w3.org/2000/svg" xmlns:xlink="http://www.w3.org/1999/xlink" x="0px" y="0px" width="29.2px"
	 height="25.5px" viewBox="0 0 29.2 25.5" enable-background="new 0 0 29.2 25.5" xml:space="preserve">
<g id="Border">
	<path fill="#D0CECE" d="M21.9,25.4H7.3L0,12.7L7.3,0.1h14.6l7.3,12.6L21.9,25.4z M7.9,24.4h13.4L28,12.7L21.3,1.1H7.9L1.2,12.7
		L7.9,24.4z"/>
</g>
<g id="Icon">
	<path fill="#3D3D3D" d="M8.6,6.7v12.1h12.1V6.7H8.6z M11.1,18.3H9.3v-1.8h1.8V18.3z M11.1,15.3H9.3v-1.8h1.8V15.3z M11.1,12.2H9.3
		v-1.8h1.8V12.2z M11.1,9.2H9.3V7.4h1.8V9.2z M17,12.7h-4.9v-1H17V12.7z M19.9,18.3h-1.8v-1.8h1.8V18.3z M19.9,15.3h-1.8v-1.8h1.8
		V15.3z M19.9,12.2h-1.8v-1.8h1.8V12.2z M19.9,9.2h-1.8V7.4h1.8V9.2z"/>
</g>
</svg>
