<?xml version="1.0" encoding="utf-8"?>
<!-- Generator: Adobe Illustrator 23.1.1, SVG Export Plug-In . SVG Version: 6.00 Build 0)  -->
<svg version="1.0" id="Layer_1" xmlns="http://www.w3.org/2000/svg" xmlns:xlink="http://www.w3.org/1999/xlink" x="0px" y="0px"
	 width="24px" height="24px" viewBox="0 0 24 24" enable-background="new 0 0 24 24" xml:space="preserve">
<path fill="none" stroke="#3B4A51" stroke-miterlimit="10" d="M16.6,14.9c1.9,0,3.5-1.6,3.5-3.5s-1.6-3.5-3.5-3.5
	c-1.2,0-2.9,1.1-4.5,1.1S8.8,7.9,7.6,7.9c-1.9,0-3.5,1.6-3.5,3.5s1.6,3.5,3.5,3.5c1.2,0,2.8-1.1,4.5-1.1S15.5,14.9,16.6,14.9z
	 M18.3,11.4c0,1-0.8,1.7-1.7,1.7s-1.7-0.8-1.7-1.7s0.8-1.7,1.7-1.7S18.3,10.4,18.3,11.4z M5.9,11.4c0-1,0.8-1.7,1.7-1.7
	s1.7,0.8,1.7,1.7s-0.8,1.7-1.7,1.7S5.9,12.4,5.9,11.4z"/>
</svg>
