<?xml version="1.0" encoding="utf-8"?>
<!-- Generator: Adobe Illustrator 23.1.1, SVG Export Plug-In . SVG Version: 6.00 Build 0)  -->
<svg version="1.0" xmlns="http://www.w3.org/2000/svg" xmlns:xlink="http://www.w3.org/1999/xlink" x="0px" y="0px"
	 viewBox="0 0 24 24" enable-background="new 0 0 24 24" xml:space="preserve">
<g id="Border" display="none">
	<path display="inline" fill="#D3D3D3" d="M19.3,24.6H4.7L-2.6,12L4.7-0.6h14.6L26.6,12L19.3,24.6z M5.3,23.6h13.4L25.4,12L18.7,0.4
		H5.3L-1.4,12L5.3,23.6z"/>
</g>
<g id="Icon">
	<path fill="#3B4A51" d="M6.9,11.8c0-2.7,2.5-5,5.2-5c1.3-0.1,2.5,0.5,3.5,1.3c-0.4,0.6-0.9,1-1.3,1.4c-1.2-0.8-2.9-1-4.1-0.1
		c-1.7,1.2-1.8,4-0.1,5.2c1.6,1.4,4.6,0.7,5-1.5c-1,0-2,0-3,0c0-0.6,0-1.2,0-1.8c1.7,0,3.3,0,5,0c0.1,1.4-0.1,2.9-0.9,4
		c-1.3,1.8-3.9,2.4-5.9,1.6C8.2,16.2,6.7,14,6.9,11.8z"/>
</g>
</svg>
