<?xml version="1.0" encoding="utf-8"?>
<!-- Generator: Adobe Illustrator 23.1.1, SVG Export Plug-In . SVG Version: 6.00 Build 0)  -->
<svg version="1.0" xmlns="http://www.w3.org/2000/svg" xmlns:xlink="http://www.w3.org/1999/xlink" x="0px" y="0px" width="24px"
	 height="24px" viewBox="0 0 24 24" enable-background="new 0 0 24 24" xml:space="preserve">
<g id="Border" display="none">
	<path display="inline" fill="#D3D3D3" d="M19.3,24.6H4.7L-2.6,12L4.7-0.6h14.6L26.6,12L19.3,24.6z M5.3,23.6h13.4L25.4,12L18.7,0.4
		H5.3L-1.4,12L5.3,23.6z"/>
</g>
<g id="Icon">
	<g>
		<path fill="#3B4A51" d="M7.5,6.3c0.6,0,1.1,0.3,1.2,0.8C9,7.8,8.6,8.6,7.8,8.8C7.2,8.8,6.6,8.6,6.4,8.1C6,7.3,6.4,6.3,7.5,6.3
			L7.5,6.3z"/>
		<rect x="6.3" y="9.8" fill="#3B4A51" width="2.4" height="7.9"/>
		<path fill="#3B4A51" d="M17.6,11.6c-0.2-0.8-0.7-1.3-1.4-1.7c-0.5-0.2-1-0.3-1.5-0.3c-0.9,0.1-1.6,0.5-2.1,1.2l-0.1,0.1l0,0
			c0-0.4-0.1-0.7-0.1-1.1c-0.7,0-1.4,0-2.1,0v7.9h2.5v-3.5l0,0c0-0.4,0-0.9,0-1.3c0-0.8,0.6-1.3,1.4-1.3c0.5,0,0.8,0.3,1,0.8
			s0.2,1.1,0.2,1.1v4.2h2.4c0,0,0-4.6,0-4.7C17.8,12.4,17.7,12.1,17.6,11.6z"/>
	</g>
</g>
</svg>
