<?xml version="1.0" encoding="utf-8"?>
<!-- Generator: Adobe Illustrator 23.1.1, SVG Export Plug-In . SVG Version: 6.00 Build 0)  -->
<svg version="1.0" xmlns="http://www.w3.org/2000/svg" xmlns:xlink="http://www.w3.org/1999/xlink" x="0px" y="0px" width="24px"
	 height="24px" viewBox="0 0 24 24" enable-background="new 0 0 24 24" xml:space="preserve">
<g id="Border" display="none">
	<path display="inline" fill="#D3D3D3" d="M19.3,24.6H4.7L-2.6,12L4.7-0.6h14.6L26.6,12L19.3,24.6z M5.3,23.6h13.4L25.4,12L18.7,0.4
		H5.3L-1.4,12L5.3,23.6z"/>
</g>
<g id="Icon">
	<path fill="#3B4A51" d="M13.9,13.9c0.6,0.5,0.7,1,0.7,1.6c0,0.7,0,1.3,0,2c0,0.4,0.1,0.7,0.5,0.9c0.1,0.1,0.2,0.2,0.3,0.3
		c-0.2,0-0.4,0.1-0.6,0.1c-0.7-0.1-1-0.2-1-1.1c0-0.6,0-1.2,0-1.8c0-0.2-0.2-0.5-0.4-0.7c-0.1,0.1-0.1,0.2-0.1,0.3
		c0,0.8,0,1.6,0,2.3c0,0.3,0.1,0.6,0.3,0.8c0.1,0.1,0.1,0.3,0.2,0.4c0,0.2-0.1,0.2-0.1,0.2c-0.5,0-0.9-0.5-1-1c0-0.4,0-0.8,0-1.1
		c0-0.6,0-1.1,0-1.7c0-0.1,0-0.2,0-0.3c-0.2,0-0.4,0.2-0.4,0.3c0,0.8,0,1.7,0,2.5c0,0.4-0.1,0.7-0.4,1c-0.2,0.1-0.4,0.2-0.6,0.3
		c-0.1,0-0.2,0-0.3-0.1c0-0.1,0-0.1,0-0.1c0.5-0.4,0.5-1,0.6-1.5c0-0.7,0-1.4,0-2.2c-0.2,0.1-0.5,0.3-0.6,0.4c0,0.2,0,0.4,0,0.7
		c0,0.5,0,1,0,1.5c0,0.4,0,0.6-0.4,0.8c-0.4,0.2-0.7,0.3-1.2,0.1c0.2-0.2,0.3-0.3,0.4-0.4c0.3-0.2,0.4-0.4,0.4-0.7
		c0-0.4,0-0.9,0-1.3c-0.3,0-0.5,0-0.7,0c-1,0-1.7-0.3-2.1-1.3c-0.2-0.4-0.5-0.7-0.8-1c-0.1-0.1-0.2-0.2-0.3-0.3
		c0.1-0.1,0.2-0.1,0.3-0.1c0.4,0,0.8,0.1,1.1,0.5c0,0,0.1,0.2,0.3,0.4c0.6,0.7,1.3,0.8,2.1,0.4c0.2-0.4,0.4-0.7,0.6-1
		c-0.6-0.2-1.1-0.3-1.7-0.5c-1.3-0.4-2-1.3-2.3-2.5c-0.1-0.8-0.2-1.5,0-2.3C6.7,8.5,6.9,8.2,7,8c0.1-0.3,0.3-0.5,0.5-0.8
		C7.3,6.5,7.2,5.7,7.6,4.9c1-0.1,1.7,0.5,2.4,0.9c1.4-0.4,2.8-0.3,4.2-0.1c0.8-0.4,1.5-0.9,2.4-0.9c0.2,0.4,0.3,0.7,0.3,1.1
		s0,0.7-0.1,1.1C16.9,7.1,17,7.2,17,7.3c0.4,0.6,0.7,1.2,0.7,1.9c0.1,0.8,0,1.5-0.2,2.3c-0.2,0.9-0.8,1.5-1.6,1.8
		C15.4,13.7,14.7,13.8,13.9,13.9z"/>
</g>
</svg>
