<?xml version="1.0" encoding="utf-8"?>
<!-- Generator: Adobe Illustrator 23.1.1, SVG Export Plug-In . SVG Version: 6.00 Build 0)  -->
<svg version="1.0" xmlns="http://www.w3.org/2000/svg" xmlns:xlink="http://www.w3.org/1999/xlink" x="0px" y="0px" width="29.2px"
	 height="25.5px" viewBox="0 0 29.2 25.5" enable-background="new 0 0 29.2 25.5" xml:space="preserve">
<g id="Border">
	<path fill="#D0CECE" d="M21.9,25.4H7.3L0,12.7L7.3,0.1h14.6l7.3,12.6L21.9,25.4z M7.9,24.4h13.4L28,12.7L21.3,1.1H7.9L1.2,12.7
		L7.9,24.4z"/>
</g>
<g id="Icon">
	<g>
		<rect x="10.2" y="16" fill="#848484" width="2.4" height="3.5"/>
		<polygon fill="#848484" points="11.1,5.9 18.9,5.9 18.9,9.7 10.2,9.7 		"/>
		<rect x="12.6" y="9.7" fill="#848484" width="3.8" height="6.4"/>
		<polygon fill="#231F20" points="12.6,9.7 12.8,5.9 16.4,9.7 		"/>
		<polygon fill="#231F20" points="12.6,16 12.6,19.6 16.4,16 		"/>
		<polygon fill="#515151" points="16.4,16 12.6,19.6 18.9,19.6 18.9,16 		"/>
	</g>
</g>
</svg>
