<?xml version="1.0" encoding="utf-8"?>
<!-- Generator: Adobe Illustrator 23.1.1, SVG Export Plug-In . SVG Version: 6.00 Build 0)  -->
<svg version="1.0" id="Layer_1" xmlns="http://www.w3.org/2000/svg" xmlns:xlink="http://www.w3.org/1999/xlink" x="0px" y="0px"
	 width="29.2px" height="25.5px" viewBox="0 0 29.2 25.5" enable-background="new 0 0 29.2 25.5" xml:space="preserve">
<g id="Border">
	<path fill="#D0CECE" d="M21.9,25.4H7.3L0,12.7L7.3,0.1h14.6l7.3,12.6L21.9,25.4z M7.9,24.4h13.4L28,12.7L21.3,1.1H7.9L1.2,12.7
		L7.9,24.4z"/>
</g>
<g id="Icon">
	<path fill="#848484" d="M19.4,17.3c-0.3,0-0.8,0-1.1-0.1c-1-0.2-1.9-0.8-2.6-1.5c-0.4-0.4-0.8-0.9-1.1-1.4
		c-0.3,0.6-0.8,1.1-1.3,1.6c-0.6,0.5-1.2,1-2,1.2c-0.8,0.2-1.5,0.2-2.3,0.1c-0.8-0.1-1.5-0.4-2.1-0.9c-0.7-0.4-1.2-1.1-1.4-1.9
		C5.1,13.8,5,13,5.1,12.2c0.1-0.7,0.4-1.4,0.8-2c0.4-0.7,1-1.1,1.7-1.4C8.2,8.5,9,8.3,9.6,8.4l0,0c0.4,0,0.8,0,1.2,0.1
		c1,0.2,1.9,0.8,2.8,1.7c0.3,0.3,0.7,0.8,1,1.2c0.6-0.9,1.2-1.6,2.2-2.2c0.7-0.4,1.4-0.7,2.2-0.8c0.8,0,1.5,0.1,2.3,0.4
		c1.5,0.7,2.5,1.9,2.8,3.4c0.1,0.8,0,1.5-0.3,2.3c-0.3,0.7-0.8,1.3-1.3,1.8C21.5,16.9,20.5,17.3,19.4,17.3z M15.5,12.7
		c0.3,0.7,0.8,1.3,1.3,1.8c0.5,0.6,1.2,1,2,1.1l0,0l0,0c0.9,0.2,1.9,0,2.6-0.7c0.8-0.8,1.2-1.8,1.1-2.6c-0.1-1-0.9-1.8-1.9-2.2
		c-1-0.4-2.2-0.3-3,0.2l0,0C16.7,10.8,16.1,11.7,15.5,12.7z M9.4,9.8c-0.9,0-1.6,0.4-2.3,1.3c-0.3,0.4-0.4,0.9-0.6,1.3
		c-0.1,0.4,0,1,0.2,1.3l0,0c0.2,0.4,0.6,0.9,1,1.2c0.4,0.3,0.9,0.6,1.4,0.7c1.1,0.2,2.2-0.1,2.9-0.9l0,0l0,0
		c0.6-0.6,1.1-1.3,1.5-2.1c-0.8-1.2-1.8-2.4-3.1-2.8c-0.2,0-0.4-0.1-0.8-0.1l0,0H9.6C9.5,9.8,9.5,9.8,9.4,9.8z"/>
	<rect x="8.2" y="12.2" fill="#231F20" width="3.2" height="0.7"/>
	<polygon fill="#231F20" points="19.7,13.9 18.8,13.9 18.8,13 17.9,13 17.9,12.1 18.8,12.1 18.8,11.3 19.7,11.3 19.7,12.1 
		20.5,12.1 20.5,13 19.7,13 	"/>
</g>
</svg>
