<?xml version="1.0" encoding="utf-8"?>
<!-- Generator: Adobe Illustrator 23.1.1, SVG Export Plug-In . SVG Version: 6.00 Build 0)  -->
<svg version="1.0" xmlns="http://www.w3.org/2000/svg" xmlns:xlink="http://www.w3.org/1999/xlink" x="0px" y="0px" width="29.2px"
	 height="25.5px" viewBox="0 0 29.2 25.5" enable-background="new 0 0 29.2 25.5" xml:space="preserve">
<g id="Border">
	<g>
		<g>
			<path fill="#D0CECE" d="M21.3,1.1L28,12.7l-6.7,11.6H7.9L1.2,12.7L7.9,1.1H21.3 M21.9,0.1H7.3L0,12.7l7.3,12.6h14.6l7.3-12.6
				L21.9,0.1L21.9,0.1z"/>
		</g>
	</g>
</g>
<g id="Icon">
	<path fill="none" stroke="#F20A7E" stroke-miterlimit="10" d="M25,15.3"/>
	<polygon fill="#D7D7D7" points="21.3,5.1 21.3,16.4 17.8,14.1 17.8,7.8 	"/>
	<polygon fill="#D7D7D7" points="7.2,7.2 8.6,6.5 21.3,16.4 17.8,17.8 	"/>
	<polygon fill="#949494" points="7.3,13.2 9.6,13.2 10.3,13.7 21.3,5.1 17.8,3.7 8.6,12.8 8.6,8.7 7.2,7.2 7.2,13.2 	"/>
	<g>
		<path d="M10.2,14.7c-0.2-0.7-0.6-1.1-1.3-1.1c-1,0-1.5,0.8-1.5,2.1c0,1.3,0.6,2.1,1.6,2.1c0.4,0,0.8-0.2,1-0.5
			c0.1-0.2,0.2-0.4,0.2-0.7l1.7,0.2c-0.2,0.7-0.3,1.1-0.7,1.5c-0.5,0.6-1.3,0.9-2.2,0.9c-1,0-1.8-0.3-2.4-0.9
			c-0.6-0.6-0.9-1.5-0.9-2.6c0-1.1,0.3-2,1-2.6C7.2,12.5,8,12.2,9,12.2c1,0,1.8,0.4,2.4,1c0.3,0.3,0.4,0.6,0.5,1.1L10.2,14.7z"/>
		<path d="M15.7,19.1h-1.3v-1.8h-1.8v-1.3h1.8v-1.8h1.3v1.8h1.8v1.3h-1.8V19.1z"/>
		<path d="M21.4,19.1H20v-1.8h-1.8v-1.3H20v-1.8h1.3v1.8h1.8v1.3h-1.8V19.1z"/>
	</g>
</g>
</svg>
