<?xml version="1.0" encoding="utf-8"?>
<!-- Generator: Adobe Illustrator 23.1.1, SVG Export Plug-In . SVG Version: 6.00 Build 0)  -->
<svg version="1.0" xmlns="http://www.w3.org/2000/svg" xmlns:xlink="http://www.w3.org/1999/xlink" x="0px" y="0px" width="29.2px"
	 height="25.5px" viewBox="0 0 29.2 25.5" enable-background="new 0 0 29.2 25.5" xml:space="preserve">
<g id="Border">
	<path fill="#D0CECE" d="M21.9,25.4H7.3L0,12.7L7.3,0.1h14.6l7.3,12.6L21.9,25.4z M7.9,24.4h13.4L28,12.7L21.3,1.1H7.9L1.2,12.7
		L7.9,24.4z"/>
</g>
<g id="Icon">
	<polygon fill="#848484" points="14.3,8.7 13.3,9.7 12,9.6 11.1,9.9 10.2,11.2 10,12.2 9.1,13 9,14 9.3,15.1 9.7,15.9 10,17.2 
		10.9,18.2 12.4,18.9 13.8,20 15.1,20.1 16,19.7 17,18.8 18.5,18 19.2,17.1 19.5,15.8 20,14.7 20.2,13.4 19.6,12.5 19.1,11.9 
		18.9,10.7 18.1,9.8 15.9,9.4 	"/>
	<path d="M20.2,12.8c-0.1-0.3-0.3-0.5-0.6-0.7c-0.1-0.1-0.1-0.1-0.2-0.2c0,0,0-0.1-0.1-0.1c0-0.1-0.1-0.1-0.1-0.2
		c0-0.4-0.1-0.7-0.2-1c-0.2-0.4-0.4-0.7-0.8-0.9c0,0,0,0-0.1,0c0,0,0,0-0.1,0c0,0,0.1,0,0.1,0c0.1-0.1,0.3-0.1,0.3-0.3c0,0,0,0,0,0
		c0.1-0.1,0.2-0.1,0.3-0.2c0.1-0.1,0.2-0.2,0.2-0.3c0,0,0,0,0,0c0.1-0.1,0.2-0.1,0.2-0.2c0.1-0.1,0.1-0.2,0.2-0.4c0,0,0,0,0,0
		c0,0,0.1-0.1,0.1-0.1c0.1-0.1,0.1-0.2,0.1-0.4c0,0,0,0,0-0.1C19.9,7.5,20,7.4,20,7.3c0-0.1,0-0.2,0-0.2c0,0,0,0,0-0.1
		c0-0.1,0.1-0.2,0.1-0.3c0-0.1,0-0.2-0.1-0.3c0,0,0,0,0-0.1C20.1,6.2,20.1,6,20,5.8c-0.1-0.2-0.3-0.2-0.5-0.2c0,0,0,0-0.1,0
		c-0.1-0.1-0.2-0.2-0.4-0.2c-0.1,0-0.2,0-0.3,0c0,0,0,0,0,0c-0.1-0.1-0.3-0.1-0.5-0.1c0,0,0,0-0.1,0c-0.1-0.1-0.3-0.1-0.4-0.1
		c0,0,0,0,0,0c-0.1,0-0.1,0-0.2,0c-0.1,0-0.1,0-0.2-0.1c0,0,0,0,0,0c-0.1,0-0.1,0-0.2,0c-0.1,0-0.2,0.1-0.3,0.1c0,0,0,0,0,0
		c-0.2-0.1-0.3,0-0.5,0.1c0,0-0.1,0-0.1,0c-0.1,0-0.3,0-0.4,0.1c-0.1,0.1-0.1,0.1-0.2,0.2c0,0,0,0,0,0c-0.1,0-0.3,0-0.4,0.1
		C15,6,14.8,6.3,14.7,6.7c0,0,0,0,0,0c0-0.1,0-0.1-0.1-0.2C14.4,6.2,14.2,6,14,5.7c-0.1-0.1-0.2-0.1-0.4-0.1c0,0,0,0,0,0
		c-0.1-0.1-0.2-0.1-0.2-0.2c-0.1-0.1-0.2-0.1-0.4-0.1c0,0,0,0-0.1,0c-0.1-0.1-0.2-0.1-0.3-0.1c-0.1,0-0.1,0-0.2,0c0,0,0,0-0.1,0
		c-0.1,0-0.2-0.1-0.3-0.1c-0.1,0-0.1,0-0.2,0c-0.1,0-0.1,0.1-0.2,0.1c0,0,0,0,0,0c-0.1,0-0.2,0-0.3,0c-0.1,0-0.2,0-0.3,0.1
		c0,0,0,0-0.1,0c-0.2,0-0.3,0-0.4,0.1c0,0-0.1,0-0.1,0c-0.1,0-0.2,0-0.4,0c-0.1,0-0.2,0.1-0.3,0.2c0,0,0,0-0.1,0
		c-0.2,0-0.4,0.1-0.5,0.3C9.2,6,9.2,6.2,9.3,6.3c0,0,0,0,0,0C9.1,6.6,9.2,6.8,9.3,7c0,0,0,0.1,0,0.1c0,0.2,0,0.3,0.1,0.4
		c0.1,0.1,0.1,0.1,0.1,0.2c0,0.1,0.1,0.3,0.2,0.4c0.1,0.1,0.1,0.1,0.1,0.2c0,0.1,0.1,0.2,0.2,0.3c0.1,0.1,0.1,0.1,0.2,0.2
		c0,0,0,0,0,0c0,0.2,0.1,0.3,0.3,0.4c0.1,0,0.1,0.1,0.2,0.1c0,0,0,0,0,0c0.1,0.1,0.2,0.2,0.3,0.3c0,0,0,0,0,0c0,0,0,0,0,0
		c-0.5,0.3-0.9,0.8-1,1.4c-0.1,0.3-0.1,0.5-0.1,0.8c0,0,0,0.1,0,0.1c0,0.1-0.1,0.2-0.2,0.2c-0.3,0.3-0.6,0.6-0.7,1
		c-0.1,0.2-0.2,0.5-0.2,0.8c0,0,0,0,0,0c0,0.1,0,0.2,0,0.3c0,0.1,0,0.1,0,0.2c0,0.3,0.1,0.6,0.3,0.8c0.1,0.1,0.2,0.2,0.2,0.3
		c0,0,0,0,0,0.1c0.1,0.3,0.2,0.6,0.3,0.9c0,0.1,0,0.2,0.1,0.2c0.1,0.4,0.2,0.7,0.4,1c0.2,0.3,0.5,0.6,0.8,0.8
		c0.1,0.1,0.2,0.1,0.3,0.1c0,0,0.1,0,0.1,0.1c0.4,0.3,0.9,0.6,1.4,0.8c0,0,0,0,0.1,0c0.3,0.4,0.7,0.6,1.2,0.7
		c0.3,0.1,0.6,0.1,0.8,0.1c0.3,0,0.5-0.1,0.8-0.2c0.3-0.1,0.6-0.3,0.8-0.5c0.1-0.1,0.2-0.2,0.2-0.2c0,0,0,0,0,0
		c0.4-0.2,0.9-0.4,1.2-0.7c0,0,0,0,0.1,0c0.4-0.1,0.7-0.3,1-0.6c0.3-0.3,0.5-0.6,0.7-1c0.1-0.3,0.2-0.5,0.2-0.8c0-0.1,0-0.1,0-0.2
		c0.1-0.2,0.1-0.4,0.2-0.6c0,0,0-0.1,0-0.1c0.1-0.2,0.3-0.4,0.4-0.6c0.1-0.3,0.2-0.6,0.2-0.9C20.5,13.5,20.4,13.1,20.2,12.8z
		 M18.5,10.7c0.1,0.2,0.2,0.4,0.2,0.6c0,0.1,0,0.2,0,0.4c0,0,0,0,0,0c0,0,0,0.1,0,0.1c0,0,0,0.1-0.1,0.1c-0.1,0-0.1,0-0.2-0.1
		c0,0-0.1,0-0.1,0c-0.1,0-0.1-0.1-0.2-0.1c-0.1-0.1-0.2-0.1-0.3-0.2c-0.1-0.1-0.1-0.1-0.2-0.2c-0.1-0.1-0.2-0.1-0.2-0.2
		c-0.2-0.2-0.4-0.3-0.5-0.5c-0.1-0.1-0.3-0.3-0.4-0.4c-0.1-0.1-0.1-0.1-0.2-0.2c0,0,0-0.1-0.1-0.1c0,0,0-0.1,0-0.1
		c0.2,0,0.3-0.1,0.5-0.1c0.3,0,0.6,0.1,0.9,0.2c0.1,0.1,0.3,0.2,0.4,0.3C18.3,10.4,18.4,10.6,18.5,10.7z M15,7.3
		c0.1-0.4,0.3-0.7,0.5-1c0,0,0.1-0.1,0.1-0.1c0,0.1,0,0.2,0.1,0.2C15.9,6.1,16,6,16.2,5.8c0,0.1,0,0.1,0,0.2c0,0,0,0.1,0.1,0.1
		c0,0,0,0,0.1,0c0.1-0.1,0.2-0.2,0.3-0.3c0,0,0.1-0.1,0.1-0.1c-0.1,0.1,0,0.2,0,0.2c0,0,0,0,0.1,0c0.1-0.1,0.2-0.2,0.3-0.2
		c0.1,0,0.1-0.1,0.2-0.1c0,0,0,0,0,0c0,0-0.1,0.1-0.1,0.1c0,0,0,0.1,0,0.1c0,0,0,0,0.1,0c0.2-0.1,0.4-0.2,0.6-0.2c0,0,0,0,0,0
		c0,0-0.1,0-0.1,0.1c0,0-0.1,0.1-0.1,0.1c0,0,0,0.1,0,0.1c0,0,0,0,0.1,0c0.1,0,0.2-0.1,0.3-0.1c0.1,0,0.2,0,0.3-0.1c0,0,0,0,0,0
		c0,0,0,0,0,0c-0.1,0-0.1,0.1-0.1,0.1c0,0.1,0,0.1,0.1,0.1c0.1,0,0.2-0.1,0.3-0.1c0.1,0,0.3,0,0.4,0C19,6,19,6.1,18.9,6.1
		c0,0,0,0,0,0c0.1,0,0.2,0,0.3,0c0.1,0,0.2,0,0.3,0c-0.1,0.1-0.2,0.2-0.2,0.4c0,0,0,0.1-0.1,0.2c0.1,0,0.2,0,0.3,0
		c0,0-0.1,0.1-0.1,0.1c-0.1,0.1-0.2,0.2-0.3,0.3c0,0-0.1,0.1-0.1,0.1c0.1,0,0.2,0,0.3,0c-0.1,0.2-0.3,0.3-0.5,0.5
		c0,0.1,0.1,0.1,0.3,0.1c-0.1,0.1-0.1,0.1-0.2,0.2C19,8,18.9,8,18.8,8.1c0,0,0,0,0,0c0.1,0.1,0.2,0.1,0.3,0
		c-0.2,0.2-0.4,0.3-0.7,0.4c0.1,0.1,0.2,0.1,0.3,0.1c0,0,0,0-0.1,0c-0.1,0.1-0.3,0.1-0.4,0.2c-0.1,0-0.1,0-0.2,0c0,0,0,0,0,0
		C18,9,18.1,9,18.2,9.1c-0.1,0-0.1,0-0.2,0.1c-0.2,0-0.3,0-0.5,0.1c0,0-0.1,0-0.1,0c0,0,0,0,0,0c0,0,0,0.1,0.1,0.1
		c0,0,0.1,0,0.1,0.1c-0.1,0-0.2,0-0.3,0c-0.3,0-0.7-0.1-1-0.2c-0.3-0.1-0.4-0.3-0.5-0.6c0,0,0,0,0-0.1C16,8.2,16.3,8,16.6,7.8
		c0.6-0.4,1.2-0.8,1.9-1.2c0,0,0,0,0,0c-0.1,0.1-0.3,0.1-0.4,0.2c-0.7,0.2-1.3,0.6-1.9,0.9c-0.2,0.1-0.4,0.3-0.6,0.5c0,0,0,0-0.1,0
		c-0.2-0.1-0.4-0.3-0.5-0.5C15,7.5,15,7.4,15,7.3z M15.2,9.6c0.2,0.1,0.5,0.2,0.6,0.4c0.1,0.1,0.2,0.2,0.2,0.3
		c0.1,0.1,0.1,0.2,0.1,0.3c0,0.1,0,0.1-0.1,0.2c0,0.1-0.1,0.1-0.1,0.2c-0.1,0-0.1,0.1-0.2,0.1c-0.1,0.1-0.2,0.1-0.4,0.2
		c-0.1,0-0.1,0-0.2,0c-0.1,0-0.2,0-0.3,0c-0.1,0-0.1,0-0.2,0c-0.3,0-0.6,0-0.9-0.1c-0.2-0.1-0.4-0.1-0.6-0.3
		c-0.1-0.1-0.2-0.1-0.2-0.2c0-0.1-0.1-0.1-0.1-0.2c0-0.1,0-0.2,0.1-0.3c0.1-0.1,0.2-0.2,0.4-0.3c0.2-0.1,0.5-0.2,0.7-0.3
		C14.6,9.4,14.9,9.4,15.2,9.6z M10.7,8.7c0,0-0.1,0-0.1-0.1c0.1,0,0.2,0,0.3-0.1c0,0,0,0-0.1,0c-0.2-0.1-0.4-0.2-0.6-0.3
		c0,0,0,0,0,0c0.1,0,0.2,0,0.3,0c0,0,0,0-0.1,0C10.3,8,10.1,7.9,10,7.7c0,0,0,0,0,0c0.1,0,0.2,0,0.3,0c-0.2-0.2-0.3-0.3-0.5-0.5
		c0.1,0,0.1,0,0.2,0c0.1,0,0.1,0,0.2,0c0-0.1,0-0.1-0.1-0.1C9.9,7,9.8,6.9,9.8,6.8c0,0-0.1-0.1-0.1-0.1c0.1,0,0.2,0,0.3,0
		c0-0.1-0.1-0.3-0.3-0.6c0.2,0,0.5,0,0.7,0c-0.1-0.1-0.1-0.1-0.2-0.2c0.1,0,0.2,0,0.2,0c0.2,0,0.3,0,0.4,0.1C11,6,11,6,11,5.9
		c0,0,0-0.1-0.1-0.1c0,0,0,0-0.1-0.1c0.1,0,0.1,0,0.2,0c0.1,0,0.3,0.1,0.4,0.1c0,0,0.1,0,0.1,0c0,0,0-0.1,0-0.1
		c0-0.1-0.1-0.1-0.1-0.1c0,0,0,0-0.1-0.1c0.1,0,0.1,0,0.2,0c0.1,0,0.3,0.1,0.4,0.2c0,0,0.1,0,0.1,0c0,0,0-0.1,0-0.1
		c0,0-0.1-0.1-0.1-0.1c0,0,0,0,0.1,0c0.2,0.1,0.3,0.2,0.4,0.3c0,0,0.1,0,0.1,0c0-0.1,0-0.1,0-0.2c0,0,0,0,0,0
		c0.1,0.1,0.3,0.2,0.4,0.3c0,0,0,0,0.1,0c0.1-0.1,0.1-0.1,0-0.2c0,0,0,0,0,0c0.2,0.1,0.3,0.3,0.5,0.5c0.1-0.1,0.1-0.1,0.1-0.2
		c0,0,0,0,0,0c0.3,0.3,0.5,0.6,0.6,1c0,0.2,0.1,0.3,0,0.5c-0.1,0.2-0.2,0.4-0.4,0.5c-0.1,0.1-0.1,0.1-0.2,0
		c-0.4-0.3-0.8-0.6-1.2-0.8C12,7,11.5,6.8,10.9,6.6c0,0,0,0,0,0c0.1,0,0.2,0.1,0.2,0.1C11.8,7.1,12.4,7.5,13,8
		c0.2,0.1,0.3,0.3,0.5,0.5c0,0,0,0,0,0.1c-0.1,0.3-0.3,0.5-0.6,0.6c-0.3,0.1-0.7,0.2-1.1,0.2c-0.1,0-0.1,0-0.2,0
		c0.1,0,0.2-0.1,0.2-0.2c-0.1,0-0.1,0-0.2,0c-0.2,0-0.3,0-0.5-0.1c0,0,0,0-0.1,0c0.1,0,0.2,0,0.2-0.1c0,0,0,0-0.1,0
		C11.1,8.9,10.9,8.8,10.7,8.7z M10.4,11.5c0-0.3,0.1-0.5,0.2-0.7c0.2-0.4,0.6-0.7,1.1-0.9c0.2-0.1,0.4-0.1,0.6-0.1c0,0,0,0,0.1,0
		c0.1,0,0.3,0,0.4,0.1c0.1,0,0.1,0.1,0.1,0.1c-0.1,0.2-0.3,0.4-0.4,0.6c-0.2,0.2-0.4,0.4-0.6,0.5c-0.2,0.2-0.4,0.3-0.7,0.5
		c-0.1,0.1-0.3,0.2-0.4,0.2c-0.1,0-0.1,0.1-0.2,0.1c0,0-0.1,0-0.1,0c0,0,0,0,0-0.1C10.4,11.7,10.4,11.6,10.4,11.5z M10,15.2
		c0,0-0.1,0.1-0.1,0.1c-0.1,0-0.1,0-0.1-0.1c-0.3-0.3-0.4-0.6-0.5-1c0-0.3,0-0.5,0-0.8c0.1-0.4,0.3-0.7,0.7-1c0.1,0,0.1-0.1,0.2-0.1
		c0,0,0.1,0,0.1,0c0,0.1,0.1,0.1,0.1,0.2c0.1,0.1,0.1,0.3,0.1,0.4c0,0.1,0,0.2,0,0.4c0,0.1,0,0.2,0,0.4c0,0.2-0.1,0.5-0.1,0.7
		c0,0.2-0.1,0.4-0.2,0.5C10.1,15,10.1,15.1,10,15.2z M12.6,17.9C12.6,17.9,12.6,17.9,12.6,17.9c-0.1,0.1-0.1,0.2-0.2,0.2
		c-0.1,0.1-0.1,0.1-0.2,0.1c-0.2,0-0.3,0-0.5,0c-0.3-0.1-0.5-0.2-0.7-0.3c-0.3-0.2-0.5-0.5-0.7-0.8c-0.1-0.2-0.2-0.4-0.2-0.7
		c0-0.2,0-0.4,0-0.6c0-0.1,0.1-0.2,0.2-0.3c0.1-0.1,0.3-0.2,0.4-0.1c0.1,0,0.2,0,0.2,0c0.1,0,0.2,0.1,0.3,0.1
		c0.2,0.1,0.4,0.2,0.5,0.4c0.2,0.2,0.4,0.4,0.6,0.7c0,0.1,0.1,0.2,0.1,0.2c0.1,0.2,0.1,0.3,0.1,0.5c0,0.1,0,0.1,0,0.1
		C12.7,17.6,12.7,17.8,12.6,17.9z M12.7,14.8c-0.2,0-0.5,0-0.7,0c-0.3-0.1-0.6-0.3-0.8-0.6c-0.1-0.2-0.2-0.4-0.2-0.7
		c0-0.1,0-0.1,0-0.2c0-0.3,0.1-0.5,0.2-0.8c0.1-0.3,0.3-0.5,0.5-0.7c0.1-0.1,0.3-0.2,0.5-0.3c0.3-0.1,0.5-0.2,0.8-0.1
		c0.4,0.1,0.7,0.2,1,0.6c0.1,0.1,0.1,0.2,0.1,0.3c0.1,0.1,0.1,0.2,0.1,0.3c0,0.1,0,0.3,0,0.4c0,0.1,0,0.1,0,0.2c0,0.1,0,0.2-0.1,0.3
		c-0.1,0.2-0.2,0.4-0.3,0.6c-0.1,0.2-0.3,0.3-0.5,0.4C13.1,14.7,12.9,14.8,12.7,14.8z M16.2,18.9c-0.1,0.1-0.2,0.2-0.3,0.3
		c-0.2,0.2-0.4,0.3-0.6,0.4c-0.2,0.1-0.4,0.1-0.5,0.1c-0.1,0-0.1,0-0.2,0c-0.4,0-0.7-0.1-1.1-0.3c-0.2-0.1-0.4-0.3-0.5-0.5
		c0,0,0-0.1-0.1-0.1c0-0.1,0-0.1,0.1-0.2c0.1-0.1,0.3-0.2,0.4-0.3c0.1,0,0.2-0.1,0.3-0.1c0.2,0,0.4-0.1,0.6-0.1c0.1,0,0.2,0,0.3,0
		c0.1,0,0.2,0,0.2,0c0.2,0,0.3,0,0.5,0.1c0.2,0,0.3,0.1,0.4,0.1c0.1,0,0.1,0.1,0.2,0.1c0.1,0,0.1,0.1,0.2,0.2
		C16.3,18.7,16.3,18.8,16.2,18.9z M16.3,16.5c0,0.1-0.1,0.2-0.1,0.2c-0.1,0.2-0.3,0.4-0.5,0.6c-0.2,0.2-0.5,0.3-0.7,0.3
		c-0.1,0-0.3,0-0.4,0c0,0,0,0,0,0c-0.3,0-0.5-0.1-0.8-0.2c-0.3-0.2-0.5-0.4-0.7-0.7c-0.1-0.2-0.2-0.4-0.2-0.6c0-0.3,0-0.6,0.2-0.8
		c0-0.1,0.1-0.1,0.1-0.2c0.1-0.2,0.3-0.4,0.6-0.5c0.2-0.1,0.5-0.2,0.8-0.2c0.2,0,0.4,0,0.6,0.1c0.1,0,0.2,0.1,0.3,0.1
		c0.1,0.1,0.2,0.1,0.3,0.2c0,0,0,0,0,0c0.1,0.1,0.2,0.2,0.3,0.3c0.1,0.2,0.2,0.4,0.3,0.6C16.3,16.1,16.3,16.3,16.3,16.5z M16.4,14.7
		c-0.1,0-0.1,0-0.2-0.1c-0.1-0.1-0.3-0.1-0.4-0.2c0,0-0.1-0.1-0.1-0.1c-0.1-0.1-0.2-0.2-0.3-0.3c-0.1-0.1-0.1-0.2-0.2-0.3
		c0,0,0,0,0,0c-0.1-0.2-0.1-0.3-0.2-0.5c0,0,0-0.1,0-0.1c0-0.2,0-0.5,0-0.7c0.1-0.2,0.2-0.4,0.3-0.5c0.1-0.1,0.3-0.2,0.4-0.3
		c0.2-0.1,0.5-0.1,0.7-0.1c0.3,0,0.7,0.2,0.9,0.4c0.3,0.2,0.5,0.5,0.6,0.9c0.1,0.2,0.1,0.5,0.1,0.7c0,0.2-0.1,0.5-0.2,0.7
		c-0.1,0.1-0.2,0.3-0.3,0.4c-0.1,0.1-0.2,0.1-0.3,0.2c-0.2,0.1-0.4,0.2-0.7,0.2C16.7,14.8,16.5,14.7,16.4,14.7z M18.8,17.4
		c-0.2,0.3-0.5,0.6-0.9,0.7c-0.3,0.1-0.5,0.2-0.8,0.2c-0.2,0-0.3-0.1-0.4-0.2c-0.1-0.1-0.1-0.2-0.1-0.3c0-0.1,0-0.2,0-0.3
		c0-0.1,0-0.3,0.1-0.4c0.1-0.2,0.2-0.5,0.3-0.7c0.1-0.1,0.1-0.2,0.2-0.3c0.1-0.2,0.3-0.3,0.4-0.4c0.1-0.1,0.2-0.2,0.3-0.2
		c0.1,0,0.1-0.1,0.2-0.1c0.1-0.1,0.3-0.1,0.5-0.1c0.1,0,0.2,0,0.3,0.1c0.1,0.1,0.1,0.2,0.2,0.3c0.1,0.2,0.1,0.4,0.1,0.6
		c0,0.1,0,0.1,0,0.2C19.1,16.7,19,17,18.8,17.4z M19.9,14.1c-0.1,0.4-0.2,0.7-0.5,1c0,0,0,0-0.1,0c0,0-0.1,0-0.1,0
		c-0.1,0-0.1-0.1-0.2-0.2c-0.1-0.2-0.2-0.5-0.3-0.7c-0.1-0.2-0.1-0.5-0.1-0.7c0-0.1,0-0.3,0-0.4c0,0,0,0,0,0c0,0,0,0,0,0
		c0-0.1,0-0.2,0-0.3c0-0.1,0-0.3,0.1-0.4c0,0,0-0.1,0-0.1c0-0.1,0.1-0.1,0.2-0.1c0.1,0.1,0.3,0.2,0.4,0.3c0.2,0.2,0.4,0.5,0.5,0.8
		C19.9,13.6,19.9,13.9,19.9,14.1z"/>
</g>
</svg>
