<?xml version="1.0" encoding="utf-8"?>
<!-- Generator: Adobe Illustrator 23.1.1, SVG Export Plug-In . SVG Version: 6.00 Build 0)  -->
<svg version="1.0" xmlns="http://www.w3.org/2000/svg" xmlns:xlink="http://www.w3.org/1999/xlink" x="0px" y="0px" width="29.2px"
	 height="25.5px" viewBox="0 0 29.2 25.5" enable-background="new 0 0 29.2 25.5" xml:space="preserve">
<g id="Border">
	<path fill="#D0CECE" d="M21.9,25.4H7.3L0,12.7L7.3,0.1h14.6l7.3,12.6L21.9,25.4z M7.9,24.4h13.4L28,12.7L21.3,1.1H7.9L1.2,12.7
		L7.9,24.4z"/>
</g>
<g id="Icon">
	<g>
		<path d="M17.6,18.8h1.7v-7c0,0,0.3-0.2,1-0.2c0.7,0,1.3,0,1.3,0V9.9c0,0-1.6-0.1-2.5,0.1s-1.5,0.6-1.5,0.6S17.7,18.8,17.6,18.8z"
			/>
		<g>
			<path d="M12.5,6.7H8.7v12h1.7l0.1-4.1h1.7c0,0,3.6-0.4,3.6-4.1S12.5,6.7,12.5,6.7z M11.9,12.7h-1.5V8.6l1.9-0.1
				c0,0,1.6,0.1,1.6,2S11.9,12.7,11.9,12.7z"/>
		</g>
	</g>
</g>
</svg>
