<?xml version="1.0" encoding="utf-8"?>
<!-- Generator: Adobe Illustrator 23.1.1, SVG Export Plug-In . SVG Version: 6.00 Build 0)  -->
<svg version="1.0" xmlns="http://www.w3.org/2000/svg" xmlns:xlink="http://www.w3.org/1999/xlink" x="0px" y="0px" width="24px"
	 height="24px" viewBox="0 0 24 24" enable-background="new 0 0 24 24" xml:space="preserve">
<g id="Border" display="none">
	<path display="inline" fill="#D3D3D3" d="M19.3,24.6H4.7L-2.6,12L4.7-0.6h14.6L26.6,12L19.3,24.6z M5.3,23.6h13.4L25.4,12L18.7,0.4
		H5.3L-1.4,12L5.3,23.6z"/>
</g>
<g id="Icon">
	<polygon fill="#898989" points="11.7,7.8 10.6,8.8 9.3,8.7 8.4,9 7.4,10.4 7.2,11.4 6.3,12.2 6.1,13.3 6.4,14.4 6.9,15.3 7.2,16.7 
		8.1,17.7 9.8,18.4 11.2,19.6 12.5,19.7 13.5,19.3 14.6,18.4 16.1,17.5 16.9,16.6 17.1,15.2 17.7,14.1 17.9,12.7 17.2,11.8 
		16.8,11.1 16.5,9.9 15.7,8.9 13.4,8.5 	"/>
	<path fill="#464646" d="M17.9,12.1c-0.1-0.3-0.3-0.5-0.6-0.7c-0.1-0.1-0.1-0.1-0.2-0.2c0,0,0-0.1-0.1-0.1c0-0.1-0.1-0.1-0.1-0.2
		c0-0.4-0.1-0.7-0.2-1.1c-0.2-0.4-0.5-0.7-0.8-1c0,0,0,0-0.1,0c0,0,0,0-0.1,0c0.1,0,0.1,0,0.1-0.1c0.2-0.1,0.3-0.2,0.3-0.3
		c0,0,0,0,0,0c0.1-0.1,0.2-0.1,0.3-0.2c0.1-0.1,0.2-0.2,0.2-0.3c0,0,0,0,0-0.1C17,7.7,17,7.7,17.1,7.6c0.1-0.1,0.2-0.2,0.2-0.4
		c0,0,0,0,0-0.1c0,0,0.1-0.1,0.1-0.1c0.1-0.1,0.1-0.2,0.1-0.4c0,0,0-0.1,0-0.1c0.1-0.1,0.1-0.2,0.2-0.3c0-0.1,0-0.2,0-0.2
		c0,0,0,0,0-0.1c0-0.1,0.1-0.2,0.1-0.3c0-0.1,0-0.2-0.1-0.3c0,0,0,0,0-0.1c0.1-0.2,0.1-0.4-0.1-0.5c-0.1-0.2-0.3-0.2-0.5-0.2
		c0,0-0.1,0-0.1,0c-0.1-0.1-0.2-0.2-0.4-0.2c-0.1,0-0.2,0-0.3,0c0,0,0,0,0,0c-0.1-0.1-0.3-0.1-0.5-0.1c0,0,0,0-0.1,0
		C15.7,4,15.6,4,15.4,4.1c0,0,0,0,0,0c-0.1,0-0.1,0-0.2,0c-0.1,0-0.1,0-0.2-0.1c0,0,0,0-0.1,0c-0.1,0-0.1,0-0.2,0
		c-0.1,0-0.2,0.1-0.3,0.1c0,0,0,0,0,0c-0.2-0.1-0.4,0-0.5,0.1c0,0-0.1,0-0.1,0c-0.1,0-0.3,0-0.4,0.1c-0.1,0.1-0.2,0.1-0.2,0.2
		c0,0,0,0,0,0c-0.1,0-0.3,0-0.4,0.1c-0.3,0.3-0.5,0.6-0.7,1c0,0,0,0,0,0c0-0.1-0.1-0.1-0.1-0.2c-0.2-0.3-0.4-0.6-0.6-0.8
		c-0.1-0.1-0.2-0.1-0.4-0.1c0,0,0,0,0,0c-0.1-0.1-0.2-0.1-0.3-0.2c-0.1-0.1-0.3-0.1-0.4-0.1c0,0,0,0-0.1,0C10.1,4.2,10,4.1,9.9,4.1
		c-0.1,0-0.1,0-0.2,0c0,0,0,0-0.1,0C9.5,4.1,9.4,4,9.3,4C9.3,4,9.2,4,9.2,4C9.1,4,9,4.1,9,4.1c0,0,0,0,0,0c-0.1,0-0.2,0-0.3,0
		c-0.1,0-0.2,0-0.3,0.1c0,0,0,0-0.1,0c-0.2,0-0.3,0-0.4,0.1c0,0-0.1,0-0.1,0c-0.1,0-0.3,0-0.4,0C7.2,4.4,7.1,4.4,7,4.5
		c0,0,0,0-0.1,0c-0.2,0-0.4,0.1-0.5,0.3C6.4,5,6.3,5.1,6.4,5.3c0,0,0,0,0,0c-0.1,0.2-0.1,0.4,0,0.6c0,0,0,0.1,0,0.1
		c0,0.2,0,0.3,0.1,0.4c0.1,0.1,0.1,0.1,0.1,0.2c0,0.2,0.1,0.3,0.2,0.4c0.1,0.1,0.1,0.1,0.1,0.2c0,0.1,0.1,0.2,0.2,0.3
		c0.1,0.1,0.2,0.1,0.2,0.2c0,0,0,0,0,0c0,0.2,0.1,0.3,0.3,0.4c0.1,0,0.1,0.1,0.2,0.1c0,0,0,0,0,0C7.9,8.5,8,8.6,8.2,8.7c0,0,0,0,0,0
		c0,0,0,0,0,0C7.6,9,7.3,9.5,7.1,10.1C7,10.4,6.9,10.7,7,10.9c0,0,0,0.1,0,0.1c0,0.1-0.1,0.2-0.2,0.2c-0.3,0.3-0.6,0.6-0.8,1
		c-0.1,0.3-0.2,0.5-0.2,0.8c0,0,0,0,0,0c0,0.1,0,0.2,0,0.3c0,0.1,0,0.2,0,0.2c0,0.3,0.2,0.6,0.3,0.9c0.1,0.1,0.2,0.2,0.3,0.4
		c0,0,0,0,0,0.1c0.1,0.3,0.2,0.7,0.3,1c0,0.1,0,0.2,0.1,0.3c0.1,0.4,0.2,0.7,0.4,1c0.2,0.3,0.5,0.6,0.9,0.8c0.1,0.1,0.2,0.1,0.3,0.1
		c0,0,0.1,0,0.1,0.1c0.5,0.3,0.9,0.6,1.5,0.8c0,0,0,0,0.1,0c0.3,0.4,0.8,0.6,1.2,0.8c0.3,0.1,0.6,0.1,0.9,0.1c0.3,0,0.6-0.1,0.8-0.2
		c0.3-0.1,0.6-0.3,0.8-0.5c0.1-0.1,0.2-0.2,0.2-0.2c0,0,0,0,0,0c0.5-0.2,0.9-0.4,1.3-0.7c0,0,0,0,0.1,0c0.4-0.1,0.8-0.3,1.1-0.6
		c0.3-0.3,0.5-0.7,0.7-1.1c0.1-0.3,0.2-0.6,0.2-0.9c0-0.1,0-0.1,0-0.2c0.1-0.2,0.1-0.4,0.2-0.6c0,0,0-0.1,0-0.1
		c0.1-0.2,0.3-0.4,0.4-0.6c0.1-0.3,0.2-0.6,0.2-1C18.2,12.8,18.1,12.4,17.9,12.1z M16.1,9.9c0.1,0.2,0.2,0.4,0.2,0.6
		c0,0.1,0,0.3,0,0.4c0,0,0,0,0,0c0,0,0,0.1,0,0.1c0,0,0,0.1-0.1,0.1c-0.1,0-0.1,0-0.2-0.1c0,0-0.1,0-0.1,0c-0.1,0-0.1-0.1-0.2-0.1
		c-0.1-0.1-0.2-0.1-0.3-0.2c-0.1-0.1-0.2-0.1-0.2-0.2c-0.1-0.1-0.2-0.1-0.2-0.2c-0.2-0.2-0.4-0.3-0.6-0.5c-0.1-0.1-0.3-0.3-0.4-0.4
		C14,9.3,14,9.3,13.9,9.2c0,0,0-0.1-0.1-0.2c0,0,0-0.1,0-0.1c0.2,0,0.4-0.1,0.5-0.1c0.3,0,0.6,0.1,0.9,0.2c0.2,0.1,0.3,0.2,0.4,0.3
		C15.9,9.6,16,9.7,16.1,9.9z M12.5,6.2c0.1-0.4,0.3-0.8,0.5-1.1c0,0,0.1-0.1,0.1-0.1c0,0.1,0,0.2,0.1,0.2c0.2-0.2,0.3-0.4,0.5-0.5
		c0,0.1,0,0.1,0,0.2c0,0,0,0.1,0.1,0.1c0,0,0,0,0.1,0C14,4.9,14,4.8,14.1,4.7c0,0,0.1-0.1,0.1-0.1c-0.1,0.1,0,0.2,0,0.2
		c0,0,0,0,0.1,0c0.1-0.1,0.2-0.2,0.4-0.3c0.1,0,0.1-0.1,0.2-0.1c0,0,0,0,0,0c0,0-0.1,0.1-0.1,0.1c0,0,0,0.1,0,0.1c0,0,0,0,0.1,0
		c0.2-0.1,0.4-0.2,0.6-0.2c0,0,0,0,0,0c0,0-0.1,0-0.1,0.1c0,0-0.1,0.1-0.1,0.1c0,0,0,0.1,0,0.1c0,0,0,0,0.1,0c0.1,0,0.2-0.1,0.3-0.1
		c0.1,0,0.2,0,0.3-0.1c0,0,0,0,0,0c0,0,0,0,0,0c-0.1,0-0.1,0.1-0.1,0.1c0,0.1,0,0.1,0.1,0.1c0.1,0,0.2-0.1,0.3-0.1
		c0.1,0,0.3,0,0.4,0c-0.1,0.1-0.1,0.1-0.2,0.2c0,0,0,0,0,0c0.1,0,0.2,0,0.4,0c0.1,0,0.2,0,0.4,0c-0.1,0.1-0.2,0.3-0.2,0.4
		c0,0.1,0,0.1-0.1,0.2c0.1,0,0.2,0,0.3,0c0,0-0.1,0.1-0.1,0.1C17.1,5.9,17,6,16.9,6.1c0,0-0.1,0.1-0.1,0.1c0.1,0,0.2,0,0.4,0
		c-0.1,0.2-0.3,0.4-0.5,0.5c0,0.1,0.1,0.1,0.3,0.1c-0.1,0.1-0.1,0.1-0.2,0.2c-0.1,0.1-0.2,0.1-0.3,0.2c0,0,0,0,0,0
		c0.1,0.1,0.2,0.1,0.3,0c-0.2,0.2-0.5,0.3-0.7,0.4c0.1,0.1,0.2,0.1,0.3,0.1c0,0,0,0-0.1,0C16.1,7.8,16,7.9,15.8,8
		c-0.1,0-0.1,0-0.2,0c0,0,0,0-0.1,0c0,0.1,0.1,0.1,0.2,0.1c-0.1,0-0.1,0-0.2,0.1c-0.2,0-0.3,0.1-0.5,0.1c0,0-0.1,0-0.1,0
		c0,0,0,0,0,0c0,0,0,0.1,0.1,0.1c0,0,0.1,0,0.1,0.1c-0.1,0-0.2,0-0.3,0c-0.4,0-0.7-0.1-1-0.2c-0.3-0.1-0.5-0.4-0.6-0.7
		c0,0,0,0,0-0.1c0.2-0.3,0.5-0.5,0.8-0.7c0.6-0.5,1.3-0.9,2-1.2c0,0,0,0,0,0c-0.2,0.1-0.3,0.1-0.5,0.2c-0.7,0.3-1.3,0.6-2,1
		C13.4,6.9,13.2,7,13,7.2c0,0,0,0-0.1,0c-0.2-0.1-0.4-0.3-0.5-0.6C12.4,6.5,12.4,6.4,12.5,6.2z M12.6,8.7c0.3,0.1,0.5,0.2,0.7,0.4
		c0.1,0.1,0.2,0.2,0.2,0.3c0.1,0.1,0.1,0.2,0.1,0.3c0,0.1,0,0.1-0.1,0.2c0,0.1-0.1,0.1-0.1,0.2c-0.1,0-0.1,0.1-0.2,0.1
		c-0.1,0.1-0.2,0.1-0.4,0.2c-0.1,0-0.1,0-0.2,0c-0.1,0-0.2,0-0.3,0c-0.1,0-0.1,0-0.2,0c-0.3,0-0.6,0-1-0.1c-0.2-0.1-0.4-0.2-0.6-0.3
		c-0.1-0.1-0.2-0.2-0.2-0.3c0-0.1-0.1-0.1-0.1-0.2c0-0.1,0-0.2,0.1-0.3c0.1-0.1,0.2-0.3,0.4-0.4c0.2-0.2,0.5-0.3,0.8-0.3
		C12,8.5,12.3,8.5,12.6,8.7z M8,7.8c0,0-0.1,0-0.1-0.1c0.1,0,0.2,0,0.3-0.1c0,0,0,0-0.1,0C7.9,7.5,7.7,7.4,7.5,7.3c0,0,0,0,0,0
		c0.1,0,0.2,0,0.3,0c0,0,0,0-0.1,0C7.5,7,7.3,6.9,7.2,6.7c0,0,0,0,0,0c0.1,0,0.2,0,0.3,0C7.3,6.5,7.1,6.4,7,6.2c0.1,0,0.1,0,0.2,0
		c0.1,0,0.1,0,0.2,0c0-0.1,0-0.1-0.1-0.1C7.1,6,7,5.9,6.9,5.8c0,0-0.1-0.1-0.1-0.1c0.1,0,0.2,0,0.3,0c0-0.1-0.1-0.3-0.3-0.6
		c0.2,0,0.5,0,0.7,0C7.6,5,7.5,4.9,7.5,4.9c0.1,0,0.2,0,0.3,0c0.2,0,0.3,0,0.5,0.1c0.1,0,0.1,0,0.1-0.1c0,0,0-0.1-0.1-0.1
		c0,0,0,0-0.1-0.1c0.1,0,0.1,0,0.2,0c0.1,0,0.3,0.1,0.4,0.1c0,0,0.1,0,0.1,0c0,0,0-0.1,0-0.1c0-0.1-0.1-0.1-0.1-0.1c0,0,0,0-0.1-0.1
		c0.1,0,0.1,0,0.2,0c0.2,0,0.3,0.1,0.4,0.2c0,0,0.1,0,0.1,0c0,0,0-0.1,0-0.1c0,0-0.1-0.1-0.1-0.1c0,0,0,0,0.1,0
		c0.2,0.1,0.3,0.2,0.5,0.3c0,0,0.1,0,0.1,0c0-0.1,0-0.1,0-0.2c0,0,0,0,0,0c0.2,0.1,0.3,0.2,0.4,0.3c0,0,0,0,0.1,0
		c0.1-0.1,0.1-0.1,0.1-0.2c0,0,0,0,0-0.1c0.2,0.2,0.4,0.3,0.5,0.5C11,5.2,11,5.1,11,5c0,0,0,0,0,0c0.3,0.3,0.5,0.7,0.6,1.1
		c0,0.2,0.1,0.3,0,0.5c-0.1,0.2-0.2,0.4-0.4,0.5c-0.1,0.1-0.1,0.1-0.2,0c-0.4-0.3-0.8-0.6-1.2-0.8C9.3,6,8.7,5.8,8.1,5.6
		c0,0,0,0,0,0c0.1,0,0.2,0.1,0.3,0.1c0.7,0.4,1.4,0.8,2,1.4c0.2,0.1,0.3,0.3,0.5,0.5c0,0,0,0.1,0,0.1c-0.1,0.3-0.3,0.5-0.6,0.7
		C10,8.4,9.6,8.5,9.2,8.5c-0.1,0-0.1,0-0.2,0c0.1,0,0.2-0.1,0.2-0.2c-0.1,0-0.2,0-0.2,0c-0.2,0-0.4,0-0.5-0.1c0,0,0,0-0.1,0
		c0.1,0,0.2,0,0.2-0.1c0,0,0,0-0.1,0C8.3,7.9,8.1,7.9,8,7.8z M7.6,10.7c0-0.3,0.1-0.5,0.3-0.8C8.1,9.5,8.5,9.2,8.9,9
		c0.2-0.1,0.4-0.1,0.6-0.1c0,0,0,0,0.1,0c0.1,0,0.3,0,0.4,0.1c0.1,0,0.1,0.1,0.1,0.1C10,9.3,9.8,9.5,9.7,9.7C9.5,9.8,9.3,10,9,10.2
		c-0.2,0.2-0.5,0.4-0.7,0.5c-0.1,0.1-0.3,0.2-0.4,0.2c-0.1,0-0.1,0.1-0.2,0.1c0,0-0.1,0-0.1,0c0,0,0,0,0-0.1
		C7.6,10.9,7.6,10.8,7.6,10.7z M7.2,14.6c0,0-0.1,0.1-0.1,0.1c-0.1,0-0.1,0-0.1-0.1c-0.3-0.3-0.4-0.6-0.5-1c0-0.3,0-0.5,0-0.8
		c0.1-0.4,0.4-0.8,0.7-1c0.1,0,0.1-0.1,0.2-0.1c0,0,0.1,0,0.1,0c0,0.1,0.1,0.1,0.1,0.2c0.1,0.1,0.1,0.3,0.1,0.5c0,0.1,0,0.2,0,0.4
		c0,0.1,0,0.3,0,0.4c0,0.2-0.1,0.5-0.1,0.7c0,0.2-0.1,0.4-0.2,0.5C7.3,14.4,7.3,14.5,7.2,14.6z M10,17.4C10,17.4,9.9,17.4,10,17.4
		c-0.1,0.1-0.1,0.2-0.2,0.2c-0.1,0.1-0.2,0.1-0.2,0.1c-0.2,0-0.3,0-0.5,0c-0.3-0.1-0.5-0.2-0.8-0.3c-0.3-0.2-0.6-0.5-0.7-0.9
		c-0.1-0.2-0.2-0.5-0.2-0.7c0-0.2,0-0.4,0-0.6c0-0.1,0.1-0.2,0.2-0.3c0.1-0.1,0.3-0.2,0.5-0.1c0.1,0,0.2,0,0.2,0
		c0.1,0,0.2,0.1,0.3,0.1C8.8,15,9,15.1,9.1,15.3c0.2,0.2,0.5,0.5,0.6,0.8c0,0.1,0.1,0.2,0.1,0.3c0.1,0.2,0.1,0.3,0.1,0.5
		c0,0.1,0,0.1,0,0.1C10,17.1,10,17.3,10,17.4z M10,14.2c-0.3,0-0.5,0-0.8-0.1c-0.4-0.1-0.6-0.3-0.8-0.7c-0.1-0.2-0.2-0.4-0.2-0.7
		c0-0.1,0-0.1,0-0.2c0-0.3,0.1-0.6,0.2-0.8C8.6,11.5,8.8,11.3,9,11c0.2-0.1,0.3-0.2,0.5-0.3c0.3-0.1,0.6-0.2,0.9-0.1
		c0.4,0.1,0.8,0.3,1,0.6c0.1,0.1,0.1,0.2,0.2,0.3c0.1,0.1,0.1,0.2,0.1,0.4c0,0.2,0,0.3,0,0.5c0,0.1,0,0.1,0,0.2c0,0.1,0,0.2-0.1,0.3
		c-0.1,0.2-0.2,0.4-0.4,0.6c-0.1,0.2-0.3,0.3-0.5,0.5C10.5,14.1,10.3,14.2,10,14.2z M13.8,18.5c-0.1,0.1-0.2,0.2-0.3,0.3
		c-0.2,0.2-0.4,0.3-0.6,0.4c-0.2,0.1-0.4,0.1-0.6,0.1c-0.1,0-0.1,0-0.2,0c-0.4,0-0.8-0.1-1.1-0.3c-0.2-0.1-0.4-0.3-0.6-0.5
		c0,0-0.1-0.1-0.1-0.2c0-0.1,0-0.1,0.1-0.2c0.1-0.1,0.3-0.2,0.4-0.3c0.1,0,0.2-0.1,0.4-0.1c0.2,0,0.4-0.1,0.7-0.1c0.1,0,0.2,0,0.3,0
		c0.1,0,0.2,0,0.3,0c0.2,0,0.3,0,0.5,0.1c0.2,0,0.3,0.1,0.5,0.1c0.1,0,0.2,0.1,0.2,0.1c0.1,0,0.1,0.1,0.2,0.2
		C13.8,18.3,13.8,18.4,13.8,18.5z M13.8,16c0,0.1-0.1,0.2-0.1,0.3c-0.1,0.3-0.3,0.5-0.5,0.6c-0.2,0.2-0.5,0.3-0.8,0.3
		c-0.1,0-0.3,0-0.4,0.1c0,0,0,0,0,0c-0.3,0-0.6-0.1-0.8-0.2c-0.3-0.2-0.6-0.4-0.7-0.7c-0.1-0.2-0.2-0.4-0.2-0.6c0-0.3,0-0.6,0.2-0.8
		c0-0.1,0.1-0.1,0.1-0.2c0.1-0.2,0.4-0.4,0.6-0.5c0.3-0.1,0.5-0.2,0.8-0.2c0.2,0,0.4,0,0.6,0.1c0.1,0,0.3,0.1,0.4,0.1
		c0.1,0.1,0.2,0.1,0.3,0.2c0,0,0,0,0,0c0.1,0.1,0.2,0.2,0.3,0.3c0.1,0.2,0.3,0.4,0.3,0.7C13.8,15.5,13.8,15.8,13.8,16z M13.9,14.1
		c-0.1,0-0.1,0-0.2-0.1c-0.1-0.1-0.3-0.2-0.4-0.2c-0.1,0-0.1-0.1-0.1-0.1c-0.1-0.1-0.2-0.2-0.3-0.3c-0.1-0.1-0.1-0.2-0.2-0.3
		c0,0,0,0,0,0c-0.1-0.2-0.2-0.4-0.2-0.5c0,0,0-0.1,0-0.1c0-0.2,0-0.5,0-0.7c0.1-0.2,0.2-0.4,0.3-0.6c0.1-0.1,0.3-0.2,0.4-0.3
		c0.2-0.1,0.5-0.2,0.8-0.1c0.4,0,0.7,0.2,1,0.4c0.3,0.3,0.5,0.6,0.7,0.9c0.1,0.3,0.2,0.5,0.1,0.8c0,0.3-0.1,0.5-0.2,0.7
		c-0.1,0.1-0.2,0.3-0.3,0.4c-0.1,0.1-0.2,0.1-0.3,0.2c-0.2,0.1-0.4,0.2-0.7,0.2C14.2,14.1,14.1,14.1,13.9,14.1z M16.4,16.9
		c-0.2,0.3-0.5,0.6-0.9,0.7c-0.3,0.1-0.6,0.2-0.9,0.2c-0.2,0-0.3-0.1-0.4-0.2c-0.1-0.1-0.1-0.2-0.1-0.4c0-0.1,0-0.2,0-0.3
		c0-0.1,0-0.3,0.1-0.4c0.1-0.3,0.2-0.5,0.3-0.7c0.1-0.1,0.2-0.2,0.2-0.4c0.1-0.2,0.3-0.3,0.4-0.5c0.1-0.1,0.2-0.2,0.3-0.2
		c0.1,0,0.1-0.1,0.2-0.1c0.2-0.1,0.3-0.1,0.5-0.1c0.1,0,0.3,0,0.4,0.1c0.1,0.1,0.1,0.2,0.2,0.3c0.1,0.2,0.1,0.4,0.1,0.6
		c0,0.1,0,0.1,0,0.2C16.8,16.1,16.6,16.5,16.4,16.9z M17.6,13.5c-0.1,0.4-0.2,0.8-0.5,1.1c0,0,0,0-0.1,0c0,0-0.1,0-0.1,0
		c-0.1-0.1-0.1-0.1-0.2-0.2c-0.2-0.2-0.2-0.5-0.3-0.8c-0.1-0.2-0.1-0.5-0.1-0.7c0-0.1,0-0.3,0-0.4c0,0,0,0,0,0c0,0,0,0,0,0
		c0-0.1,0-0.2,0-0.3c0-0.1,0-0.3,0.1-0.4c0,0,0-0.1,0-0.1c0-0.1,0.1-0.1,0.2-0.1c0.1,0.1,0.3,0.2,0.4,0.3c0.3,0.2,0.4,0.5,0.5,0.8
		C17.6,12.9,17.6,13.2,17.6,13.5z"/>
</g>
</svg>
