<?xml version="1.0" encoding="utf-8"?>
<!-- Generator: Adobe Illustrator 23.1.1, SVG Export Plug-In . SVG Version: 6.00 Build 0)  -->
<svg version="1.0" xmlns="http://www.w3.org/2000/svg" xmlns:xlink="http://www.w3.org/1999/xlink" x="0px" y="0px" width="24px"
	 height="24px" viewBox="0 0 24 24" enable-background="new 0 0 24 24" xml:space="preserve">
<g id="Border" display="none">
	<path display="inline" fill="#D3D3D3" d="M19.3,24.6H4.7L-2.6,12L4.7-0.6h14.6L26.6,12L19.3,24.6z M5.3,23.6h13.4L25.4,12L18.7,0.4
		H5.3L-1.4,12L5.3,23.6z"/>
</g>
<g id="Icon">
	<g>
		<path fill="#3B4A51" d="M9.3,6.3H7L3.7,17.6h2.1l0.9-3.1h2.8l0.9,3.1h2.1L9.3,6.3z M6.9,12.8l1.1-4.3l1,4.3H6.9z"/>
	</g>
	<g>
		<path fill="#3B4A51" d="M20.3,14v-1.8c0-1.9-1.4-3.2-3.5-3.2c-2.2,0-3.5,1.3-3.5,3.6v1.5c0,2.3,1.4,3.6,3.6,3.6
			c2.1,0,3.4-1.1,3.4-2.9v-0.2h-1.5l-0.2,0.1v0.2c0,1.2-1.2,1.3-1.7,1.3c-1.3,0-1.9-0.7-1.9-2.1V14H20.3z M18.5,12.2v0.3H15
			c0-1.3,0.6-1.9,1.9-1.9C18,10.5,18.5,11.1,18.5,12.2z"/>
	</g>
</g>
</svg>
