<?xml version="1.0" encoding="utf-8"?>
<!-- Generator: Adobe Illustrator 23.1.1, SVG Export Plug-In . SVG Version: 6.00 Build 0)  -->
<svg version="1.0" xmlns="http://www.w3.org/2000/svg" xmlns:xlink="http://www.w3.org/1999/xlink" x="0px" y="0px" width="24px"
	 height="24px" viewBox="0 0 24 24" enable-background="new 0 0 24 24" xml:space="preserve">
<g id="Border" display="none">
	<path display="inline" fill="#D3D3D3" d="M19.3,24.6H4.7L-2.6,12L4.7-0.6h14.6L26.6,12L19.3,24.6z M5.3,23.6h13.4L25.4,12L18.7,0.4
		H5.3L-1.4,12L5.3,23.6z"/>
</g>
<g id="Icon">
	<path fill="#898989" d="M16.9,16.5c-0.4,0-0.8-0.1-1.1-0.2c-1-0.2-1.9-0.7-2.7-1.5c-0.4-0.4-0.8-0.9-1.1-1.4
		c-0.4,0.6-0.8,1.1-1.3,1.6c-0.5,0.6-1.2,1-2,1.2c-0.7,0.2-1.5,0.2-2.3,0.1c-0.8-0.1-1.5-0.4-2.1-0.9c-0.7-0.5-1.2-1.1-1.5-1.8
		c-0.3-0.7-0.4-1.4-0.3-2.2c0.1-0.7,0.4-1.4,0.8-2C3.8,8.8,4.3,8.3,5,8c0.7-0.4,1.4-0.5,2.1-0.5l0,0c0.4,0,0.8,0,1.2,0.1
		c1,0.2,1.9,0.8,2.7,1.6c0.4,0.4,0.7,0.8,1,1.2c0.6-0.8,1.3-1.6,2.2-2.2c0.6-0.4,1.4-0.7,2.2-0.7c0.8,0,1.5,0.1,2.3,0.4
		c1.5,0.6,2.5,1.9,2.8,3.4c0.1,0.7,0,1.5-0.3,2.3c-0.3,0.7-0.7,1.3-1.3,1.8C19,16.1,17.9,16.5,16.9,16.5z M12.9,11.9
		c0.3,0.7,0.8,1.3,1.3,1.8c0.6,0.6,1.2,1,2,1.1l0,0l0,0c0.9,0.3,1.9,0,2.7-0.7c0.8-0.7,1.2-1.7,1.1-2.6c-0.2-0.9-0.8-1.8-1.9-2.2
		c-1-0.4-2.2-0.4-3,0.2l0,0C14.1,10.1,13.5,11,12.9,11.9z M6.9,9.1c-0.8,0-1.7,0.5-2.3,1.3c-0.3,0.4-0.5,0.9-0.6,1.3
		C4,12.2,4,12.6,4.2,13l0,0c0.2,0.5,0.5,0.9,0.9,1.2c0.4,0.3,0.9,0.5,1.5,0.6c1.1,0.2,2.2-0.1,2.9-0.9l0,0l0,0
		c0.6-0.6,1.1-1.3,1.6-2.1C10.3,10.6,9.3,9.5,8,9.1C7.7,9.1,7.5,9.1,7.2,9.1l-0.1,0L7,9.1C7,9.1,6.9,9.1,6.9,9.1z"/>
	<rect x="5.6" y="11.5" fill="#3B4A51" width="3.2" height="0.7"/>
	<polygon fill="#3B4A51" points="17.1,13.2 16.2,13.2 16.2,12.3 15.3,12.3 15.3,11.4 16.2,11.4 16.2,10.5 17.1,10.5 17.1,11.4 
		18,11.4 18,12.3 17.1,12.3 	"/>
</g>
</svg>
