<?xml version="1.0" encoding="utf-8"?>
<!-- Generator: Adobe Illustrator 23.1.1, SVG Export Plug-In . SVG Version: 6.00 Build 0)  -->
<svg version="1.0" xmlns="http://www.w3.org/2000/svg" xmlns:xlink="http://www.w3.org/1999/xlink" x="0px" y="0px" width="29.2px"
	 height="25.5px" viewBox="0 0 29.2 25.5" enable-background="new 0 0 29.2 25.5" xml:space="preserve">
<g id="Border">
	<path fill="#D0CECE" d="M21.9,25.4H7.3L0,12.7L7.3,0.1h14.6l7.3,12.6L21.9,25.4z M7.9,24.4h13.4L28,12.7L21.3,1.1H7.9L1.2,12.7
		L7.9,24.4z"/>
</g>
<g id="Icon">
	<g>
		<path d="M6.6,16.5c0.4,0,0.8,0,1.3,0c0-2.5,0-5,0-7.5C7.4,9,7,9,6.6,9C6.6,11.5,6.6,14,6.6,16.5z"/>
		<path d="M8.6,16.5c0.4,0,0.8,0,1.3,0c0-2.5,0-5,0-7.5C9.5,9,9.1,9,8.6,9C8.6,11.5,8.6,14,8.6,16.5z"/>
		<path d="M10.8,16.5c0.4,0,0.8,0,1.3,0c0-2.5,0-5,0-7.5c-0.5,0-0.8,0-1.3,0C10.8,11.5,10.8,14,10.8,16.5z"/>
		<path d="M12.9,16.5c0.4,0,0.8,0,1.3,0c0-2.5,0-5,0-7.5c-0.5,0-0.9,0-1.3,0C12.9,11.5,12.9,14,12.9,16.5z"/>
		<path fill="#848484" d="M15,15.3c0,0.4,0,0.8,0,1.2c2.5,0,5.1,0,7.6,0c0-0.4,0-0.8,0-1.2C20,15.3,17.5,15.3,15,15.3z"/>
		<path fill="#848484" d="M22.6,9c-2.5,0-5,0-7.6,0c0,0.4,0,0.8,0,1.2c2.5,0,5,0,7.6,0C22.6,9.7,22.6,9.4,22.6,9z"/>
		<path fill="#848484" d="M22.6,12.3c0-0.4,0-0.8,0-1.2c-2.5,0-5,0-7.6,0c0,0.4,0,0.8,0,1.2C17.6,12.3,20.1,12.3,22.6,12.3z"/>
		<path fill="#848484" d="M22.6,13.2c-2.5,0-5,0-7.6,0c0,0.4,0,0.8,0,1.2c2.6,0,5,0,7.6,0C22.6,13.9,22.6,13.6,22.6,13.2z"/>
	</g>
</g>
</svg>
