<?xml version="1.0" encoding="utf-8"?>
<!-- Generator: Adobe Illustrator 23.1.1, SVG Export Plug-In . SVG Version: 6.00 Build 0)  -->
<svg version="1.0" xmlns="http://www.w3.org/2000/svg" xmlns:xlink="http://www.w3.org/1999/xlink" x="0px" y="0px" width="24px"
	 height="24px" viewBox="0 0 24 24" enable-background="new 0 0 24 24" xml:space="preserve">
<g id="Border" display="none">
	<path display="inline" fill="#D3D3D3" d="M19.3,24.6H4.7L-2.6,12L4.7-0.6h14.6L26.6,12L19.3,24.6z M5.3,23.6h13.4L25.4,12L18.7,0.4
		H5.3L-1.4,12L5.3,23.6z"/>
</g>
<g id="Icon">
	<rect x="7.7" y="15.3" fill="#898989" width="2.4" height="3.5"/>
	<polygon fill="#898989" points="8.5,5.1 16.3,5.1 16.3,8.9 7.7,8.9 	"/>
	<rect x="10" y="8.9" fill="#898989" width="3.8" height="6.4"/>
	<polygon fill="#3B4A51" points="10,8.9 10.3,5.1 13.8,8.9 	"/>
	<polygon fill="#3B4A51" points="13.8,15.3 10,15.3 10,18.9 16.3,18.9 16.3,15.3 	"/>
</g>
</svg>
