<?xml version="1.0" encoding="utf-8"?>
<!-- Generator: Adobe Illustrator 23.1.1, SVG Export Plug-In . SVG Version: 6.00 Build 0)  -->
<svg version="1.0" xmlns="http://www.w3.org/2000/svg" xmlns:xlink="http://www.w3.org/1999/xlink" x="0px" y="0px" width="24px"
	 height="24px" viewBox="0 0 24 24" enable-background="new 0 0 24 24" xml:space="preserve">
<g id="Border" display="none">
	<path display="inline" fill="#D3D3D3" d="M19.3,24.6H4.7L-2.6,12L4.7-0.6h14.6L26.6,12L19.3,24.6z M5.3,23.6h13.4L25.4,12L18.7,0.4
		H5.3L-1.4,12L5.3,23.6z"/>
</g>
<g id="Icon">
	<g>
		<path fill="#3B4A51" d="M14.9,17.8h1.6v-6.6c0,0,0.3-0.2,0.9-0.2c0.6,0,1.2,0,1.2,0V9.3c0,0-1.5-0.1-2.4,0.1
			c-0.8,0.2-1.4,0.6-1.4,0.6S15,17.7,14.9,17.8z"/>
	</g>
	<g>
		<path fill="#3B4A51" d="M10.1,6.2H6.5v11.4h1.6l0.1-3.9h1.6c0,0,3.4-0.4,3.4-3.8S10.1,6.2,10.1,6.2z M9.5,11.9H8.1V8.1L9.9,8
			c0,0,1.5,0.1,1.5,1.9S9.5,11.9,9.5,11.9z"/>
	</g>
</g>
</svg>
