<?xml version="1.0" encoding="utf-8"?>
<!-- Generator: Adobe Illustrator 23.1.1, SVG Export Plug-In . SVG Version: 6.00 Build 0)  -->
<svg version="1.0" xmlns="http://www.w3.org/2000/svg" xmlns:xlink="http://www.w3.org/1999/xlink" x="0px" y="0px" width="24px"
	 height="24px" viewBox="0 0 24 24" enable-background="new 0 0 24 24" xml:space="preserve">
<g id="Border" display="none">
	<g display="inline">
		<path fill="#D3D3D3" d="M18.7,0.4L25.4,12l-6.7,11.6H5.3L-1.4,12L5.3,0.4H18.7 M19.3-0.6H4.7L-2.6,12l7.3,12.6h14.6L26.6,12
			L19.3-0.6L19.3-0.6z"/>
	</g>
</g>
<g id="Icon">
	<g>
		<polygon fill="#D3D3D3" points="18.7,12.8 18.7,4.4 15.2,7.1 15.2,12.8 		"/>
		<polygon fill="#D3D3D3" points="15.2,17 15.2,17 15.3,17 		"/>
		<polygon fill="#D3D3D3" points="13.2,12.8 15.1,12.8 6,5.8 4.6,6.5 13,14.8 		"/>
	</g>
	<path fill="none" stroke="#F20A7E" stroke-miterlimit="10" d="M22.4,14.5"/>
	<polygon fill="#898989" points="15.2,2.9 6.1,12.1 6.1,7.9 4.6,6.5 4.6,13.5 6.1,14.2 18.7,4.4 	"/>
	<g>
		<path fill="#3B4A51" d="M10,15.2c-0.2-0.7-0.6-1.1-1.3-1.1c-1,0-1.5,0.8-1.5,2.1c0,1.3,0.6,2.1,1.6,2.1c0.4,0,0.8-0.2,1-0.5
			c0.1-0.2,0.2-0.4,0.2-0.7l1.7,0.2c-0.2,0.7-0.3,1.1-0.7,1.5c-0.5,0.6-1.3,0.9-2.2,0.9c-1,0-1.8-0.3-2.4-0.9
			c-0.6-0.6-0.9-1.5-0.9-2.6c0-1.1,0.3-2,1-2.6c0.6-0.5,1.4-0.8,2.3-0.8c1,0,1.8,0.4,2.4,1c0.3,0.3,0.4,0.6,0.5,1.1L10,15.2z"/>
		<path fill="#3B4A51" d="M15.5,12.9l-0.3,1.6h0.9l0.3-1.6h1.2l-0.3,1.6h0.9v1.1h-1.1l-0.2,1.2h0.9v1.1h-1l-0.3,1.7h-1.2l0.3-1.7
			h-0.9l-0.3,1.7h-1.2l0.3-1.7h-0.9v-1.1h1.1l0.2-1.2H13v-1.1h1.1l0.3-1.6H15.5z M14.9,16.8h0.9l0.2-1.2h-0.9L14.9,16.8z"/>
	</g>
</g>
</svg>
