<?xml version="1.0" encoding="utf-8"?>
<!-- Generator: Adobe Illustrator 23.1.1, SVG Export Plug-In . SVG Version: 6.00 Build 0)  -->
<svg version="1.0" xmlns="http://www.w3.org/2000/svg" xmlns:xlink="http://www.w3.org/1999/xlink" x="0px" y="0px" width="24px"
	 height="24px" viewBox="0 0 24 24" enable-background="new 0 0 24 24" xml:space="preserve">
<g id="Border" display="none">
	<g display="inline">
		<path fill="#D3D3D3" d="M18.7,0.4L25.4,12l-6.7,11.6H5.3L-1.4,12L5.3,0.4H18.7 M19.3-0.6H4.7L-2.6,12l7.3,12.6h14.6L26.6,12
			L19.3-0.6L19.3-0.6z"/>
	</g>
</g>
<g id="Icon">
	<path fill="none" stroke="#F20A7E" stroke-miterlimit="10" d="M22.4,14.5"/>
	<g>
		<polygon fill="#D3D3D3" points="18.7,3.2 15.2,5.9 15.2,11.8 6,4.6 4.6,5.3 15.2,15.9 18.8,14.5 		"/>
		<polygon fill="#898989" points="15.2,1.8 6.1,10.9 6.1,6.7 4.6,5.3 4.6,12.3 6.1,13 18.7,3.2 		"/>
	</g>
	<g>
		<path fill="#3B4A51" d="M8.1,14c-0.2-0.7-0.6-1.1-1.3-1.1c-1,0-1.5,0.8-1.5,2.1c0,1.3,0.6,2.1,1.6,2.1c0.4,0,0.8-0.2,1-0.5
			c0.1-0.2,0.2-0.4,0.2-0.7l1.7,0.2c-0.2,0.7-0.3,1.1-0.7,1.5c-0.5,0.6-1.3,0.9-2.2,0.9c-1,0-1.8-0.3-2.4-0.9C4,17,3.7,16.1,3.7,15
			c0-1.1,0.3-2,1-2.6c0.6-0.5,1.4-0.8,2.3-0.8c1,0,1.8,0.4,2.4,1c0.3,0.3,0.4,0.6,0.5,1.1L8.1,14z"/>
		<path fill="#3B4A51" d="M13.7,18.4h-1.3v-1.8h-1.8v-1.3h1.8v-1.8h1.3v1.8h1.8v1.3h-1.8V18.4z"/>
		<path fill="#3B4A51" d="M19.4,18.4H18v-1.8h-1.8v-1.3H18v-1.8h1.3v1.8h1.8v1.3h-1.8V18.4z"/>
	</g>
</g>
</svg>
