<?xml version="1.0" encoding="utf-8"?>
<!-- Generator: Adobe Illustrator 23.1.1, SVG Export Plug-In . SVG Version: 6.00 Build 0)  -->
<svg version="1.0" xmlns="http://www.w3.org/2000/svg" xmlns:xlink="http://www.w3.org/1999/xlink" x="0px" y="0px" width="29.2px"
	 height="25.5px" viewBox="0 0 29.2 25.5" enable-background="new 0 0 29.2 25.5" xml:space="preserve">
<g id="Border">
	<g>
		<path fill="#D0CECE" d="M21.3,1.1L28,12.7l-6.7,11.6H7.9L1.2,12.7L7.9,1.1H21.3 M21.9,0.1H7.3L0,12.7l7.3,12.6h14.6l7.3-12.6
			L21.9,0.1L21.9,0.1z"/>
	</g>
</g>
<g id="Icon">
	<path fill="none" stroke="#F20A7E" stroke-miterlimit="10" d="M25,15.3"/>
	<g>
		<polygon fill="#D7D7D7" points="21.3,5.1 21.3,16.4 17.8,14.1 17.8,7.8 		"/>
		<polygon fill="#D7D7D7" points="7.2,7.2 8.6,6.5 21.3,16.4 17.8,17.8 		"/>
		<polygon fill="#949494" points="21.3,5.1 17.8,3.7 7.2,14.2 8.7,15 		"/>
		<polygon fill="#949494" points="7.2,14.2 8.6,12.8 8.6,8.7 7.2,7.2 		"/>
	</g>
	<g>
		<path d="M13.3,13.6c-0.1,0.4-0.1,0.6-0.1,1.3v3.3c0,0.7-0.2,1.2-0.6,1.5c-0.4,0.4-1.1,0.6-1.8,0.6c-0.9,0-1.5-0.2-2-0.7
			c-0.2-0.3-0.3-0.5-0.5-0.9l1.6-0.5c0.2,0.6,0.4,0.8,0.9,0.8c0.5,0,0.8-0.3,0.8-0.8v-3.3c0-0.7,0-0.9-0.1-1.3H13.3z"/>
		<path d="M15.7,18.1c0,0.3,0.1,0.4,0.2,0.6c0.2,0.2,0.5,0.4,0.9,0.4c0.6,0,1-0.3,1-0.7c0-0.2-0.1-0.5-0.3-0.6
			c-0.2-0.1-0.4-0.1-1.2-0.3c-0.7-0.2-1-0.3-1.3-0.5c-0.5-0.4-0.8-0.9-0.8-1.5c0-1.2,1-2,2.6-2c1,0,1.8,0.3,2.2,0.9
			c0.2,0.3,0.3,0.5,0.4,1l-1.7,0.2c-0.1-0.5-0.4-0.7-1-0.7c-0.5,0-0.8,0.3-0.8,0.6c0,0.2,0.1,0.4,0.4,0.5c0.2,0.1,0.2,0.1,1.1,0.3
			c0.6,0.1,1,0.3,1.3,0.5c0.6,0.4,0.9,0.9,0.9,1.6c0,0.6-0.2,1.1-0.6,1.5c-0.5,0.4-1.2,0.7-2.1,0.7c-0.7,0-1.4-0.1-1.8-0.4
			c-0.4-0.2-0.7-0.6-0.9-1c-0.1-0.2-0.1-0.4-0.2-0.7L15.7,18.1z"/>
	</g>
</g>
</svg>
