<?xml version="1.0" encoding="utf-8"?>
<!-- Generator: Adobe Illustrator 23.1.1, SVG Export Plug-In . SVG Version: 6.00 Build 0)  -->
<svg version="1.0" xmlns="http://www.w3.org/2000/svg" xmlns:xlink="http://www.w3.org/1999/xlink" x="0px" y="0px" width="29.2px"
	 height="25.5px" viewBox="0 0 29.2 25.5" enable-background="new 0 0 29.2 25.5" xml:space="preserve">
<g id="Border">
	<path fill="#D0CECE" d="M21.9,25.4H7.3L0,12.7L7.3,0.1h14.6l7.3,12.6L21.9,25.4z M7.9,24.4h13.4L28,12.7L21.3,1.1H7.9L1.2,12.7
		L7.9,24.4z"/>
</g>
<g id="Icon">
	<g>
		<path d="M11.9,7H9.6L6.3,18.3h2.1l0.9-3.1H12l0.9,3.1H15L11.9,7z M9.5,13.5l1.1-4.3l1,4.3H9.5z"/>
	</g>
	<path d="M22.9,14.7v-1.8c0-1.9-1.4-3.2-3.5-3.2c-2.2,0-3.5,1.3-3.5,3.6v1.5c0,2.3,1.4,3.6,3.6,3.6c2.1,0,3.4-1.1,3.4-2.9v-0.2h-1.5
		l-0.2,0.1v0.2c0,1.2-1.2,1.3-1.7,1.3c-1.3,0-1.9-0.7-1.9-2.1v-0.2H22.9z M21.1,12.9v0.3h-3.6c0-1.3,0.6-1.9,1.9-1.9
		C20.6,11.3,21.1,11.8,21.1,12.9z"/>
</g>
</svg>
