<?xml version="1.0" encoding="utf-8"?>
<!-- Generator: Adobe Illustrator 23.1.1, SVG Export Plug-In . SVG Version: 6.00 Build 0)  -->
<svg version="1.0" xmlns="http://www.w3.org/2000/svg" xmlns:xlink="http://www.w3.org/1999/xlink" x="0px" y="0px" width="29.2px"
	 height="25.5px" viewBox="0 0 29.2 25.5" enable-background="new 0 0 29.2 25.5" xml:space="preserve">
<g id="Border" display="none">
	<path display="inline" fill="#D3D3D3" d="M21.9,25.4H7.3L0,12.7L7.3,0.1h14.6l7.3,12.6L21.9,25.4z M7.9,24.4h13.4L28,12.7L21.3,1.1
		H7.9L1.2,12.7L7.9,24.4z"/>
</g>
<g id="Icon">
	<path fill="#FFFFFF" d="M12.4,13c0.1-1.1,0.6-2.1,1.4-2.7c0.8-0.7,1.9-1.1,3-1.1c1.2,0,2.2,0.4,3,1.1c0.8,0.7,1.3,1.7,1.4,2.7
		c0.1,1.1-0.4,2.2-1.2,3c-0.8,0.8-2,1.3-3.3,1.3c-1.3,0-2.4-0.5-3.3-1.3C12.8,15.1,12.3,14.1,12.4,13z"/>
	<path fill="#3B4A51" d="M14.5,13.1c0-0.6,0.3-1.1,0.7-1.4c0.4-0.3,1-0.6,1.6-0.6c0.6,0,1.1,0.2,1.6,0.6c0.4,0.4,0.7,0.8,0.7,1.4
		c0,0.6-0.2,1.1-0.6,1.5c-0.4,0.4-1,0.7-1.7,0.7c-0.7,0-1.3-0.3-1.7-0.7C14.7,14.2,14.5,13.6,14.5,13.1z"/>
	<path fill="#898989" d="M10.9,14.2c0,0.2,0.1,0.6,0.2,1c0.2,0.7,0.6,1.4,1.1,1.9c0.5,0.6,1.2,1.1,2,1.4c0.8,0.4,1.7,0.5,2.6,0.5
		c0.9,0,1.8-0.2,2.6-0.5c0.8-0.3,1.4-0.8,2-1.4c0.5-0.6,0.9-1.2,1.1-1.9c0.1-0.4,0.2-0.7,0.2-1.1c0-0.4,0-0.7,0-1.1
		c-0.1-0.7-0.3-1.4-0.7-2c-0.3-0.5-0.8-1-1.3-1.4l0,0l-5.3-4c0,0,0,0,0,0c-0.3-0.3-0.9-0.3-1.3,0c-0.4,0.3-0.4,0.7-0.1,1l0,0
		l2.2,1.8l-6.7,0h0c-0.6,0-1.1,0.4-1.2,0.8C8.1,9.6,8.4,10,9,10l0,0l3.4,0l-6.1,4.7c0,0,0,0,0,0c-0.6,0.4-0.8,1.2-0.4,1.6
		c0.4,0.5,1.1,0.5,1.7,0l3.3-2.7C11,13.6,10.9,14,10.9,14.2z M19.4,15.4c-0.7,0.7-1.6,1.1-2.7,1.1c-1,0-2-0.4-2.7-1.1
		c-0.3-0.3-0.6-0.7-0.7-1.1c-0.1-0.4-0.2-0.8-0.2-1.3c0-0.4,0.2-0.8,0.4-1.2c0.2-0.4,0.5-0.7,0.8-1c0.7-0.5,1.5-0.8,2.4-0.8
		c0.9,0,1.7,0.3,2.4,0.8c0.3,0.3,0.6,0.6,0.8,1c0.2,0.4,0.3,0.8,0.4,1.2c0,0.4,0,0.9-0.2,1.3C20,14.7,19.7,15.1,19.4,15.4z"/>
</g>
</svg>
