<svg version="1.2" xmlns="http://www.w3.org/2000/svg">
    <symbol id="logo">
        <rect x="6.6" y="6.7" width="59.8" height="46.4"/>
        <rect x="19.9" y="19.9" width="6.6" height="19.9" fill="currentColor"/>
        <path d="M0,0v53.1h6.6V6.7h33.2v46.5H6.6v6.6H73V0H0z M66.4,53.1H53.1V6.7h13.3V53.1z" fill="currentColor"/>
    </symbol>

    <symbol id="news-matte">
        <polygon points="81.3,0 0,0 0,52.1 12.9,65 87.5,65 87.5,6.3"/>
    </symbol>
    
    <symbol id="news-hover">
        <polygon points="81.3,0 0,0 0,52.1 12.9,65 87.5,65 87.5,6.3"/>
    </symbol>

    <symbol id="news-border">
        <polygon points="88,66.1 13.3,66.1 13.3,65.1 87,65.1 87,7.3 80.8,1 0,1 0,0 81.2,0 88,6.9 "/>
    </symbol>

    <symbol id="news-highlight">
        <!-- no nighlight for news -->
    </symbol>

    <symbol id="news-icon">
        <polygon points="13.9,1.5 4.1,1.5 2,1.5 2,1.5 2,5.5 4.1,5.5 4.1,3.5 13.9,3.5 13.9,5.5 16,5.5 16,1.5"/>
        <polygon points="13.9,14.5 4.1,14.5 4.1,12.5 2,12.5 2,16.5 2,16.5 4.1,16.5 13.9,16.5 16,16.5 16,12.5 13.9,12.5"/>
        <rect x="6" y="5.5" width="6" height="1"/>
        <rect x="6" y="8.5" width="6" height="1"/>
        <rect x="6" y="11.5" width="6" height="1"/>
    </symbol>

    <symbol id="news-selection">
        <polygon points="16.3,61.9 5,50.5 5,13.9 12,13.9 12,9.9 5,9.9 0,9.9 0,13.9 0,52.7 13.2,65.9 17.3,65.9 23.1,65.9 23.1,61.9"/>
        <polygon points="74.9,13.9 74.9,9.9 81.9,9.9 86.9,9.9 86.9,13.9 86.9,61.9 86.9,65.9 81.9,65.9 74.9,65.9 74.9,61.9 81.9,61.9 81.9,13.9"/>
    </symbol>

    <symbol id="articles-icon">
        <polygon points="5.1,7.4 7,7.4 9,9.3 15,9.3 15,6.3 9,6.3 5.6,6.3 4,4.8 4,1.4 3,1.4 3,13.4 3.2,13.4 3.1,13.4 5.1,15.4 7,15.4 9,17.3 15,17.3 15,14.3 9,14.3 5.6,14.3 4,12.8 4,10.2 5.1,11.4 7,11.4 9,13.3 15,13.3 15,10.3 9,10.3 5.6,10.3 4,8.8 4,6.2"/>
    </symbol>

    <symbol id="projects-icon">
        <polygon points="1.5,10.9 1.5,14.9 5,17.9 8.5,14.9 8.5,10.9 5,7.9"/>
        <polygon points="13,7.9 9.5,10.9 9.5,14.9 13,17.9 16.5,14.9 16.5,10.9"/>
        <polygon points="12.5,3 9,0 5.5,3 5.5,7 9,10 12.5,7"/>
    </symbol>

    <symbol id="about-border">
        <polygon points="87,7 87,65 1,65 1,10 0,10 0,66 88,66 88,7 "/>
    </symbol>

    <symbol id="about-icon">
        <polygon points="11.4,4.5 9.5,4.5 9.5,1.7 8.5,1.7 8.5,4.5 6.6,4.5 6.6,9.3 11.4,9.3"/>
        <polygon points="13.3,11.2 13.3,13.1 11.4,13.1 11.4,11.2 7.3,11.2 4.7,8.6 4.7,4.5 0,4.5 0,9.3 4.1,9.3 6.6,11.8 6.6,15.9 11.4,15.9 11.4,14 13.3,14 13.3,15.9 18,15.9 18,11.2"/>
    </symbol>
    
    <symbol id="matte">
        <polygon points="87,65 87,6.4 80.7,0.1 6.4,0.1 0,6.3 0,65"/>
    </symbol>

    <symbol id="hover">
        <polygon points="87,65 87,6.4 80.7,0.1 6.4,0.1 0,6.3 0,65"/>
    </symbol>

    <symbol id="highlight">
        <rect x="1" y="7" width="1" height="58"/>
    </symbol>

    <symbol id="border">
        <path d="M88,66H0V6.8L6.8,0h74.4L88,6.8L88,66L88,66z M1,65h86V7.3L80.7,1H7.2L1,7.3V65z"/>
    </symbol>

    <symbol id="selection">
        <polygon points="13,14.1 13,10.1 1,10.1 1,66 13,66 13,62 6,62 6,14.1"/>
        <polygon points="75,14.1 75,10.1 87,10.1 87,66 75,66 75,62 82,62 82,14.1"/>
    </symbol>

    <symbol id="clock">
        <ellipse cx="8" cy="8" rx="6" ry="6" fill="white" stroke="darkgray" stroke-width="1.35"/>
        <line x1="8" y1="8" x2="8" y2="5" stroke="darkgray" stroke-width="1"/>
        <line x1="8" y1="8" x2="10.5" y2="10.5" stroke="darkgray" stroke-width="1"/>
    </symbol>

    <symbol id="submit">
        <rect width="1" height="8" stroke="none"/>
        <rect x="1" y="8" width="6" height="1" stroke="none"/>
        <path d="M6,7,3,4V2.87l2.6,2.6V.27h.8v5.2L9,2.87V4Z" stroke="none"/>
    </symbol>

    <symbol id="register">
        <rect x="4" width="2" height="1" stroke="none"/>
        <rect x="1" y="9" width="8" height="1" stroke="none"/>
        <rect x="2" y="7" width="6" height="1" stroke="none"/>
        <rect x="2" y="5" width="6" height="1" stroke="none"/>
        <rect y="2" width="1" height="7" stroke="none"/>
        <rect x="9" y="2" width="1" height="7" stroke="none"/>
        <polygon points="6 1 6 2 4 2 4 1 1 1 1 2 3 2 3 3 7 3 7 2 9 2 9 1 6 1" stroke="none"/>
    </symbol>

    <symbol id="cancel">
        <line x1="8" y1="0" x2="0" y2="8" fill="none"/>
        <line x1="0" y1="0" x2="8" y2="8" fill="none"/>
    </symbol>

    <symbol id="star">
        <polygon points="7.9,0 9.8,5.9 16,5.9 11,9.5 12.9,15.3 7.9,11.7 3,15.3 4.9,9.5 -0.1,5.9 6,5.9 " stroke="none"/>
    </symbol>

    <symbol id="view">
        <rect x="1" y="3" width="13" height="9" fill="none"/>
        <rect x="5" y="13" width="5" height="2" stroke="none"/>
    </symbol>
</svg>