<?xml version="1.0" encoding="utf-8"?>
<!-- Generator: Adobe Illustrator 21.1.0, SVG Export Plug-In . SVG Version: 6.00 Build 0)  -->
<svg version="1.1" id="Layer_1" xmlns="http://www.w3.org/2000/svg" xmlns:xlink="http://www.w3.org/1999/xlink" x="0px" y="0px"
	 viewBox="0 0 16 16" style="enable-background:new 0 0 16 16;" xml:space="preserve">
<g>
	<path d="M11.1,6.1c0,0.6,0,1.2,0,1.8c-0.7,0-1.4,0-2.2,0c0,1.8,0,3.6,0,5.5c-0.7,0-1.4,0-2.1,0c0-1.8,0-3.6,0-5.4
		C6.1,8,5.6,8,4.9,8c0-0.6,0-1.2,0-1.8c0.6,0,1.2,0,1.9,0c0-0.5,0-1,0-1.4C6.9,3.3,8,2.3,9.4,2.3c0.6,0,1.1,0,1.7,0c0,0.7,0,2,0,2
		l-1.5,0c-0.4,0-0.6,0.2-0.6,0.6c0,0.4,0,0.8,0,1.3C9.6,6.1,10.3,6.1,11.1,6.1z"/>
</g>
</svg>
