<?xml version="1.0" encoding="utf-8"?>
<!-- Generator: Adobe Illustrator 21.1.0, SVG Export Plug-In . SVG Version: 6.00 Build 0)  -->
<svg version="1.1" id="Layer_1" xmlns="http://www.w3.org/2000/svg" xmlns:xlink="http://www.w3.org/1999/xlink" x="0px" y="0px"
	 viewBox="0 0 16 16" style="enable-background:new 0 0 16 16;" xml:space="preserve">
<path d="M10.2,10.7c0.6,0.5,0.7,1,0.7,1.6c0,0.7,0,1.3,0,2c0,0.4,0.1,0.7,0.5,0.9c0.1,0.1,0.2,0.2,0.3,0.3c-0.2,0-0.4,0.1-0.6,0.1
	c-0.7-0.1-1-0.2-1-1.1c0-0.6,0-1.2,0-1.8c0-0.2-0.2-0.5-0.4-0.7c-0.1,0.1-0.1,0.2-0.1,0.3c0,0.8,0,1.6,0,2.3c0,0.3,0.1,0.6,0.3,0.8
	c0.1,0.1,0.1,0.3,0.2,0.4C10.1,16,10,16,10,16c-0.5,0-0.9-0.5-1-1C9,14.6,9,14.2,9,13.9c0-0.6,0-1.1,0-1.7c0-0.1,0-0.2,0-0.3
	c-0.2,0-0.4,0.2-0.4,0.3c0,0.8,0,1.7,0,2.5c0,0.4-0.1,0.7-0.4,1c-0.2,0.1-0.4,0.2-0.6,0.3c-0.1,0-0.2,0-0.3-0.1c0-0.1,0-0.1,0-0.1
	c0.5-0.4,0.5-1,0.6-1.5c0-0.7,0-1.4,0-2.2c-0.2,0.1-0.5,0.3-0.6,0.4c0,0.2,0,0.4,0,0.7c0,0.5,0,1,0,1.5c0,0.4,0,0.6-0.4,0.8
	c-0.4,0.2-0.7,0.3-1.2,0.1c0.2-0.2,0.3-0.3,0.4-0.4c0.3-0.2,0.4-0.4,0.4-0.7c0-0.4,0-0.9,0-1.3c-0.3,0-0.5,0-0.7,0
	c-1,0-1.7-0.3-2.1-1.3c-0.2-0.4-0.5-0.7-0.8-1c-0.1-0.1-0.2-0.2-0.3-0.3c0.1-0.1,0.2-0.1,0.3-0.1c0.4,0,0.8,0.1,1.1,0.5
	C4,11,4.1,11.2,4.3,11.4c0.6,0.7,1.3,0.8,2.1,0.4c0.2-0.4,0.4-0.7,0.6-1c-0.6-0.2-1.1-0.3-1.7-0.5C4,9.9,3.3,9,3,7.8
	C2.9,7,2.8,6.3,3,5.5C3,5.3,3.2,5,3.3,4.8C3.4,4.5,3.6,4.3,3.8,4C3.6,3.3,3.5,2.5,3.9,1.7c1-0.1,1.7,0.5,2.4,0.9
	c1.4-0.4,2.8-0.3,4.2-0.1c0.8-0.4,1.5-0.9,2.4-0.9c0.2,0.4,0.3,0.7,0.3,1.1c0,0.4,0,0.7-0.1,1.1c0.1,0.1,0.2,0.2,0.2,0.3
	c0.4,0.6,0.7,1.2,0.7,1.9c0.1,0.8,0,1.5-0.2,2.3c-0.2,0.9-0.8,1.5-1.6,1.8C11.7,10.5,11,10.6,10.2,10.7z"/>
</svg>
