<?xml version="1.0" encoding="utf-8"?>
<!-- Generator: Adobe Illustrator 21.1.0, SVG Export Plug-In . SVG Version: 6.00 Build 0)  -->
<svg version="1.1" id="Layer_1" xmlns="http://www.w3.org/2000/svg" xmlns:xlink="http://www.w3.org/1999/xlink" x="0px" y="0px"
	 viewBox="0 0 16 16" style="enable-background:new 0 0 16 16;" xml:space="preserve">
<path d="M0,8.2c0-2.7,2.5-5,5.2-5c1.3-0.1,2.5,0.5,3.5,1.3C8.3,5.1,7.8,5.5,7.4,5.9C6.2,5.1,4.5,4.9,3.3,5.8C1.6,7,1.5,9.8,3.2,11
	c1.6,1.4,4.6,0.7,5-1.5c-1,0-2,0-3,0c0-0.6,0-1.2,0-1.8c1.7,0,3.3,0,5,0c0.1,1.4-0.1,2.9-0.9,4c-1.3,1.8-3.9,2.4-5.9,1.6
	C1.3,12.6-0.2,10.4,0,8.2z"/>
<rect x="11.5" y="7.8" width="4.5" height="1.5"/>
<rect x="13" y="6.3" width="1.5" height="4.5"/>
</svg>
