<?xml version="1.0" encoding="utf-8"?>
<!-- Generator: Adobe Illustrator 21.1.0, SVG Export Plug-In . SVG Version: 6.00 Build 0)  -->
<svg version="1.1" id="Layer_1" xmlns="http://www.w3.org/2000/svg" xmlns:xlink="http://www.w3.org/1999/xlink" x="0px" y="0px"
	 viewBox="0 0 16 16" style="enable-background:new 0 0 16 16;" xml:space="preserve">
<path d="M3.5,1.7c0.6,0,1.1,0.3,1.2,0.8C5,3.2,4.6,4,3.8,4.1C3.2,4.2,2.6,4,2.4,3.5C2,2.7,2.4,1.7,3.4,1.7C3.4,1.7,3.5,1.7,3.5,1.7z
	"/>
<rect x="2.3" y="5.1" width="2.4" height="7.9"/>
<path d="M13.6,6.9c-0.2-0.8-0.7-1.3-1.4-1.7c-0.5-0.2-1-0.3-1.5-0.3C9.8,5,9.1,5.4,8.6,6.1c0,0-0.1,0.1-0.1,0.1c0,0,0,0,0,0
	c0-0.4-0.1-0.7-0.1-1.1c-0.7,0-1.4,0-2.1,0V13h2.5V9.5h0c0-0.4,0-0.9,0-1.3c0-0.8,0.6-1.3,1.4-1.3c0.5,0,0.8,0.3,1,0.8
	s0.2,1.1,0.2,1.1V13h2.4c0,0,0-4.6,0-4.7C13.8,7.8,13.7,7.4,13.6,6.9z"/>
</svg>
