<?xml version="1.0" encoding="utf-8"?>
<!-- Generator: Adobe Illustrator 21.1.0, SVG Export Plug-In . SVG Version: 6.00 Build 0)  -->
<svg version="1.1" id="Layer_1" xmlns="http://www.w3.org/2000/svg" xmlns:xlink="http://www.w3.org/1999/xlink" x="0px" y="0px"
	 viewBox="0 0 16 16" style="enable-background:new 0 0 16 16;" xml:space="preserve">
<path d="M8.1,14.4C6.2,14.3,4.7,14,3.4,13c-0.6-0.4-1.1-0.9-1.4-1.6c-0.3-0.6-0.4-1.2-0.3-1.8c0.1-0.3,0-0.5-0.3-0.7
	c-1-0.8-0.6-2.1,0.4-2.5c0.5-0.2,0.9-0.1,1.3,0.2c0.2,0.2,0.4,0.2,0.7,0c0.9-0.6,1.9-0.8,2.9-1c0.1,0,0.3,0,0.4,0
	c0.4,0,0.4-0.1,0.5-0.4c0.1-0.5,0.2-1,0.3-1.5C8.2,3,8.3,2.3,8.5,1.6C8.5,1.3,8.7,1.3,9,1.3c0.8,0.2,1.6,0.3,2.4,0.5
	c0.3,0.1,0.4,0,0.6-0.2c0.3-0.3,0.6-0.4,1.1-0.3c0.4,0.1,0.7,0.4,0.8,0.8c0.1,0.5-0.2,1.1-0.7,1.3c-0.5,0.1-1.1-0.1-1.3-0.6
	c0-0.1-0.1-0.2-0.1-0.3c0-0.2-0.2-0.3-0.4-0.3c-0.7-0.2-1.4-0.3-2.1-0.5C9,1.7,8.9,1.8,8.8,2C8.7,2.8,8.5,3.6,8.3,4.3
	C8.2,4.6,8.2,4.8,8.2,5C8,5.6,8,5.6,8.6,5.6c1,0.1,1.9,0.3,2.8,0.8c0.2,0.1,0.3,0.2,0.5,0.3c0.2,0.1,0.3,0.1,0.5,0
	c0.3-0.2,0.6-0.3,0.9-0.3c0.7,0,1.1,0.4,1.4,0.9c0.2,0.6,0.1,1.1-0.3,1.5c-0.1,0.1-0.2,0.2-0.3,0.2C14,9.2,13.9,9.3,14,9.4
	c0.2,1.1-0.2,2-0.9,2.8c-0.9,1-2,1.6-3.3,1.9C9.2,14.3,8.8,14.4,8.1,14.4z M4,9.4c0,0.7,0.6,1.3,1.2,1.2c0.7,0,1.2-0.6,1.2-1.3
	c0-0.6-0.7-1.3-1.3-1.2C4.5,8.2,4.1,8.7,4,9.4z M11.6,9.4c0-0.7-0.5-1.3-1.3-1.3c-0.7,0-1.1,0.5-1.2,1.2c-0.1,0.6,0.6,1.3,1.3,1.3
	C11.1,10.6,11.6,10.2,11.6,9.4z M7.8,13c0.8,0,1.4-0.1,2.1-0.4c0.2-0.1,0.4-0.3,0.6-0.4c0.1-0.1,0.1-0.3,0-0.4
	c-0.1-0.1-0.2-0.2-0.4-0.1c-0.1,0.1-0.2,0.1-0.4,0.2c-0.2,0.1-0.4,0.3-0.7,0.3c-1.1,0.2-2.3,0.3-3.3-0.4c-0.1,0-0.1-0.1-0.2-0.1
	c-0.2-0.1-0.3,0-0.4,0.1c-0.1,0.1-0.1,0.3,0,0.4c0.2,0.2,0.4,0.3,0.6,0.4C6.4,12.9,7.1,13.1,7.8,13z"/>
</svg>
