<?xml version="1.0" encoding="utf-8"?>
<!-- Generator: Adobe Illustrator 21.1.0, SVG Export Plug-In . SVG Version: 6.00 Build 0)  -->
<svg version="1.1" id="Layer_1" xmlns="http://www.w3.org/2000/svg" xmlns:xlink="http://www.w3.org/1999/xlink" x="0px" y="0px"
	 viewBox="0 0 16 16" style="enable-background:new 0 0 16 16;" xml:space="preserve">
<path d="M5.2,14.3c5.7,0,8.8-4.7,8.8-8.8c0-0.1,0-0.3,0-0.4c0.6-0.4,1.2-0.6,1.5-1.6c-0.6,0.2-1.7,0.8-2.3,0.6
	c0.6-0.4,1.9-0.9,1.9-1.8c-0.6,0.4-1.3,0.6-2,0.8c-0.6-0.6-1.4-1-2.3-1c-1.7,0-3.1,1.4-3.1,3.1c0,0.2,0,0.5,0.1,0.7
	C5.3,5.8,3,4.5,1.5,2.6c-0.3,0.5-0.4,1-0.4,1.6c0,1.1,0.5,2,1.4,2.6c-0.5,0-1-0.2-1.4-0.4c0,0,0,0,0,0c0,1.5,1.1,2.7,2.5,3
	C3.3,9.5,3,9.6,2.7,9.6c-0.2,0-0.4,0-0.6-0.1c0.4,1.2,1.5,2.1,2.9,2.1C4,12.5,2.6,13,1.2,13c-0.2,0-0.5,0-0.7,0
	C1.8,13.8,3.5,14.3,5.2,14.3"/>
</svg>
