<?xml version="1.0" encoding="utf-8"?>
<svg version="1.1" xmlns="http://www.w3.org/2000/svg" width="30px" height="30px" viewBox="0 0 30 30" xml:space="preserve">
<path class="fill-none stroke-foreground" d="M18.3,9.9c2.2,0,3.9-1.8,3.9-3.9S20.5,2,18.3,2c-1.3,0-3.3,1.3-5,1.3S9.5,2,8.2,2C6.1,2,4.3,3.8,4.3,5.9
	s1.8,3.9,3.9,3.9c1.3,0,3.2-1.3,5-1.3S17,9.9,18.3,9.9z"/>
<path class="fill-none stroke-foreground" d="M18.3,28.4c2.2,0,3.9-1.8,3.9-3.9s-1.8-3.9-3.9-3.9c-1.3,0-3.3,1.3-5,1.3s-3.7-1.3-5-1.3
	c-2.2,0-3.9,1.8-3.9,3.9s1.8,3.9,3.9,3.9c1.3,0,3.2-1.3,5-1.3S17,28.4,18.3,28.4z"/>
<path class="fill-none stroke-background" d="M23.1,19.1c2.2,0,3.9-1.8,3.9-3.9s-1.8-3.9-3.9-3.9c-1.3,0-3.3,1.3-5,1.3s-3.7-1.3-5-1.3
	c-2.2,0-3.9,1.8-3.9,3.9s1.8,3.9,3.9,3.9c1.3,0,3.2-1.3,5-1.3C19.9,17.9,21.8,19.1,23.1,19.1z"/>
</svg>
