<?xml version="1.0" encoding="utf-8"?>
<svg version="1.1" xmlns="http://www.w3.org/2000/svg" width="24px" height="24px" viewBox="0 0 24 24" xml:space="preserve">
	<path class="fill-none stroke-foreground" d="M14.5,7.2c1.9,0,3.4-1.5,3.4-3.4s-1.5-3.4-3.4-3.4c-1.1,0-2.8,1.1-4.3,1.1S7,0.5,5.9,0.5C4,0.5,2.5,2,2.5,3.9
		S4,7.2,5.9,7.2c1.1,0,2.7-1.1,4.3-1.1S13.4,7.2,14.5,7.2z"/>
	<path class="fill-none stroke-foreground" d="M14.5,23.1c1.9,0,3.4-1.5,3.4-3.4s-1.5-3.4-3.4-3.4c-1.1,0-2.8,1.1-4.3,1.1S7,16.4,5.9,16.4
		c-1.9,0-3.4,1.5-3.4,3.4s1.5,3.4,3.4,3.4c1.1,0,2.7-1.1,4.3-1.1S13.4,23.1,14.5,23.1z"/>
	<path class="fill-none stroke-background" d="M18.6,15.2c1.9,0,3.4-1.5,3.4-3.4s-1.5-3.4-3.4-3.4c-1.1,0-2.8,1.1-4.3,1.1S11.1,8.4,10,8.4
		c-1.9,0-3.4,1.5-3.4,3.4s1.5,3.4,3.4,3.4c1.1,0,2.7-1.1,4.3-1.1S17.5,15.2,18.6,15.2z"/>
</svg>
