<?xml version="1.0" encoding="utf-8"?>
<svg version="1.1" xmlns="http://www.w3.org/2000/svg" width="24px" height="24px" viewBox="0 0 24 24" xml:space="preserve">
<path class="fill-none stroke-foreground" d="M14.8,7.9c1.7,0,3.1-1.4,3.1-3.1s-1.4-3.1-3.1-3.1c-1,0-2.6,1-4,1s-3-1-4-1C5,1.6,3.6,3.1,3.6,4.8
	S5,7.9,6.7,7.9c1,0,2.5-1,4-1S13.7,7.9,14.8,7.9z"/>
<path class="fill-none stroke-foreground" d="M14.8,22.8c1.7,0,3.1-1.4,3.1-3.1s-1.4-3.1-3.1-3.1c-1,0-2.6,1-4,1s-3-1-4-1c-1.7,0-3.1,1.4-3.1,3.1
	s1.4,3.1,3.1,3.1c1,0,2.5-1,4-1S13.7,22.8,14.8,22.8z"/>
<path class="fill-none stroke-background" d="M18.6,15.4c1.7,0,3.1-1.4,3.1-3.1s-1.4-3.1-3.1-3.1c-1,0-2.6,1-4,1s-3-1-4-1c-1.7,0-3.1,1.4-3.1,3.1
	s1.4,3.1,3.1,3.1c1,0,2.5-1,4-1S17.6,15.4,18.6,15.4z"/>
</svg>
