<?xml version="1.0" encoding="utf-8"?>
<svg version="1.1" xmlns="http://www.w3.org/2000/svg" width="24px" height="24px" viewBox="0 0 24 24" xml:space="preserve">
<path class="stroke-foreground fill-none" d="M16.6,6.9H7.2c-0.6,0-1-0.5-1-1V4.5c0-0.5,0.4-1,1-1h9.4c0.5,0,1,0.4,1,1v1.4C17.6,6.5,17.1,6.9,16.6,6.9z"/>
<path class="stroke-foreground fill-none" d="M16.6,20.5H7.2c-0.6,0-1-0.5-1-1v-1.4c0-0.6,0.4-1,1-1h9.4c0.5,0,1,0.4,1,1v1.4C17.6,20,17.1,20.5,16.6,20.5z"/>
<path class="stroke-foreground fill-none" d="M16.6,13.7H7.2c-0.6,0-1-0.4-1-1v-1.4c0-0.6,0.4-1,1-1h9.4c0.5,0,1,0.4,1,1v1.4C17.6,13.3,17.1,13.7,16.6,13.7z"/>
<path class="stroke-background fill-none" d="M18.2,15.4H5.5c-0.6,0-1-0.5-1-1V9.6c0-0.5,0.4-1,1-1h12.7c0.5,0,1,0.5,1,1v4.8C19.2,15,18.8,15.4,18.2,15.4z"/>
</svg>
