<?xml version="1.0" encoding="utf-8"?>
<svg version="1.1" xmlns="http://www.w3.org/2000/svg" width="30px" height="30px" viewBox="0 0 30 30" xml:space="preserve">
<path class="stroke-foreground fill-none" d="M22.4,7.4H7.3c-0.6,0-1-0.5-1-1V3.2c0-0.5,0.4-1,1-1h15.1c0.5,0,1,0.5,1,1v3.2C23.4,6.9,23,7.4,22.4,7.4z"/>
<path class="stroke-foreground fill-none" d="M22.4,27.8H7.3c-0.6,0-1-0.5-1-1v-3.2c0-0.5,0.4-1,1-1h15.1c0.5,0,1,0.5,1,1v3.2C23.4,27.3,23,27.8,22.4,27.8z"/>
<path class="stroke-foreground fill-none" d="M22.4,17.6H7.3c-0.6,0-1-0.5-1-1v-3.2c0-0.6,0.4-1,1-1h15.1c0.5,0,1,0.4,1,1v3.2C23.4,17.1,23,17.6,22.4,17.6z"/>
<path class="stroke-background fill-none" d="M24.9,20.1H4.8c-0.6,0-1-0.4-1-1v-8.3c0-0.5,0.4-1,1-1h20.1c0.5,0,1,0.5,1,1v8.3C25.9,19.7,25.4,20.1,24.9,20.1z"/>
</svg>
