<?xml version="1.0" encoding="utf-8"?>
<!-- Generator: Adobe Illustrator 23.1.1, SVG Export Plug-In . SVG Version: 6.00 Build 0)  -->
<svg version="1.1" xmlns="http://www.w3.org/2000/svg" xmlns:xlink="http://www.w3.org/1999/xlink" x="0px" y="0px"
	 width="24px" height="24px" viewBox="0 0 24 24" style="enable-background:new 0 0 24 24;" xml:space="preserve">
<path class="stroke-foreground fill-none" d="M17.7,5.9H6c-0.6,0-1-0.4-1-1V2.8c0-0.5,0.4-1,1-1h11.7c0.6,0,1,0.4,1,1v2.1C18.7,5.4,18.3,5.9,17.7,5.9z"/>
<path class="stroke-foreground fill-none" d="M17.7,22.2H6c-0.6,0-1-0.5-1-1v-2.1c0-0.5,0.4-1,1-1h11.7c0.6,0,1,0.5,1,1v2.1C18.7,21.8,18.3,22.2,17.7,22.2z"
	/>
<path class="stroke-foreground fill-none" d="M17.7,14H6c-0.6,0-1-0.4-1-1v-2.1c0-0.5,0.4-1,1-1h11.7c0.6,0,1,0.5,1,1V13C18.7,13.6,18.3,14,17.7,14z"/>
<path class="stroke-background fill-none" d="M19.7,16.1H4c-0.6,0-1-0.4-1-1V8.9c0-0.6,0.5-1,1-1h15.6c0.6,0,1,0.4,1,1v6.2C20.7,15.6,20.2,16.1,19.7,16.1z"
	/>
</svg>
