<?xml version="1.0" encoding="utf-8"?>
<svg version="1.1" xmlns="http://www.w3.org/2000/svg" width="119px" height="48px" viewBox="0 0 119 48" style="enable-background:new 0 0 119 48;" xml:space="preserve">
<g class="fill-none stroke-border">
	<path d="M78.5,17.3l13.9,18.3v2.3H64.6v-2.3L78.5,17.3 M78.5,15.6L63.6,35.3v3.6h29.7v-3.6L78.5,15.6L78.5,15.6z"/>
	<path d="M41.8,17.3l13.9,18.3v2.3H27.9v-2.3L41.8,17.3 M41.8,15.6L26.9,35.3v3.6h29.7v-3.6L41.8,15.6L41.8,15.6z"/>
	<path d="M110.8,9.5v2.3L96.9,30.1L83,11.8V9.5H110.8 M111.8,8.5H82v3.6l14.9,19.7l14.9-19.7V8.5L111.8,8.5z"/>
	<path d="M74,9.5v2.3L60.1,30.1L46.3,11.8V9.5H74 M75,8.5H45.3v3.6l14.9,19.7L75,12.1V8.5L75,8.5z"/>
	<path d="M37.3,9.5v2.3L23.4,30.1L9.5,11.8V9.5H37.3 M38.3,8.5H8.5v3.6l14.9,19.7l14.9-19.7V8.5L38.3,8.5z"/>
</g>
</svg>
