<?xml version="1.0" encoding="utf-8"?>
<svg version="1.1" xmlns="http://www.w3.org/2000/svg" width="36px" height="36px" viewBox="0 0 36 36" xml:space="preserve">
	<circle class="stroke-foreground fill-none" stroke-linecap="round" cx="17.7" cy="11.7" r="3.3"/>
	<path class="stroke-background fill-none" stroke-linecap="round" d="M26.4,20.9c-2.5,1.6-5.5,2.5-8.7,2.5c-2.4,0-4.7-0.5-6.7-1.4"/>
	<path class="fill-foreground stroke-none" d="M16.6,8.4V6.3c0-0.6,0.5-1.1,1.1-1.1c0.6,0,1.1,0.5,1.1,1.1v2.1H16.6z"/>
	<polygon class="fill-foreground stroke-none" points="20.1,13.7 18.3,14.8 25.3,26.5 26.5,28.4 27.1,25.4 "/>
	<polygon class="fill-foreground stroke-none" points="15.2,13.7 8.2,25.4 8.9,28.4 10,26.5 17,14.8 "/>
	<line class="stroke-foreground fill-none" stroke-width="2" stroke-linecap="round" x1="17.5" y1="21.7" x2="17.5" y2="24.9"/>
</svg>
