<?xml version="1.0" encoding="utf-8"?>
<svg version="1.0" xmlns="http://www.w3.org/2000/svg" width="36px" height="36px" viewBox="0 0 36 36" xml:space="preserve">
	<path class="fill-background stroke-none" d="M13.9,12.7c-1.8-1.8-4.7-1.8-6.5,0s-1.8,4.7,0,6.4c1.1,1,3.8,1.7,5.1,3.1s2.1,4.1,3.1,5.1c1.8,1.8,4.6,1.8,6.4,0
		s1.8-4.6,0-6.4c-1-1.1-3.6-1.5-5.1-3.1S14.9,13.7,13.9,12.7z M8.9,14.2c1.1-1.1,2.6-1.1,3.6,0c1.1,1,1.1,2.6,0,3.6s-2.5,1-3.6,0
		S8,15,8.9,14.2z M20.6,25.8c-1,1.1-2.5,1.1-3.6,0s-1-2.5,0-3.6s2.5-1,3.6,0C21.7,23.3,21.7,24.8,20.6,25.8z"/>
	<path class="fill-foreground stroke-none" d="M30.6,19.1c1.8-1.8,1.8-4.6,0-6.4s-4.7-1.8-6.5,0c-1,1.1-1.6,3.8-3.1,5.1c-1.5,1.4-4,2.1-5.1,3.1c-1.8,1.8-1.8,4.7,0,6.5
		s4.6,1.8,6.5,0c1-1.1,1.5-3.6,3.1-5.1C26.8,20.8,29.5,20.1,30.6,19.1z M29.1,14.2c1.1,1,1.1,2.6,0,3.6s-2.6,1-3.6,0
		c-1-1-1-2.6,0-3.6C26.5,13.2,28,13.2,29.1,14.2z M17.3,25.8c-1-1.1-1-2.5,0-3.6c1.1-1,2.6-1,3.6,0s1,2.6,0,3.6
		C19.9,26.9,18.2,26.9,17.3,25.8z"/>
</svg>
