<?xml version="1.0" encoding="utf-8"?>
<svg version="1.0" xmlns="http://www.w3.org/2000/svg" width="36px" height="36px" viewBox="0 0 36 36" xml:space="preserve">
	<path class="fill-background stroke-none" d="M11.4,7.3c-1.8,0-3.3,1.5-3.3,3.3c0,1.2,0.6,2.2,1.7,2.8v10.8c-0.9,0.6-1.7,1.6-1.7,2.8c0,1.8,1.5,3.3,3.3,3.3
		s3.3-1.5,3.3-3.3c0-1.2-0.6-2.2-1.7-2.8V13.5c1.1-0.6,1.7-1.6,1.7-2.8C14.7,8.8,13.2,7.3,11.4,7.3z M11.4,28.6
		c-0.9,0-1.6-0.8-1.6-1.6c0-0.9,0.8-1.7,1.6-1.7S13,26.1,13,27C13,27.9,12.3,28.6,11.4,28.6z M11.4,12.3c-0.9,0-1.6-0.8-1.6-1.6
		c0-0.9,0.8-1.7,1.6-1.7S13,9.7,13,10.6C13,11.5,12.3,12.3,11.4,12.3z"/>
	<path class="fill-foreground stroke-none" d="M26.2,24.1V13.9c0-5-5-5-5-5h-1.7V5.7l-4.9,5l4.9,4.9v-3.3c0,0,0.8,0,1.7,0c1.5,0,1.6,1.7,1.6,1.7v10.4
		c-1,0.6-1.6,1.6-1.6,2.8c0,1.8,1.5,3.3,3.3,3.3s3.3-1.5,3.3-3.3C27.8,25.8,27.1,24.7,26.2,24.1z M24.6,28.6c-0.9,0-1.6-0.8-1.6-1.6
		c0-0.9,0.8-1.7,1.6-1.7c0.9,0,1.7,0.8,1.7,1.7C26.2,27.9,25.5,28.6,24.6,28.6z"/>
</svg>
