<?xml version="1.0" encoding="utf-8"?>
<svg version="1.0" xmlns="http://www.w3.org/2000/svg" width="36px" height="36px" viewBox="0 0 36 36" xml:space="preserve">
	<line class="stroke-foreground fill-none" x1="14.4" y1="26.9" x2="7.7" y2="26.9"/>
	<circle class="stroke-foreground fill-none" cx="17.5" cy="26.9" r="3.3"/>
	<line class="stroke-foreground fill-none" x1="23.9" y1="20.6" x2="20" y2="24.5"/>
	<path class="stroke-foreground fill-none" d="M27.5,12.3h-0.2c-2.7,0-4.8,2.1-4.8,4.8s2.1,4.8,4.8,4.8s4.8-2.1,4.8-4.8"/>
	<path class="fill-background stroke-none" d="M10.1,16.7c0,1.2-0.9,2.2-2.1,2.2s-2.1-1.1-2.1-2.2c0-1.2,0.9-2.3,2.1-2.3S10.1,15.3,10.1,16.7"/>
	<path class="fill-background stroke-none" d="M10.1,9c0,1.2-1.1,2.2-2.3,2.2s-2.1-1-2.1-2.2s0.9-2.2,2.1-2.2S10.1,7.8,10.1,9"/>
	<path class="fill-background stroke-none" d="M17.5,16.7c0,1.2-0.9,2.2-2.1,2.2c-1.2,0-2.1-1.1-2.1-2.2c0-1.2,0.9-2.3,2.1-2.3C16.5,14.4,17.5,15.3,17.5,16.7"/>
	<path class="fill-background stroke-none" d="M17.5,9c0,1.2-0.9,2.2-2.1,2.2c-1.4,0-2.2-1-2.2-2.2s0.9-2.2,2.1-2.2S17.5,7.8,17.5,9"/>
</svg>
