<?xml version="1.0" encoding="utf-8"?>
<svg version="1.1" xmlns="http://www.w3.org/2000/svg" width="64" height="64" viewBox="0 0 64 64">
	<g stroke-width="1.5" stroke-linecap="round" stroke-linejoin="round" stroke-miterlimit="10" class="stroke-background fill-none">
		<ellipse cx="54.8" cy="20.7" rx="1.4" ry="1.5"/>
		<ellipse cx="9.2" cy="45.2" rx="1.4" ry="1.5"/>
		<path d="M44.7,16.9L17,39.8c-0.7,0.5-1.5,0.8-2.3,0.8H9.3c-2.4,0-4.5,2-4.5,4.5c0,2.6,1.9,4.7,4.4,4.7h8.7
			c0.8,0,1.7-0.3,2.3-0.8l27.8-22.8c0.7-0.5,1.5-0.8,2.3-0.8l4.4,0c2.4,0,4.5-2,4.5-4.5c0-2.6-1.9-4.7-4.4-4.7H47
			C46.2,16.1,45.4,16.4,44.7,16.9z"/>
	</g>
	<g class="stroke-foreground" stroke-width="1.5">
		<polyline points="42.4,38 51,38.8 50.3,48.1 	"/>
		<line x1="51" y1="38.8" x2="34.9" y2="52.4"/>
	</g>
	<g class="fill-background">
		<ellipse cx="29" cy="14.8" rx="3" ry="3.2"/>
		<path d="M26,32.3v-9c0-1.8,1.3-3.2,3-3.2c1.7,0,3,1.4,3,3.2v4"/>
	</g>
</svg>
