<?xml version="1.0" encoding="utf-8"?>
<svg version="1.0" xmlns="http://www.w3.org/2000/svg" width="24" height="24" viewBox="0 0 24 24">
	<path display="inline" fill="#D3D3D3" d="M19.3,24.6H4.7L-2.6,12L4.7-0.6h14.6L26.6,12L19.3,24.6z M5.3,23.6h13.4L25.4,12L18.7,0.4
		H5.3L-1.4,12L5.3,23.6z"/>
	<path fill="#3B4A51" d="M15.1,10.1c0,0.6,0,1.2,0,1.8c-0.7,0-1.4,0-2.2,0c0,1.8,0,3.6,0,5.5c-0.7,0-1.4,0-2.1,0c0-1.8,0-3.6,0-5.4
		c-0.7,0-1.2,0-1.9,0c0-0.6,0-1.2,0-1.8c0.6,0,1.2,0,1.9,0c0-0.5,0-1,0-1.4c0.1-1.5,1.2-2.5,2.6-2.5c0.6,0,1.1,0,1.7,0
		c0,0.7,0,2,0,2h-1.5c-0.4,0-0.6,0.2-0.6,0.6c0,0.4,0,0.8,0,1.3C13.6,10.1,14.3,10.1,15.1,10.1z"/>
</svg>
