<?xml version="1.0" encoding="utf-8"?>
<svg version="1.1" xmlns="http://www.w3.org/2000/svg" width="36" height="36" viewBox="0 0 36 36">
<g stroke-linecap="round" stroke-linejoin="round" stroke-miterlimit="10">
	<path class="fill-foreground" d="M7.9,25.1c0.1-0.2,0.2-0.4,0.3-0.5c0.8-1.2,1.6-2.5,2.4-3.7c0.6-0.9,1.2-1.8,1.8-2.7c0.6-0.9,1.2-1.8,1.8-2.7
		c0-0.1,0-0.1,0-0.2c-0.3-0.8-0.5-1.6-0.8-2.4c0-0.1-0.1-0.2-0.2-0.2c-0.6,0-1.2,0-1.8,0c-0.1,0-0.2,0-0.2-0.2c0-0.7,0-1.5,0-2.2
		c0-0.1,0-0.2,0.2-0.2c1.2,0,2.5,0,3.7,0c0.1,0,0.2,0.1,0.2,0.1c0.4,1,0.8,1.9,1.1,2.9c0.6,1.4,1.1,2.8,1.7,4.2
		c0.6,1.4,1.1,2.9,1.7,4.3c0.2,0.4,0.3,0.8,0.5,1.1c0,0.1,0.1,0.1,0.2,0.1c0.6-0.2,1.2-0.4,1.9-0.6c0,0,0.1,0,0.2,0
		c0.2,0.8,0.5,1.5,0.7,2.3c-1.6,0.5-3.1,1-4.7,1.5c-1-2.5-2-5-3-7.6c-0.1,0.2-0.3,0.4-0.4,0.6c-0.9,1.3-1.7,2.5-2.6,3.8
		c-0.5,0.8-1,1.5-1.6,2.3c0,0.1-0.1,0.1-0.2,0.1C9.9,25.1,9,25.1,7.9,25.1C8,25.1,8,25.1,7.9,25.1z"/>
	<g class="stroke-background" stroke-width="1.5" stroke-linecap="round">
		<line x1="22.1" y1="10.5" x2="28.1" y2="10.5"/>
		<line x1="23.6" y1="17.3" x2="26.4" y2="17.3"/>
		<line x1="22.1" y1="13.8" x2="25.1" y2="13.8"/>
	</g>
</g>
</svg>
