<?xml version="1.0" encoding="utf-8"?>
<svg version="1.1" xmlns="http://www.w3.org/2000/svg" width="36px" height="36px" viewBox="0 0 36 36" style="enable-background:new 0 0 36 36;" xml:space="preserve">
<path class="fill-border stroke-none" d="M20.7,20.7c0.8,0.7,1,1.4,1,2.2c0,1,0,1.8,0,2.8c0,0.6,0.1,1,0.7,1.3c0.1,0.1,0.3,0.3,0.4,0.4
	c-0.3,0-0.6,0.1-0.8,0.1c-1-0.1-1.4-0.3-1.4-1.5c0-0.8,0-1.7,0-2.5c0-0.3-0.3-0.7-0.6-1c-0.1,0.1-0.1,0.3-0.1,0.4c0,1.1,0,2.2,0,3.2
	c0,0.4,0.1,0.8,0.4,1.1c0.1,0.1,0.1,0.4,0.3,0.6c0,0.3-0.1,0.3-0.1,0.3c-0.7,0-1.3-0.7-1.4-1.4c0-0.6,0-1.1,0-1.5c0-0.8,0-1.5,0-2.4
	c0-0.1,0-0.3,0-0.4c-0.3,0-0.6,0.3-0.6,0.4c0,1.1,0,2.4,0,3.5c0,0.6-0.1,1-0.6,1.4c-0.3,0.1-0.6,0.3-0.8,0.4c-0.1,0-0.3,0-0.4-0.1
	c0-0.1,0-0.1,0-0.1c0.7-0.6,0.7-1.4,0.8-2.1c0-1,0-2,0-3.1c-0.3,0.1-0.7,0.4-0.8,0.6c0,0.3,0,0.6,0,1c0,0.7,0,1.4,0,2.1
	c0,0.6,0,0.8-0.6,1.1c-0.6,0.3-1,0.4-1.7,0.1c0.3-0.3,0.4-0.4,0.6-0.6c0.4-0.3,0.6-0.6,0.6-1c0-0.6,0-1.3,0-1.8c-0.4,0-0.7,0-1,0
	c-1.4,0-2.4-0.4-2.9-1.8c-0.3-0.6-0.7-1-1.1-1.4c-0.1-0.1-0.3-0.3-0.4-0.4c0.1-0.1,0.3-0.1,0.4-0.1c0.6,0,1.1,0.1,1.5,0.7
	c0,0,0.1,0.3,0.4,0.6c0.8,1,1.8,1.1,2.9,0.6c0.3-0.6,0.6-1,0.8-1.4c-0.8-0.3-1.5-0.4-2.4-0.7c-1.8-0.6-2.8-1.8-3.2-3.5
	c-0.1-1.1-0.3-2.1,0-3.2c0-0.3,0.3-0.7,0.4-1c0.1-0.4,0.4-0.7,0.7-1.1c-0.3-1-0.4-2.1,0.1-3.2c1.4-0.1,2.4,0.7,3.4,1.3
	c2-0.6,3.9-0.4,5.9-0.1c1.1-0.6,2.1-1.3,3.4-1.3c0.3,0.6,0.4,1,0.4,1.5c0,0.6,0,1-0.1,1.5c0.1,0.1,0.3,0.3,0.3,0.4
	c0.6,0.8,1,1.7,1,2.7c0.1,1.1,0,2.1-0.3,3.2c-0.3,1.3-1.1,2.1-2.2,2.5C22.8,20.4,21.8,20.5,20.7,20.7z"/>
</svg>
