<?xml version="1.0" encoding="utf-8"?>
<svg version="1.1" xmlns="http://www.w3.org/2000/svg" width="36px" height="36px" viewBox="0 0 36 36" style="enable-background:new 0 0 36 36;" xml:space="preserve">
<path class="fill-foreground stroke-none" d="M10.9,17.7c0-3.8,3.5-7,7.3-7c1.8-0.1,3.5,0.7,4.9,1.8c-0.6,0.8-1.3,1.4-1.8,2c-1.7-1.1-4.1-1.4-5.7-0.1
	C13.1,16,13,20,15.3,21.6c2.2,2,6.4,1,7-2.1c-1.4,0-2.8,0-4.2,0c0-0.8,0-1.7,0-2.5c2.4,0,4.6,0,7,0c0.1,2-0.1,4.1-1.3,5.6
	c-1.8,2.5-5.5,3.4-8.3,2.2C12.7,23.9,10.6,20.8,10.9,17.7z"/>
</svg>
