<?xml version="1.0" encoding="utf-8"?>
<svg version="1.1" xmlns="http://www.w3.org/2000/svg" width="110px" height="83px" viewBox="0 0 110 83" xml:space="preserve">
<g class="navigation-background">
	<polygon points="101.6,0 0,0 0,65.1 16.1,81.2 109.4,81.2 109.4,7.9 	"/>
</g>
<g class="navigation-border">
	<polygon points="110,82.6 16.6,82.6 16.6,81.4 108.8,81.4 108.8,9.1 101,1.2 0,1.2 0,0 101.5,0 110,8.6 	"/>
</g>
<g class="navigation-selection">
	<polygon points="20.4,77.4 6.2,63.1 6.2,17.4 15,17.4 15,12.4 6.2,12.4 0,12.4 0,17.4 0,65.9 16.5,82.4 21.6,82.4 28.9,82.4 
		28.9,77.4 	"/>
	<polygon points="95,17.4 95,12.4 103.8,12.4 110,12.4 110,17.4 110,77.4 110,82.4 103.8,82.4 95,82.4 95,77.4 103.8,77.4 
		103.8,17.4 	"/>
</g>
</svg>
