<?xml version="1.0" encoding="utf-8"?>
<svg version="1.1" xmlns="http://www.w3.org/2000/svg" xmlns:xlink="http://www.w3.org/1999/xlink" width="110px" height="83px" viewBox="0 0 110 83" xml:space="preserve">
<g class="navigation-background">
	<polygon points="110,81.1 110,7.9 102.1,0 9.2,0 1.2,7.8 1.2,81.1 	"/>
</g>
<g class="navigation-border">
	<polygon points="108.8,8.6 108.8,81.1 1.2,81.1 1.2,12.4 0,12.4 0,82.4 110,82.4 110,8.6 	"/>
</g>
<g class="navigation-highlight">
	<rect x="1.2" y="8.6" width="1.2" height="72.5"/>
</g>
<g class="navigation-selection">
	<polygon points="16.2,17.5 16.2,12.5 1.2,12.5 1.2,82.4 16.2,82.4 16.2,77.4 7.5,77.4 7.5,17.5 	"/>
	<polygon points="93.8,17.5 93.8,12.5 108.8,12.5 108.8,82.4 93.8,82.4 93.8,77.4 102.5,77.4 102.5,17.5 	"/>
</g>
</svg>
