<?xml version="1.0" encoding="utf-8"?>
<svg version="1.1" xmlns="http://www.w3.org/2000/svg" width="88px" height="66px" viewBox="0 0 88 66" xml:space="preserve">
<g class="navigation-background">
	<polygon points="88,65 88,6.4 81.7,0.1 7.4,0.1 1,6.3 1,65 	"/>
</g>
<g class="navigation-border">
	<polygon points="87,7 87,65 1,65 1,10 0,10 0,66 88,66 88,7 	"/>
</g>
<g class="navigation-highlight">
	<rect x="1" y="7" width="1" height="58"/>
</g>
<g class="navigation-selection">
	<polygon points="13,14.1 13,10.1 1,10.1 1,66 13,66 13,62 6,62 6,14.1 	"/>
	<polygon points="75,14.1 75,10.1 87,10.1 87,66 75,66 75,62 82,62 82,14.1 	"/>
</g>
</svg>
