<?xml version="1.0" encoding="utf-8"?>
<svg version="1.1" xmlns="http://www.w3.org/2000/svg" height="83px" viewBox="0 0 110 83" xml:space="preserve">
<g class="navigation-background">
	<polygon points="110,81.2 110,8 102.1,0.1 9.2,0.1 1.2,7.9 1.2,81.2 	"/>
</g>
<g class="navigation-border">
	<path d="M110,82.5H0v-74L8.5,0h93l8.5,8.5V82.5L110,82.5z M1.2,81.2h107.5V9.1l-7.9-7.9H9L1.2,9.1V81.2z"/>
</g>
<g class="navigation-highlight">
	<rect x="1.2" y="8.8" width="1.2" height="72.5"/>
</g>
<g class="navigation-selection">
	<polygon points="16.2,17.6 16.2,12.6 1.2,12.6 1.2,82.5 16.2,82.5 16.2,77.5 7.5,77.5 7.5,17.6 	"/>
	<polygon points="93.8,17.6 93.8,12.6 108.8,12.6 108.8,82.5 93.8,82.5 93.8,77.5 102.5,77.5 102.5,17.6 	"/>
</g>
</svg>
