<?xml version="1.0" encoding="utf-8"?>
<svg version="1.1" xmlns="http://www.w3.org/2000/svg" width="40" height="40" viewBox="0 0 36 36">
<g class="fill-none" stroke-linecap="round" stroke-linejoin="round" stroke-miterlimit="10">
	<path class="stroke-background" d="M18.2,16c0,0,0.6-2.1-0.3-3.1c-0.9-0.9-3.6-3.6-3.6-3.6l-6.8,5.1c0,0,2.7,2.7,3.6,3.6c0.9,0.9,0.3,3.1,0.3,3.1"
		/>
	<path class="stroke-foreground" d="M13.5,21.5L21,16l9.9-0.2l-8.6,6.5l-7.5-0.8c0,0.1,0,0.2,0,0.3c-0.2,0.8-1,1.4-1.9,1.2c-0.9-0.2-1.5-1-1.4-1.8
		l-6.8-3.7l2.8-1.8"/>
	<g class="stroke-foreground">
		<line x1="11.8" y1="13.9" x2="14" y2="16.2"/>
		<line x1="13.7" y1="12.5" x2="15.9" y2="14.8"/>
	</g>
</g>
</svg>
