<?xml version="1.0" encoding="utf-8"?>
<svg version="1.1" xmlns="http://www.w3.org/2000/svg" width="40" height="40" viewBox="0 0 36 36">
<g stroke-linecap="round" stroke-linejoin="round" stroke-miterlimit="10">
	<g class="fill-none stroke-background">
		<line x1="11.5" y1="7.7" x2="5.6" y2="5.3"/>
		<line x1="5.6" y1="10.1" x2="9.8" y2="9.7"/>
	</g>
	<g class="fill-none stroke-background">
		<polyline points="24.1,20.1 31,16.2 24.1,12.2 17.2,8.2 10.4,12.2 3.5,16.2 10.4,20.1 	"/>
		<path d="M13.8,18.1c3.4,2,5.6,6.6,5.6,6.6"/>
		<line x1="6.9" y1="14.2" x2="13.8" y2="18.1"/>
		<line x1="13.9" y1="10.1" x2="27.7" y2="18.1"/>
		<line x1="10.4" y1="12.2" x2="24.1" y2="20.1"/>
		<path d="M24.1,20.1c0,0-2.7,2-3.8,3.3c-1.3,1.4-3.1,5.9-3.1,5.9s-1.8-4.5-3.1-5.9c-1.1-1.2-3.8-3.3-3.8-3.3l13.8-8"/>
		<line x1="21.1" y1="18.4" x2="28" y2="14.4"/>
		<path d="M15.1,24.7c0,0,2.3-4.6,6-6.3"/>
		<line x1="7.3" y1="18.4" x2="21.1" y2="10.4"/>
	</g>
	<g class="stroke-foreground fill-opaque">
		<ellipse cx="12.4" cy="10.1" rx="3.9" ry="3.6"/>
		<path d="M24.9,16.5L21.3,9c-0.2-0.3-0.6-0.3-0.8,0l-3.6,7.5l0,0c0,0.1,0,0.2,0,0.3c0,0.9,1.8,1.6,4.1,1.6
			s4.1-0.7,4.1-1.6C24.9,16.6,24.9,16.5,24.9,16.5"/>
	</g>
</g>
</svg>
