<?xml version="1.0" encoding="utf-8"?>
<svg version="1.1" xmlns="http://www.w3.org/2000/svg" width="36" height="36" viewBox="0 0 36 36">
<g stroke-linecap="round" stroke-linejoin="round" stroke-miterlimit="10">
	<g class="fill-none stroke-background--medium">
		<line class="st0" x1="13.1" y1="9" x2="7.5" y2="6.7"/>
		<line class="st0" x1="7.5" y1="11.2" x2="11.5" y2="10.9"/>
	</g>
	<g class="fill-none stroke-background">
		<polyline points="25,20.7 31.5,16.9 25,13.2 18.5,9.4 12,13.2 5.5,16.9 12,20.7 		"/>
		<path d="M15.2,18.8c3.3,1.9,5.3,6.2,5.3,6.2"/>
		<line x1="8.7" y1="15.1" x2="15.2" y2="18.8"/>
		<line x1="15.3" y1="11.2" x2="28.4" y2="18.8"/>
		<line x1="12" y1="13.2" x2="25" y2="20.7"/>
		<path d="M25,20.7c0,0-2.5,1.9-3.6,3.1c-1.2,1.3-2.9,5.6-2.9,5.6s-1.7-4.2-2.9-5.6c-1.1-1.2-3.6-3.1-3.6-3.1l13-7.5"/>
		<line x1="22.1" y1="19" x2="28.6" y2="15.3"/>
		<path d="M16.5,25c0,0,2.2-4.3,5.7-6"/>
		<line x1="9.1" y1="19" x2="22.1" y2="11.5"/>
	</g>
	<g class="stroke-foreground fill-opaque">
		<ellipse class="st1" cx="14" cy="11.2" rx="3.7" ry="3.4"/>
		<path class="st1" d="M25.7,17.2l-3.4-7.1c-0.1-0.3-0.6-0.3-0.7,0l-3.4,7.1l0,0c0,0.1,0,0.2,0,0.2c0,0.9,1.7,1.6,3.9,1.6
			s3.9-0.7,3.9-1.6C25.8,17.4,25.7,17.3,25.7,17.2"/>
	</g>
</g>
</svg>
