<?xml version="1.0" encoding="utf-8"?>
<svg version="1.1" xmlns="http://www.w3.org/2000/svg" width="32px" height="32px" viewBox="0 0 32 32" style="enable-background:new 0 0 32 32;" xml:space="preserve">
	<g className="fill-none stroke-foreground">
		<path d="M16.2,0.2c0,0-2.7,2.1-6.1,3.5S2.9,5.9,2.9,5.9c0,0.1,0,1.1,0,10c0,10.7,13.3,15.7,13.3,15.7s13.3-5,13.3-15.7
			c0-8.8,0-9.9,0-10c0,0-3.8-0.7-7.2-2.2S16.2,0.2,16.2,0.2z"/>
		<ellipse cx="16.2" cy="12.2" rx="4.2" ry="5.4"/>
		<path d="M7,22.8c0-3,2.3-5.6,5.2-6"/>
		<path d="M25,22.8c0-2.8-2-5.2-4.6-5.9"/>
	</g>
</svg>
