<?xml version="1.0" encoding="utf-8"?>
<svg version="1.0" xmlns="http://www.w3.org/2000/svg" width="36px" height="36px" viewBox="0 0 36 36" xml:space="preserve">
	<path class="fill-foreground stroke-none" d="M9,9v18h18V9H9z M12.8,26.4h-2.5v-2.7h2.7v2.7H12.8z M12.8,21.8h-2.5V19h2.7v2.7H12.8z M12.8,17.2h-2.5v-2.7h2.7v2.7H12.8z
		M12.8,12.8h-2.5V10h2.7v2.7H12.8z M21.8,18h-7.5v-1.5h7.3V18H21.8z M25.9,26.4h-2.7v-2.7h2.7V26.4z M25.9,21.8h-2.7V19h2.7V21.8z
		M25.9,17.2h-2.7v-2.7h2.7V17.2z M25.9,12.8h-2.7V10h2.7V12.8z"/>
</svg>
