<?xml version="1.0" encoding="utf-8"?>
<svg version="1.0" xmlns="http://www.w3.org/2000/svg" width="24px" height="24px" viewBox="0 0 24 24" enable-background="new 0 0 24 24" xml:space="preserve">
<g class="fill-none stroke-foreground">
	<path stroke-width="1.5" stroke-linecap="round" stroke-miterlimit="10" d="M16.6,14.9
		c-14.7,4.5-11-2.7-8.3-2.5c2.3,0.2,4.9-0.3,6.3-2"/>
	<path stroke-width="1.5" stroke-linecap="round" stroke-miterlimit="10" d="M8.6,16.6
		c1,2.6,6.5,2,10.5-0.4c1.5-0.9,5.9-4.7,3.6-8.2c-2.2-3.4-4.7-1.6-8.7-0.7c-2.5,0.6-3.6-0.6-7.4,1.9L5.9,9.7c-3.9,3-5.9,4.6-5,6
		c1.6,2.4,4.7-0.3,4.7-0.3s-4,2.4-1.9,4.5c1.9,1.9,5.7-2.2,5.7-2.2"/>
	<line stroke-width="1.5" stroke-linecap="round" stroke-miterlimit="10" x1="2.5" y1="8.9" x2="1" y2="8"/>
	<line stroke-width="1.5" stroke-linecap="round" stroke-miterlimit="10" x1="4.4" y1="6.9" x2="2.4" y2="2.9"/>
	<line stroke-width="1.5" stroke-linecap="round" stroke-miterlimit="10" x1="7" y1="6" x2="7" y2="4"/>
</g>
</svg>
