<?xml version="1.0" encoding="utf-8"?>
<svg version="1.0" xmlns="http://www.w3.org/2000/svg" width="24px" height="24px" viewBox="0 0 24 24" enable-background="new 0 0 24 24" xml:space="preserve">
<g class="fill-none stroke-foreground">
	<path stroke-width="1.5" stroke-miterlimit="10" d="M17,22.9L14.8,23c0,0-11.2-11.2-11.6-11.6
		C1.9,10.1,2.5,9,1.8,8.7c-1.1-0.5-1-1.1-1-1.1l6.7-6.7c0,0,0.9-0.4,1.4,0.7c0.3,0.7,1.4,0.1,2.7,1.4C12,3.4,23.2,14.6,23.2,14.6
		l-0.1,2.2L17,22.9z"/>
</g>
<g class="fill-foreground stroke-none">
	<path d="M3.6,7.3l3-3C6.9,3.9,7.4,3.7,8,3.7c0.7,0,1.4,0.3,1.9,0.8L10.4,5L9.7,5.6c0,0-1.3-1.3-2-0.9L7.3,5.1
		l1.3,1.3L7.9,7.2l-0.1,0L6.6,5.9L4.4,8.1L3.6,7.3z"/>
	<path d="M10.1,12.8c-0.8,0-1.6-0.4-2.2-1c-1.1-1.1-1.3-2.7-0.4-3.6c0.4-0.4,0.8-0.5,1.4-0.5c0.8,0,1.6,0.4,2.2,1
		c0.6,0.6,0.9,1.2,1,1.9c0.1,0.7-0.1,1.2-0.5,1.7C11.2,12.6,10.7,12.8,10.1,12.8L10.1,12.8z M9.2,8.6C8.9,8.6,8.6,8.8,8.4,9
		C8.1,9.2,8,9.7,8.1,10.1c0.1,0.4,0.3,0.7,0.6,1c0.4,0.4,0.9,0.6,1.3,0.6c0.3,0,0.6-0.1,0.8-0.3c0.5-0.5,0.4-1.5-0.3-2.2
		C10.1,8.9,9.7,8.6,9.2,8.6z"/>
	<path d="M14.6,18.4l3.2-3.2l0.8,0.8l-0.6,0.7c0,0,0.5-0.6,1.7,0.6c0.2,0.2,0.3,0.3,0.4,0.4l-0.7,0.7
		c-0.1-0.2-0.3-0.3-0.4-0.4c-0.2-0.2-0.7-0.7-1.3-0.7l-0.3,0l-2,2L14.6,18.4z"/>
	<path d="M13.1,16.9l0.5-0.5c0,0-0.9,0.2-1.7-0.7c-1.1-1.1-1.1-1.8-0.5-2.4l2.2-2.2l0.7,0.7l-1.9,1.9
		C12.2,14,12,14.5,12.5,15c0.4,0.4,0.8,0.8,1.3,0.8c0.2,0,0.4-0.1,0.6-0.2l1.9-1.9l0.8,0.8l-3.2,3.2L13.1,16.9z"/>
</g>
</svg>
