<?xml version="1.0" encoding="utf-8"?>
<svg version="1.0" xmlns="http://www.w3.org/2000/svg" width="24px" height="24px" viewBox="0 0 24 24" enable-background="new 0 0 24 24" xml:space="preserve">
	<g class="fill-none stroke-foreground">
		<ellipse transform="matrix(0.7426 -0.6697 0.6697 0.7426 -2.9002 7.529)" stroke-width="1.5" stroke-miterlimit="10" cx="8.3" cy="7.5" rx="4.6" ry="1.3"/>
		<path stroke-width="1.5" stroke-miterlimit="10" d="M11.8,4.4l1.5,0.4l9,10l0.4,1.6
			c0.5,0.5-0.7,2.4-2.7,4.2c-2,1.8-3.9,2.8-4.4,2.2l-1.5-0.6l-9-10l-0.2-1.6"/>
		<circle stroke-miterlimit="10" cx="2" cy="2" r="1.5"/>
		<circle stroke-miterlimit="10" cx="6.5" cy="2.5" r="1"/>
	</g>
	<g class="fill-foreground stroke-none">
		<path d="M16.7,15.8h-0.9V17h-1.7v-1.2h-3.5v-1.9l3.1-3.8h2.1v4.2h0.9V15.8z M14.1,14.3v-2.6L12.2,14v0.2H14.1z"/>
	</g>
</svg>
