<?xml version="1.0" encoding="utf-8"?>
<svg version="1.0" xmlns="http://www.w3.org/2000/svg" xmlns:xlink="http://www.w3.org/1999/xlink" width="36px" height="36px" viewBox="0 0 36 36" enable-background="new 0 0 36 36" xml:space="preserve">
<g class="fill-foreground stroke-none">
	<path d="M10.8,17.8c1.2,0.2,1.9,1,1.9,2.4v3.6c0,1.5,0.5,2.2,2.1,2.2h0.5v1.4h-0.6c-2.6,0-3.6-1.1-3.6-3.5v-3.3
		c0-1.3-0.8-1.8-2-1.9v-1.7c1.1,0,2-0.5,2-1.9v-3.3c0-2.4,1-3.5,3.6-3.5h0.6v1.4h-0.5c-1.6,0-2.1,0.7-2.1,2.2v3.6
		C12.7,16.7,12.1,17.5,10.8,17.8L10.8,17.8z"/>
	<path d="M27.2,16.9v1.7c-1.1,0-2,0.5-2,1.9v3.3c0,2.4-1,3.5-3.6,3.5h-0.6v-1.4h0.5c1.6,0,2.1-0.7,2.1-2.2v-3.6
		c0-1.4,0.7-2.2,1.9-2.4v-0.1c-1.2-0.2-1.9-1-1.9-2.4v-3.6c0-1.5-0.5-2.2-2.1-2.2h-0.5V8.2h0.6c2.6,0,3.6,1.1,3.6,3.5V15
		C25.2,16.4,26,16.9,27.2,16.9z"/>
</g>
</svg>
