<?xml version="1.0" encoding="utf-8"?>
<svg version="1.0" xmlns="http://www.w3.org/2000/svg" width="24px" height="24px" viewBox="0 0 24 24" enable-background="new 0 0 24 24" xml:space="preserve">
<path class="fill-none stroke-foreground" stroke-linecap="round" stroke-linejoin="round" stroke-miterlimit="10" d="M18.1,15.3
	c2.5,0,4.6-2,4.6-4.6s-2-4.6-4.6-4.6c-1.5,0-3.8,1.5-5.9,1.5S7.9,6.1,6.4,6.1c-2.5,0-4.6,2-4.6,4.6s2,4.6,4.6,4.6
	c1.5,0,3.7-1.5,5.9-1.5S16.6,15.3,18.1,15.3z M20.3,10.7c0,1.2-1,2.3-2.3,2.3s-2.3-1-2.3-2.3s1-2.3,2.3-2.3S20.3,9.5,20.3,10.7z
	 M4.2,10.7c0-1.2,1-2.3,2.3-2.3s2.3,1,2.3,2.3S7.7,13,6.5,13S4.2,11.9,4.2,10.7z"/>
</svg>
