<?xml version="1.0" encoding="utf-8"?>
<!-- Generator: Adobe Illustrator 23.1.1, SVG Export Plug-In . SVG Version: 6.00 Build 0)  -->
<svg version="1.1" id="Layer_1" xmlns="http://www.w3.org/2000/svg" xmlns:xlink="http://www.w3.org/1999/xlink" x="0px" y="0px"
	 width="36px" height="36px" viewBox="0 0 36 36" style="enable-background:new 0 0 36 36;" xml:space="preserve">
<style type="text/css">
	.st0{fill:none;stroke:#3B4A51;stroke-miterlimit:10;}
</style>
<path class="st0" d="M24.6,22.5c2.8,0,5.1-2.3,5.1-5.1s-2.3-5.1-5.1-5.1c-1.7,0-4.2,1.6-6.5,1.6s-4.8-1.6-6.5-1.6
	c-2.8,0-5.1,2.3-5.1,5.1s2.3,5.1,5.1,5.1c1.7,0,4.1-1.6,6.5-1.6S23,22.5,24.6,22.5z M27.1,17.4c0,1.5-1.2,2.5-2.5,2.5
	c-1.3,0-2.5-1.2-2.5-2.5s1.2-2.5,2.5-2.5C25.9,14.9,27.1,15.9,27.1,17.4z M9.1,17.4c0-1.5,1.2-2.5,2.5-2.5c1.3,0,2.5,1.2,2.5,2.5
	s-1.2,2.5-2.5,2.5S9.1,18.9,9.1,17.4z"/>
</svg>
