<?xml version="1.0" encoding="utf-8"?>
<svg version="1.0" xmlns="http://www.w3.org/2000/svg" width="24px" height="24px" viewBox="0 0 24 24" enable-background="new 0 0 24 24" xml:space="preserve">
<path class="fill-none stroke-foreground" stroke-width="1" stroke-linecap="round" stroke-linejoin="round" stroke-miterlimit="10" d="
	M9.5,17.9c7.2,0,11.1-5.9,11.1-11.1c0-0.1,0-0.4,0-0.5c0.8-0.5,1.9-3,1.9-3s-2.2,0.2-3.1,0.5c-0.8-0.8-1.8-1.3-2.9-1.3
	c-2.1,0-3.9,1.8-3.9,3.9c0,0.3,0,0.6,0.1,0.9c-3.1-0.1-6-1.8-7.9-4.2c-0.4,0.6-0.5,1.3-0.5,2c0,1.4,0.6,2.5,1.8,3.3
	c-0.6,0-1.3-0.3-1.8-0.5l0,0c0,1.9,1.4,3.4,3.2,3.8C7.1,11.8,6.7,12,6.3,12c-0.3,0-0.5,0-0.8-0.1c0.5,1.5,1.9,2.6,3.7,2.6
	c-1.3,1.1-3,1.8-4.8,1.8c-0.3,0-0.6,0-0.9,0C5.2,17.3,7.3,17.9,9.5,17.9"/>
</svg>
