<?xml version="1.0" encoding="utf-8"?>
<svg version="1.0" xmlns="http://www.w3.org/2000/svg" width="24px" height="24px" viewBox="0 0 24 24" enable-background="new 0 0 24 24" xml:space="preserve">
	<path class="fill-none stroke-foreground" stroke-linecap="round" stroke-linejoin="round" stroke-miterlimit="10" d="M16.7,7.5
		c0,0.9,0,1.8,0,2.7c-1.1,0-2.1,0-3.4,0c0,2.7,0,5.5,0,8.4c-1.1,0-2.1,0-3.2,0c0-2.7,0-5.5,0-8.2c-1.1,0-1.8,0-2.9,0
		c0-0.9,0-1.8,0-2.7c0.9,0,1.8,0,2.9,0c0-0.8,0-1.5,0-2.1c0.2-2.3,1.8-3.8,4-3.8c0.9,0,1.7,0,2.6,0c0,1.1,0,3,0,3h-2.3
		c-0.6,0-0.9,0.3-0.9,0.9s0,1.2,0,2C14.4,7.5,15.5,7.5,16.7,7.5z"/>
</svg>
