<?xml version="1.0" encoding="utf-8"?>
<svg version="1.0" xmlns="http://www.w3.org/2000/svg" width="33px" height="36px" viewBox="0 0 33 36" xml:space="preserve">
<g id="frame4">
	<path fill="none" stroke="#3B4A51" stroke-linecap="round" stroke-miterlimit="10" d="M25.5,20c-14.7,4.5-11-2.7-8.2-2.5
		c2.3,0.2,4.9-0.3,6.2-2"/>
	<path fill="none" stroke="#3B4A51" stroke-linecap="round" stroke-miterlimit="10" d="M17.5,21.7c1,2.6,6.5,2,10.4-0.4
		c1.5-0.9,5.9-4.7,3.5-8.2c-2.2-3.4-4.7-1.6-8.7-0.7c-2.5,0.6-3.5-0.6-7.4,1.9l-0.6,0.5c-3.9,3-5.9,4.6-5,6c1.6,2.4,4.7-0.3,4.7-0.3
		s-4,2.4-1.9,4.5c1.9,1.9,5.7-2.2,5.7-2.2"/>
</g>
<g id="frame3">
	<path fill="none" stroke="#3B4A51" stroke-linecap="round" stroke-miterlimit="10" d="M25.5,20c-14.7,4.5-11-2.7-8.2-2.5
		c2.3,0.2,4.9-0.3,6.2-2"/>
	<path fill="none" stroke="#3B4A51" stroke-linecap="round" stroke-miterlimit="10" d="M17.5,21.7c1,2.6,6.5,2,10.4-0.4
		c1.5-0.9,5.9-4.7,3.5-8.2c-2.2-3.4-4.7-1.6-8.7-0.7c-2.5,0.6-3.5-0.6-7.4,1.9l-0.6,0.5c-3.9,3-5.9,4.6-5,6c1.6,2.4,4.7-0.3,4.7-0.3
		s-4,2.4-1.9,4.5c1.9,1.9,5.7-2.2,5.7-2.2"/>
	<circle fill="#12C0E1" cx="8.2" cy="11.6" r="0.5"/>
	<circle fill="#12C0E1" cx="0.9" cy="17.3" r="0.5"/>
	<circle fill="#12C0E1" cx="2.5" cy="27.5" r="0.5"/>
	<circle fill="#12C0E1" cx="10.4" cy="30.6" r="0.5"/>
</g>
<g id="frame2">
	<line fill="none" stroke="#ED248C" stroke-linecap="round" stroke-linejoin="round" stroke-miterlimit="10" x1="9.3" y1="14.6" x2="8.2" y2="11.6"/>
	<line fill="none" stroke="#ED248C" stroke-linecap="round" stroke-linejoin="round" stroke-miterlimit="10" x1="10" y1="26.7" x2="10.4" y2="30.6"/>
	<line fill="none" stroke="#ED248C" stroke-linecap="round" stroke-linejoin="round" stroke-miterlimit="10" x1="5.9" y1="24.7" x2="2.5" y2="27.5"/>
	<line fill="none" stroke="#ED248C" stroke-linecap="round" stroke-linejoin="round" stroke-miterlimit="10" x1="4.5" y1="18.9" x2="0.9" y2="17.3"/>
	<path fill="none" stroke="#3B4A51" stroke-linecap="round" stroke-miterlimit="10" d="M17.2,22.2c1,2.6,6.8,1.5,10.7-0.9
		c1.5-0.9,5.9-4.7,3.5-8.2c-2.2-3.4-4.7-1.6-8.7-0.7c-2.5,0.6-3.5-0.6-7.4,1.9l-0.6,0.5c-3.8,3.2-5.9,4.6-5,6c1.6,2.4,4-0.2,4-0.2
		s-1.5,4,1.2,4.5C17.7,25.6,17.2,22.2,17.2,22.2"/>
	<path fill="#FFFFFF" stroke="#3B4A51" stroke-linecap="round" stroke-miterlimit="10" d="M22.5,16.7c-3.3,1.4-7.1,0-8.7-0.5
		c-2.8-1-3.6,2.6-0.6,4.2c3.2,1.7,8.6,1.3,8.6,1.3"/>
</g>
<g id="frame1">
	<path fill="none" stroke="#3B4A51" stroke-linecap="round" stroke-miterlimit="10" d="M20.5,12.6c0.5,0,1.5,0,2.1-0.1l0.3-0.1
		c4-0.9,6.4-2.7,8.7,0.7"/>
	<path fill="none" stroke="#3B4A51" stroke-linecap="round" stroke-miterlimit="10" d="M31.5,13.1c0.6,1,0.8,2,0.6,2.9l0,0
		c-0.6,2.8-3.8,5.2-5.1,5.8c-6.3,2.9-9.3,1.8-9.7,0.3c0,0-5.2,5-6.6,2.8c-1.2-1.9,0.6-2.4,0.6-2.9c-0.1-0.6-1.4-0.7-1.6-1.7
		c-0.2-1-0.1-1.3,4.5-5.2c2.6-2.2,4.4-2.7,6.4-2.7"/>
	<path fill="#FFFFFF" stroke="#3B4A51" stroke-linecap="round" stroke-miterlimit="10" d="M25.3,20.5c-5.6,0.1-9.4,4.4-13.2,1.8
		c-2.1-2.2,0.3-3,2.6-3.2c4.1-0.4,5.7-4,8.5-3.2"/>
	<path fill="none" stroke="#3B4A51" stroke-linecap="round" stroke-miterlimit="10" d="M18.8,16c0,0-1.4,2.6-3.1,2.9"/>
</g>
</svg>
