<?xml version="1.0" encoding="utf-8"?>
<svg version="1.0" xmlns="http://www.w3.org/2000/svg" width="37.8px" height="36px" viewBox="0 0 37.8 36" xml:space="preserve">
	<g id="frame4">
		<path class="stroke-foreground fill-none" stroke-linecap="round" d="M29.1,19.5c-16.3,5-12.2-3-9.2-2.8
			c2.6,0.2,5.5-0.4,6.9-2.2"/>
		<path class="stroke-foreground fill-none" stroke-linecap="round" d="M20.2,21.4c1.2,2.9,7.3,2.2,11.6-0.5
			c1.6-1,6.5-5.2,3.9-9.1c-2.5-3.8-5.2-1.8-9.6-0.8c-2.7,0.6-3.9-0.7-8.3,2.1l-0.7,0.5c-4.3,3.3-6.6,5.1-5.6,6.7
			c1.7,2.6,5.2-0.4,5.2-0.4s-4.4,2.6-2.1,5c2.1,2.1,6.3-2.4,6.3-2.4"/>
	</g>
	<g id="frame3">
		<circle opacity="0.5" fill="#12C0E1" cx="12.3" cy="31.3" r="1.7"/>
		<circle opacity="0.5" fill="#12C0E1" cx="3.5" cy="27.9" r="1.7"/>
		<circle opacity="0.5" fill="#12C0E1" cx="1.7" cy="16.4" r="1.7"/>
		<circle opacity="0.5" fill="#12C0E1" cx="9.8" cy="10.1" r="1.7"/>
		<path class="stroke-foreground fill-none" stroke-linecap="round" d="M29.1,19.5c-16.3,5-12.2-3-9.2-2.8
			c2.6,0.2,5.5-0.4,6.9-2.2"/>
		<path class="stroke-foreground fill-none" stroke-linecap="round" d="M20.2,21.4c1.2,2.9,7.3,2.2,11.6-0.5
			c1.6-1,6.5-5.2,3.9-9.1c-2.5-3.8-5.2-1.8-9.6-0.8c-2.7,0.6-3.9-0.7-8.3,2.1l-0.7,0.5c-4.3,3.3-6.6,5.1-5.6,6.7
			c1.7,2.6,5.2-0.4,5.2-0.4s-4.4,2.6-2.1,5c2.1,2.1,6.3-2.4,6.3-2.4"/>
		<circle fill="#12C0E1" cx="9.8" cy="10.1" r="0.8"/>
		<circle fill="#12C0E1" cx="1.7" cy="16.4" r="0.8"/>
		<circle fill="#12C0E1" cx="3.5" cy="27.9" r="0.8"/>
		<circle fill="#12C0E1" cx="12.3" cy="31.3" r="0.8"/>
	</g>
	<g id="frame2">
		<line class="stroke-focus fill-none" stroke-linecap="round" stroke-linejoin="round" x1="11" y1="13.5" x2="9.8" y2="10.1"/>
		<line class="stroke-focus fill-none" stroke-linecap="round" stroke-linejoin="round" x1="11.8" y1="26.9" x2="12.3" y2="31.3"/>
		<line class="stroke-focus fill-none" stroke-linecap="round" stroke-linejoin="round" x1="7.3" y1="24.7" x2="3.5" y2="27.9"/>
		<line class="stroke-focus fill-none" stroke-linecap="round" stroke-linejoin="round" x1="5.7" y1="18.3" x2="1.7" y2="16.4"/>
		<path class="stroke-foreground fill-none" stroke-linecap="round" d="M19.9,22c1.2,2.9,7.6,1.6,11.9-1
			c1.6-1,6.5-5.2,3.9-9.1c-2.5-3.8-5.2-1.8-9.6-0.8c-2.7,0.6-3.9-0.7-8.3,2.1l-0.7,0.5c-4.2,3.5-6.6,5.1-5.6,6.7
			c1.7,2.6,4.5-0.2,4.5-0.2s-1.7,4.5,1.3,5C20.3,25.7,19.9,21.9,19.9,22"/>
		<path class="stroke-foreground fill-opaque" stroke-linecap="round" d="M25.7,15.8c-3.7,1.5-7.9,0-9.7-0.6
			c-3.1-1.1-4,2.9-0.6,4.7c3.6,1.9,9.6,1.5,9.6,1.5"/>
	</g>
	<g id="frame1">
		<path class="stroke-foreground fill-none" stroke-linecap="round" d="M23.5,11.3c0.6,0,1.6,0,2.2-0.1l0.3-0.1
			c4.5-1,7.2-3,9.6,0.8"/>
		<path class="stroke-foreground fill-none" stroke-linecap="round" d="M35.7,11.8c0.7,1.1,0.9,2.2,0.6,3.3l0,0
			c-0.7,3.2-4.2,5.8-5.7,6.5c-7,3.2-10.3,2-10.8,0.4c0,0-5.8,5.6-7.4,3.1c-1.4-2.2,0.7-2.6,0.6-3.2c-0.1-0.6-1.5-0.7-1.7-1.9
			c-0.2-1.2-0.1-1.5,5-5.7c2.9-2.4,4.9-3,7.1-3"/>
		<path class="stroke-foreground fill-opaque" stroke="#3B4A51" stroke-linecap="round" d="M28.9,20c-6.3,0.1-10.4,4.9-14.6,2
			c-2.3-2.5,0.4-3.3,2.9-3.5c4.5-0.4,6.4-4.4,9.5-3.6"/>
		<path class="stroke-foreground fill-none" stroke-linecap="round" d="M21.6,15.1c0,0-1.6,2.9-3.5,3.2"/>
	</g>
</svg>
