<?xml version="1.0" encoding="utf-8"?>
<svg version="1.2" xmlns="http://www.w3.org/2000/svg" width="36" height="36" viewBox="0 1 36 36">
	<g class="fill-none stroke-foreground">
		<path stroke-miterlimit="10" d="M20.4,15.1h-4.9c-0.6,0-1-0.4-1-1v-2
			c0-0.6,0.4-1,1-1h4.9c0.6,0,1,0.4,1,1v2C21.4,14.7,21,15.1,20.4,15.1z"/>
		<path stroke-miterlimit="10" d="M20.4,24.8h-4.9c-0.6,0-1-0.5-1-1v-2
			c0-0.5,0.4-1,1-1h4.9c0.6,0,1,0.5,1,1v2C21.4,24.4,21,24.8,20.4,24.8z"/>
		<path stroke-miterlimit="10" d="M11.5,24.8H6.7c-0.6,0-1-0.5-1-1v-2
			c0-0.5,0.4-1,1-1h4.9c0.6,0,1,0.5,1,1v2C12.5,24.4,12.1,24.8,11.5,24.8z"/>
		<path stroke-miterlimit="10" d="M29.3,24.8h-4.9c-0.5,0-1-0.5-1-1v-2
			c0-0.5,0.5-1,1-1h4.9c0.5,0,1,0.5,1,1v2C30.3,24.4,29.9,24.8,29.3,24.8z"/>
	</g>
	<g class="fill-none stroke-border">
		<path stroke-miterlimit="10" d="M18,17.7c0,0-2,0-5.5,0s-3.4,3.2-3.4,3.2"/>
		<path stroke-miterlimit="10" d="M18,17.7c0,0,2,0,5.5,0s3.4,3.2,3.4,3.2"/>
		<line stroke-miterlimit="10" x1="18" y1="15.1" x2="18" y2="20.9"/>
	</g>
</svg>
