<?xml version="1.0" encoding="utf-8"?>
<svg version="1.1" xmlns="http://www.w3.org/2000/svg" width="135" height="64" viewBox="0 0 135 64">
	<style type="text/css">
		.tape{stroke-width:2;stroke-linecap:round;stroke-linejoin:round;stroke-dasharray:2.4822,3.3096;}
		.reel--large{transform-origin:107.4px 27.4px;}
		.reel--small{transform-origin:27.2px 26.8px;}
		.reel-outer{stroke-width:2;stroke-linejoin:round;stroke-miterlimit:10;}
		.wheels{stroke-width:1.5;stroke-linejoin:round;stroke-miterlimit:10;}
		.reel-inner{stroke-width:3.5;stroke-linejoin:round;stroke-miterlimit:10;}
		.reel-line{stroke-width:2;stroke-linecap:round;stroke-linejoin:round;stroke-miterlimit:10;}
	</style>
	<line class="fill-none stroke-border" x1="42.3" y1="7.4" x2="43.5" y2="7.5"/>
	<line class="fill-none stroke-border" x1="98.7" y1="12.3" x2="99.9" y2="12.4"/>
	<g class="tape fill-none stroke-border">
		<line x1="46.8" y1="7.8" x2="97.1" y2="12.2"/>
		<line x1="21.1" y1="50.6" x2="31.8" y2="61.3"/>
		<polyline points="93.2,62.2 69.7,54.2 66.2,54.2 62.8,54.2 35.1,62.2 "/>
		<line x1="121.1" y1="36.8" x2="96.5" y2="61.3"/>
	</g>
	<circle class="fill-border" cx="27.2" cy="26.8" r="1.4"/>
	<circle class="fill-border" cx="107.4" cy="27.4" r="1.4"/>
	<circle class="fill-none stroke-border" cx="27.2" cy="26.8" r="3.2"/>
	<circle class="fill-none stroke-border" cx="107.4" cy="27.4" r="3.2"/>
	<circle class="reel-outer fill-none stroke-foreground" cx="27.2" cy="26.8" r="24.6"/>
	<circle class="reel-outer fill-none stroke-foreground" cx="107.4" cy="27.4" r="24.6"/>
	<circle class="wheels fill-none stroke-border" cx="33.7" cy="60.8" r="2.1"/>
	<circle class="wheels fill-none stroke-border" cx="94.7" cy="60.8" r="2.1"/>
	<polygon class="fill-foreground" points="66.2,61.6 70.6,61.6 70.6,57.8 67.8,54.9 66.2,54.9 64.7,54.9 61.8,57.8 61.8,61.6 "/>
	<g class="chevrons--forward fill-foreground">
		<polygon points="58,29.4 60,29.4 62.2,26.3 60,23.2 58,23.2 60.1,26.3 "/>
		<polygon points="62.8,29.4 64.8,29.4 67,26.3 64.8,23.2 62.8,23.2 64.9,26.3 "/>
		<polygon points="67.6,29.5 69.6,29.5 71.8,26.4 69.6,23.3 67.6,23.3 69.8,26.4 "/>
		<polygon points="72.4,29.5 74.5,29.5 76.6,26.4 74.5,23.3 72.4,23.3 74.6,26.4 "/>
	</g>
	<g class="chevrons--back fill-foreground">
		<polygon points="76.6,29.4 74.6,29.4 72.4,26.3 74.6,23.2 76.6,23.2 74.5,26.3 	"/>
		<polygon points="71.8,29.4 69.8,29.4 67.6,26.3 69.8,23.2 71.8,23.2 69.6,26.3 	"/>
		<polygon points="67,29.5 64.9,29.5 62.8,26.4 64.9,23.3 67,23.3 64.8,26.4 	"/>
		<polygon points="62.2,29.5 60.1,29.5 58,26.4 60.1,23.3 62.2,23.3 60,26.4 	"/>
	</g>
	<g class="reel reel--large">
		<circle class="reel-inner fill-none stroke-border" cx="107.4" cy="27.4" r="16.7"/>
		<line class="reel-line fill-none stroke-border" x1="122.1" y1="35.4" x2="113.7" y2="30.5"/>
		<line class="reel-line fill-none stroke-border" x1="92.8" y1="35.4" x2="101.2" y2="30.5"/>
		<line class="reel-line fill-none stroke-border" x1="107.4" y1="10.6" x2="107.4" y2="20.2"/>
	</g>
	<g class="reel reel--small">
		<circle class="reel-inner fill-none stroke-border" cx="27.2" cy="26.8" r="21.4"/>
		<line class="reel-line fill-none stroke-border" x1="27.2" y1="10.8" x2="27.2" y2="20.2"/>
		<line class="reel-line fill-none stroke-border" x1="40.7" y1="34.2" x2="33.1" y2="29.8"/>
		<line class="reel-line fill-none stroke-border" x1="13.7" y1="34.2" x2="21.3" y2="29.6"/>
	</g>
</svg>
