<?xml version="1.0" encoding="utf-8"?>
<svg version="1.0" xmlns="http://www.w3.org/2000/svg" width="36px" height="36px" viewBox="0 0 36 36" xml:space="preserve">
  <path class="fill-none stroke-border" stroke-width="1.5" stroke-miterlimit="10" d="M23.4,11.5c0,0,5.8,1,5.8,6.5s-5.8,6.5-5.8,6.5"/>
  <g class="fill-foreground">
    <path d="M5.9,8.2v19.4l14.3,2.6V5.8L5.9,8.2z M15,20.3c0,2-1.2,2.8-2.8,2.8c-1.6,0-2.2-0.8-2.2-0.8v-2l0.9,0.7
      c0,0,1.5,1,2.1-0.1c0.6-1.2-0.9-2-0.9-2s-2.1-0.8-2.1-3.1c0-2.3,2-3,3.2-3s1.5,0.3,1.5,0.3v2.2c0,0-0.5-0.5-1-0.6
      c-0.5-0.2-1.9-0.1-1.9,1c0,1.1,1.2,1.6,2.3,2.4C15.1,18.7,15,20.3,15,20.3z"/>
    <circle cx="29.7" cy="18" r="2.3"/>
    <circle cx="23.4" cy="11.5" r="2.3"/>
    <circle cx="23.4" cy="24.5" r="2.3"/>
  </g>
</svg>
