<?xml version="1.0" encoding="utf-8"?>
<svg version="1.0" xmlns="http://www.w3.org/2000/svg" width="36px" height="36px" viewBox="0 0 36 36" xml:space="preserve">
	<path class="fill-background stroke-none" d="M25.4,24.8c-0.6,0-1.2-0.2-1.7-0.3c-1.5-0.3-2.8-1-4-2.2c-0.6-0.6-1.2-1.4-1.6-2.1c-0.6,0.9-1.2,1.7-2,2.4
		c-0.8,0.9-1.8,1.5-3,1.8c-1.1,0.3-2.2,0.3-3.5,0.1c-1.2-0.1-2.2-0.6-3.1-1.3c-1.1-0.8-1.8-1.7-2.2-2.7s-0.6-2.1-0.4-3.3
		c0.1-1,0.6-2.1,1.2-3c0.8-0.9,1.5-1.7,2.6-2.1c1-0.6,2.1-0.8,3.1-0.8l0,0c0.6,0,1.2,0,1.8,0.1c1.5,0.3,2.8,1.2,4,2.4
		c0.6,0.6,1.1,1.2,1.5,1.8c0.9-1.2,2-2.4,3.3-3.3c0.9-0.6,2.1-1,3.3-1c1.2,0,2.2,0.1,3.4,0.6c2.2,0.9,3.8,2.9,4.2,5.1
		c0.2,1,0,2.2-0.4,3.5c-0.4,1-1.1,1.9-1.9,2.7C28.5,24.2,26.9,24.8,25.4,24.8z M19.4,17.8c0.5,1.1,1.2,2,2,2.7c0.9,0.9,1.8,1.5,3,1.7
		l0,0l0,0c1.4,0.5,2.9,0,4.1-1c1.2-1.1,1.8-2.6,1.7-3.9c-0.3-1.3-1.2-2.7-2.9-3.3c-1.5-0.6-3.3-0.6-4.5,0.3l0,0
		C21.2,15.2,20.2,16.5,19.4,17.8z M10.4,13.7c-1.2,0-2.6,0.8-3.4,1.9c-0.5,0.6-0.8,1.4-0.9,2c0,0.7,0,1.4,0.3,1.9l0,0
		c0.3,0.8,0.8,1.3,1.3,1.8S9,22,9.9,22.2c1.6,0.3,3.3-0.2,4.4-1.4l0,0l0,0c0.9-0.9,1.7-1.9,2.4-3.1c-1.2-1.8-2.7-3.5-4.7-4.1
		c-0.5,0-0.8,0-1.2,0h-0.1h-0.1H10.4z"/>
	<rect class="fill-foreground stroke-none" x="8.4" y="17.2" width="4.8" height="1"/>
	<polygon class="fill-foreground stroke-none" points="25.7,19.8 24.3,19.8 24.3,18.5 23,18.5 23,17.1 24.3,17.1 24.3,15.8 25.7,15.8 25.7,17.1 27,17.1 27,18.5 
		25.7,18.5 "/>
</svg>
