<?xml version="1.0" encoding="utf-8"?>
<svg version="1.0" xmlns="http://www.w3.org/2000/svg" width="36px" height="36px" viewBox="0 0 36 36" xml:space="preserve">>
	<path class="fill-background" d="M32.1,20.6c-0.1,0-0.2,0-0.2-0.1c-0.3,0-0.5-0.1-0.8-0.1c-0.5,0-1-0.1-1.5-0.2c-0.2-0.1-0.3-0.2-0.4-0.4
	l-0.3-0.1c0.4-2.7-0.3-5.4-1.8-7.6c0.1-0.1,0.3-0.2,0.3-0.3c0-0.2,0-0.3,0.2-0.5c0.4-0.3,0.8-0.6,1.3-0.9c0.2-0.1,0.5-0.3,0.7-0.4
	c0.1,0,0.1-0.1,0.2-0.2c0.4-0.3,0.5-0.8,0.3-1.2c-0.3-0.4-0.8-0.5-1.2-0.3c-0.1,0-0.1,0.1-0.1,0.1c-0.1,0-0.1,0.1-0.2,0.1
	c-0.2,0.2-0.4,0.4-0.6,0.6c-0.3,0.4-0.7,0.7-1.1,1c-0.2,0.1-0.3,0.1-0.5,0.1l-0.3,0.2c-1.8-1.9-4.3-3.1-7-3.4c0-0.1,0-0.3,0-0.4
	c-0.1-0.1-0.2-0.3-0.3-0.4c0-0.5,0-1,0.1-1.5c0.1-0.3,0.1-0.5,0.1-0.8c0-0.1,0-0.2,0-0.2c0-0.5-0.3-0.9-0.8-0.9
	c-0.5,0-0.9,0.3-0.9,0.8c0,0.1,0,0.1,0,0.2c0,0,0,0,0,0c0,0.1,0,0.2,0,0.2c0,0.3,0.1,0.5,0.1,0.8c0.1,0.5,0.1,1,0.1,1.5
	c0,0.2-0.1,0.3-0.3,0.4l0,0.4c-0.5,0-1,0.1-1.5,0.2c-2.1,0.5-4,1.6-5.5,3.2c-0.1-0.1-0.2-0.1-0.3-0.2c-0.2,0-0.3,0-0.5,0
	c-0.4-0.3-0.8-0.6-1.1-1C7.9,9.2,7.7,9,7.5,8.8c-0.1,0-0.1-0.1-0.2-0.1C7.2,8.5,7,8.4,6.8,8.4c-0.3,0-0.5,0.1-0.7,0.3
	c-0.3,0.4-0.2,1,0.2,1.2l0,0c0.1,0,0.1,0.1,0.2,0.1c0.2,0.1,0.5,0.3,0.7,0.4c0.4,0.3,0.9,0.5,1.3,0.9c0.1,0.1,0.2,0.3,0.2,0.5
	l0.3,0.2c-1.5,2.2-2.1,5-1.7,7.6l-0.4,0.1c-0.1,0.1-0.2,0.3-0.4,0.4c-0.5,0.1-1,0.2-1.5,0.2c-0.3,0-0.5,0-0.8,0.1
	c-0.1,0-0.2,0-0.2,0.1l0,0l0,0c-0.5,0.1-0.8,0.5-0.7,1c0.1,0.5,0.5,0.8,1,0.7c0.1,0,0.1,0,0.2,0l0,0c0,0,0,0,0,0c0.1,0,0.2,0,0.2,0
	C4.7,22.1,5,22,5.2,21.9c0.5-0.2,1-0.3,1.5-0.4c0.2,0,0.3,0.1,0.5,0.2l0.4-0.1c0.8,2.6,2.6,4.7,4.9,6.1L12.3,28
	c0.1,0.1,0.1,0.3,0.1,0.5c-0.2,0.5-0.5,0.9-0.8,1.4c-0.2,0.2-0.3,0.4-0.5,0.7c0,0.1-0.1,0.2-0.1,0.2c-0.2,0.4-0.1,0.9,0.3,1.2
	c0.4,0.2,0.9,0.1,1.2-0.3c0,0,0.1-0.1,0.1-0.1l0,0v0c0-0.1,0.1-0.2,0.1-0.2c0.1-0.3,0.2-0.5,0.2-0.8c0.1-0.5,0.4-1,0.7-1.5
	c0.1-0.1,0.2-0.2,0.4-0.2l0.2-0.3c2.5,1,5.3,1,7.8,0c0.1,0.1,0.2,0.3,0.2,0.3c0.2,0,0.3,0.1,0.4,0.3c0.2,0.5,0.4,0.9,0.6,1.4
	c0.1,0.3,0.1,0.5,0.2,0.8c0,0.1,0.1,0.1,0.1,0.2c0.2,0.4,0.6,0.7,1.1,0.5c0.4-0.2,0.7-0.6,0.5-1.1c0-0.1,0-0.1-0.1-0.1
	c0-0.1-0.1-0.2-0.1-0.2c-0.1-0.2-0.3-0.5-0.5-0.7c-0.3-0.4-0.5-0.9-0.7-1.3c0-0.2,0-0.3,0.1-0.5c-0.1-0.1-0.1-0.2-0.1-0.3
	c2.3-1.4,4-3.6,4.9-6.1c0.1,0,0.3,0.1,0.4,0.1c0.1-0.1,0.3-0.2,0.5-0.2c0.5,0.1,1,0.2,1.5,0.4c0.2,0.1,0.5,0.2,0.8,0.3
	c0.1,0,0.1,0,0.2,0c0,0,0,0,0,0l0,0c0.4,0.1,0.9-0.1,1.1-0.5c0.1-0.4-0.1-0.9-0.5-1.1C32.2,20.6,32.2,20.6,32.1,20.6L32.1,20.6z
	 M24.1,12l-3.6,2.6l0,0c-0.3,0.2-0.8,0.2-1-0.2c-0.1-0.1-0.1-0.3-0.1-0.4l0,0l-0.3-4.4C21,9.8,22.7,10.6,24.1,12L24.1,12z
	 M17.3,16.8h1.4l0.8,1.1l-0.3,1.3L18,19.8l-1.2-0.6l-0.3-1.3L17.3,16.8z M16,9.7c0.3-0.1,0.6-0.1,0.9-0.2l-0.3,4.4l0,0
	c0,0.4-0.4,0.7-0.8,0.7c-0.1,0-0.3-0.1-0.4-0.1l0,0L11.9,12C13,10.8,14.5,10,16,9.7z M10.5,13.6l3.3,3l0,0c0.3,0.3,0.3,0.7,0.1,1
	c-0.1,0.1-0.2,0.2-0.4,0.2l0,0l-4.2,1.2C9.1,17.2,9.5,15.3,10.5,13.6L10.5,13.6z M15,21.5l-1.7,4.1c-1.6-1-2.9-2.6-3.5-4.4l4.4-0.7
	l0,0c0,0,0.1,0,0.1,0c0.4,0,0.7,0.3,0.7,0.8C15,21.3,15,21.4,15,21.5L15,21.5z M20,26.7c-1.6,0.4-3.2,0.3-4.8-0.2l2.1-3.9h0
	c0.2-0.4,0.6-0.5,1-0.3c0.1,0.1,0.2,0.2,0.3,0.3h0l2.1,3.9C20.5,26.6,20.3,26.7,20,26.7L20,26.7z M22.7,25.6L21,21.5l0,0
	c-0.2-0.4,0-0.8,0.4-1c0.1,0,0.2-0.1,0.3-0.1c0.1,0,0.1,0,0.2,0l0,0l4.4,0.7C25.6,23,24.4,24.5,22.7,25.6L22.7,25.6z M26.7,19.1
	l-4.3-1.2l0,0c-0.4-0.1-0.6-0.5-0.5-0.9c0-0.1,0.1-0.3,0.2-0.4l0,0l3.3-3C26.4,15.2,26.9,17.2,26.7,19.1L26.7,19.1z"/>
</svg>
