<?xml version="1.0" encoding="utf-8"?>
<svg version="1.0" xmlns="http://www.w3.org/2000/svg" viewBox="0 0 24 24">
  <path class="fill-none stroke-foreground" stroke-width="1" stroke-linecap="round" stroke-miterlimit="10" d="M12.8,12.3c-0.9-0.8-2.2-1.3-3.5-1.3
    c-2.9,0-5.3,2.4-5.3,5.3s2.4,5.3,5.3,5.3c1.4,0,2.6-0.5,3.5-1.3"/>
  <g class="fill-foreground">
    <path d="M3,8.1h1.2v1.2H3V8.1z"/>
    <path d="M5.1,2.9h1.2l2.9,4.7h0V2.9h1.1v6.4H9.1L6.2,4.6h0v4.7H5.1V2.9z"/>
    <path d="M11.2,2.9h4.6v1h-3.5v1.7h3.2v0.9h-3.2v1.9h3.5v1h-4.7V2.9z"/>
    <path d="M15.8,2.9h5.2v1h-2v5.4h-1.1V3.9h-2V2.9z"/>
    
    <path d="M13.2,15.4c0-0.6,0-1.2,0-1.7H14l0,1h0c0.2-0.7,0.8-1.2,1.5-1.2c0.1,0,0.2,0,0.3,0v0.9c-0.1,0-0.2,0-0.3,0
      c-0.7,0-1.2,0.5-1.3,1.2c0,0.1,0,0.3,0,0.4v2.8h-1V15.4z"/>
    <path d="M17.2,16.6c0,1.3,0.9,1.8,1.8,1.8c0.7,0,1.1-0.1,1.5-0.3l0.2,0.7c-0.3,0.2-0.9,0.3-1.8,0.3c-1.6,0-2.6-1.1-2.6-2.7
      s0.9-2.9,2.5-2.9c1.7,0,2.2,1.5,2.2,2.5c0,0.2,0,0.4,0,0.4H17.2z M20,15.9c0-0.6-0.3-1.6-1.3-1.6c-1,0-1.4,0.9-1.5,1.6H20z"/>
  </g>
  <circle class="fill-border" cx="9.3" cy="16.3" r="2.1"/>
</svg>
