<?xml version="1.0" encoding="utf-8"?>
<svg version="1.0" xmlns="http://www.w3.org/2000/svg" width="48" height="48" viewBox="0 0 24 24">
  <path class="fill-background" d="M7.3,19.4c0,0-0.1,0-0.2,0c-0.7-0.1-1.3-0.3-1.9-0.6L7,16.9C7.3,16.9,7.5,17,7.8,17l3,0c1.8,0,3.6,0,5.4,0
    c1.4,0,2.6-1.1,2.6-2.5c0.1-1.4-0.8-2.5-2.1-2.7c0-0.3,0-0.7-0.1-1C16.4,9.8,16,9,15.4,8.4l1.7-1.7c0.8,0.8,1.4,1.9,1.8,3
    c0.1,0.2,0.2,0.4,0.4,0.6c0.8,0.6,1.4,1.4,1.8,2.4c0.1,0.3,0.2,0.5,0.2,0.8c0,0.1,0,0.3,0.1,0.4v0.9c0,0.1,0,0.1,0,0.2
    c-0.3,2.1-1.8,3.7-3.9,4.2l-0.6,0.1H7.3z"/>
  <path class="fill-background--medium" d="M4.4,18.1c-1-0.8-1.5-1.9-1.7-3.2c-0.2-1.9,0.5-3.4,2.1-4.7c0.3-0.2,0.3-0.4,0.3-0.6c0.8-2.4,2.4-4,4.7-4.7
    c0.8-0.3,1.6-0.4,2.3-0.4c1.5,0,2.9,0.5,4.2,1.5l-1.7,1.7C13.8,7.3,12.9,7,12,7c-0.2,0-0.5,0-0.7,0.1c-1.1,0.2-2,0.7-2.8,1.5L8.1,9
    l0.5,0.4l0.1,0.1l0.2,0c1,0.2,1.9,0.7,2.6,1.5c-0.6,0.6-1.1,1.1-1.7,1.7c-0.5-0.6-1.2-1-2-1c-0.2,0-0.4,0-0.6,0.1
    c-1.1,0.2-2,1.2-2,2.3c-0.1,0.9,0.3,1.8,1,2.3L4.4,18.1z"/>
</svg>
