<?xml version="1.0" encoding="utf-8"?>
<svg version="1.0" xmlns="http://www.w3.org/2000/svg" width="36px" height="36px" viewBox="0 0 36 36" xml:space="preserve">
	<polygon class="fill-background stroke-none" points="17.5,11.7 15.9,13.2 13.9,13.1 12.6,13.5 11.1,15.6 10.8,17.1 9.4,18.3 9.1,20 9.6,21.6 10.3,23 10.8,25.1 
		12.1,26.6 14.7,27.6 16.8,29.4 18.7,29.6 20.2,29 21.9,27.6 24.1,26.3 25.3,24.9 25.6,22.8 26.5,21.2 26.8,19.1 25.8,17.7 
		25.2,16.7 24.7,14.9 23.5,13.4 20.1,12.8 "/>
	<path class="fill-foreground stroke-none" d="M26.8,18.2c-0.2-0.5-0.4-0.8-0.9-1c-0.1-0.2-0.1-0.2-0.3-0.3c0,0,0-0.1-0.1-0.1c0-0.1-0.2-0.1-0.2-0.3
		c0-0.6-0.1-1.1-0.3-1.7c-0.3-0.6-0.8-1-1.2-1.5c0,0,0,0-0.2,0c0,0,0,0-0.1,0c0.1,0,0.1,0,0.1-0.1c0.3-0.2,0.5-0.3,0.5-0.5l0,0
		c0.1-0.2,0.3-0.2,0.4-0.3c0.1-0.2,0.3-0.3,0.3-0.5c0,0,0,0,0-0.1c0.6-0.1,0.6-0.1,0.8-0.3c0.1-0.1,0.3-0.3,0.3-0.6c0,0,0,0,0-0.2
		l0.1-0.1c0.2-0.1,0.2-0.3,0.2-0.6V9.8c0.1-0.1,0.1-0.3,0.3-0.4c0-0.2,0-0.3,0-0.3s0,0,0-0.1c0-0.2,0.1-0.3,0.1-0.5
		c0-0.1,0-0.3-0.1-0.4c0,0,0,0,0-0.2c0.1-0.3,0.1-0.6-0.2-0.8c-0.1-0.3-0.4-0.3-0.8-0.3h-0.1c-0.2-0.1-0.3-0.3-0.6-0.3
		c-0.1,0-0.3,0-0.4,0l0,0c-0.1-0.2-0.4-0.2-0.8-0.2c0,0,0,0-0.1,0c0-0.3-0.2-0.3-0.5-0.2l0,0c-0.2,0-0.2,0-0.3,0
		c-0.2,0-0.2,0-0.3-0.1c0,0,0,0-0.1,0c-0.2,0-0.2,0-0.3,0c-0.2,0-0.3,0.1-0.5,0.1l0,0c-0.3-0.1-0.6,0-0.8,0.2h-0.2
		c-0.1,0-0.4,0-0.6,0.2c-0.2,0.1-0.3,0.1-0.3,0.3l0,0c-0.2,0-0.5,0-0.6,0.2c-0.5,0.5-0.8,0.9-1,1.5l0,0c0-0.1-0.2-0.1-0.2-0.3
		c-0.3-0.5-0.6-0.9-0.9-1.2c-0.2-0.2-0.3-0.2-0.6-0.2l0,0c-0.1-0.1-0.3-0.1-0.4-0.3c-0.2-0.2-0.5-0.2-0.6-0.2c0,0,0,0-0.2,0
		c-0.1,0-0.3-0.2-0.4-0.2s-0.2,0-0.3,0c0,0,0,0-0.2,0c-0.1,0-0.3-0.1-0.4-0.1h-0.2c-0.1,0-0.3,0.1-0.3,0.1l0,0c-0.2,0-0.3,0-0.5,0
		s-0.3,0-0.4,0.2c0,0,0,0-0.2,0c-0.3,0-0.5,0-0.6,0.2h-0.1c-0.2,0-0.5,0-0.6,0c-0.3,0.2-0.4,0.2-0.6,0.3c0,0,0,0-0.2,0
		c-0.3,0-0.6,0.1-0.8,0.5c0,0.3-0.1,0.4,0,0.8l0,0c-0.1,0.3-0.1,0.6,0,0.9V9c0,0.3,0,0.4,0.2,0.6c0.1,0.1,0.1,0.1,0.1,0.3
		c0,0.3,0.1,0.5,0.3,0.6c0.1,0.1,0.1,0.1,0.1,0.3c0,0.1,0.1,0.3,0.3,0.4c0.1,0.1,0.3,0.1,0.3,0.3l0,0c0,0.3,0.1,0.4,0.4,0.6
		c0.1,0,0.1,0.2,0.3,0.2l0,0c0.2,0.4,0.3,0.6,0.6,0.8l0,0l0,0c-0.9,0.4-1.3,1.2-1.6,2.1c-0.1,0.4-0.3,0.9-0.1,1.2v0.2
		c0,0.1-0.2,0.3-0.3,0.3c-0.4,0.5-0.9,0.9-1.2,1.5c-0.2,0.5-0.3,0.8-0.3,1.2l0,0c0,0.1,0,0.3,0,0.4c0,0.2,0,0.3,0,0.3
		c0,0.4,0.3,0.9,0.5,1.3c0.1,0.2,0.3,0.3,0.4,0.6c0,0,0,0,0,0.2c0.2,0.5,0.3,1,0.5,1.5c0,0.2,0,0.3,0.1,0.4c0.1,0.6,0.3,1.1,0.6,1.5
		c0.3,0.4,0.8,0.9,1.3,1.2c0.2,0.2,0.3,0.2,0.4,0.2c0,0,0.2,0,0.2,0.1c0.8,0.4,1.3,0.9,2.2,1.2c0,0,0,0,0.2,0
		c0.5,0.6,1.2,0.9,1.8,1.2c0.5,0.1,0.9,0.1,1.3,0.1c0.5,0,0.9-0.1,1.2-0.3c0.5-0.2,0.9-0.5,1.2-0.8c0.1-0.2,0.3-0.3,0.3-0.3l0,0
		c0.8-0.3,1.4-0.6,2-1c0,0,0,0,0.1,0c0.6-0.2,1.2-0.5,1.7-0.9c0.4-0.4,0.8-1.1,1.1-1.7c0.1-0.4,0.3-0.9,0.3-1.3c0-0.2,0-0.2,0-0.3
		c0.1-0.3,0.1-0.6,0.3-0.9v-0.1c0.1-0.3,0.4-0.6,0.6-0.9c0.2-0.4,0.3-0.9,0.3-1.5C27.3,19.2,27.1,18.6,26.8,18.2z M24.1,14.9
		c0.1,0.3,0.3,0.6,0.3,0.9c0,0.2,0,0.4,0,0.6l0,0v0.2c0,0,0,0.1-0.2,0.1c-0.1,0-0.1,0-0.3-0.1h-0.1c-0.2,0-0.2-0.2-0.3-0.2
		c-0.2-0.2-0.3-0.2-0.5-0.3c-0.2-0.2-0.3-0.2-0.3-0.3c-0.2-0.2-0.3-0.2-0.3-0.3c-0.3-0.3-0.6-0.4-0.9-0.8c-0.2-0.1-0.5-0.4-0.6-0.6
		c0-0.2,0-0.2-0.1-0.3c0,0,0-0.2-0.2-0.3v-0.2c0.3,0,0.6-0.2,0.8-0.2c0.5,0,0.9,0.2,1.4,0.3c0.3,0.1,0.5,0.3,0.6,0.4
		C23.8,14.4,24,14.6,24.1,14.9z M18.7,9.3c0.2-0.6,0.5-1.2,0.8-1.7l0.2-0.1c0,0.1,0,0.3,0.1,0.3c0.3-0.3,0.5-0.6,0.8-0.8
		c0,0.2,0,0.2,0,0.3c0,0,0,0.1,0.2,0.1c0,0,0,0,0.1,0C21,7.4,21,7.2,21.1,7.1l0.1-0.2c-0.1,0.2,0,0.3,0,0.3s0,0,0.2,0
		c0.1-0.2,0.3-0.3,0.6-0.5c0.2,0,0.2-0.1,0.3-0.1l0,0l-0.2,0.1v0.2c0,0,0,0,0.2,0c0.3-0.2,0.6-0.3,0.9-0.3l0,0c0,0-0.1,0-0.1,0.1
		l-0.2,0.2v0.2c0,0,0,0,0.2,0c0.1,0,0.3-0.2,0.4-0.2c0.2,0,0.3,0,0.4-0.2l0,0l0,0c-0.1,0-0.1,0.2-0.1,0.2c0,0.2,0,0.2,0.1,0.2
		c0.2,0,0.3-0.2,0.4-0.2c0.2,0,0.4,0,0.6,0c-0.2,0.2-0.2,0.2-0.3,0.3l0,0c0.1,0,0.3,0,0.6,0c0.2,0,0.3,0,0.6,0
		c-0.2,0.1-0.3,0.5-0.3,0.6c0,0.1,0,0.1-0.2,0.3c0.2,0,0.3,0,0.4,0l-0.1,0.2c-0.1,0.6-0.3,0.8-0.4,0.9l-0.2,0.2c0.2,0,0.3,0,0.6,0
		c-0.2,0.3-0.4,0.6-0.8,0.8c0,0.1,0.1,0.1,0.4,0.1c-0.2,0.1-0.2,0.1-0.3,0.3c-0.2,0.1-0.3,0.1-0.4,0.3l0,0c0.1,0.1,0.3,0.1,0.4,0
		c-0.3,0.3-0.8,0.4-1.1,0.6c0.1,0.2,0.3,0.2,0.4,0.2c0,0,0,0-0.2,0c-0.3,0.2-0.4,0.3-0.7,0.5c-0.1,0-0.1,0-0.3,0c0,0,0,0-0.2,0
		c0,0.2,0.2,0.2,0.3,0.2c-0.2,0-0.2,0-0.3,0.2c-0.3,0-0.4,0.2-0.8,0.2h-0.1l0,0c0,0,0,0.2,0.1,0.2c0,0,0.2,0,0.2,0.2
		c-0.2,0-0.3,0-0.5,0c-0.6,0-1-0.2-1.5-0.3c-0.5-0.2-0.8-0.6-0.9-1.1c0,0,0,0,0-0.1c0.3-0.5,0.8-0.8,1.2-1.1c0.9-0.8,2-1.4,3-1.8l0,0
		c-0.3,0.1-0.4,0.1-0.8,0.3c-1,0.4-1.9,0.9-3,1.5c-0.1,0.1-0.4,0.3-0.8,0.6c0,0,0,0-0.1,0c-0.3-0.2-0.6-0.5-0.8-0.9
		C18.6,9.8,18.6,9.6,18.7,9.3z M18.9,13.1c0.5,0.1,0.8,0.3,1,0.6c0.2,0.2,0.3,0.3,0.3,0.5c0.2,0.2,0.2,0.3,0.2,0.5
		c0,0.1,0,0.1-0.2,0.3c0,0.2-0.1,0.2-0.1,0.3c-0.2,0-0.2,0.2-0.3,0.2c-0.2,0.1-0.3,0.1-0.6,0.3c-0.1,0-0.1,0-0.3,0
		c-0.2,0-0.3,0-0.5,0c-0.1,0-0.1,0-0.3,0c-0.5,0-0.9,0-1.5-0.2c-0.3-0.2-0.6-0.3-0.9-0.4c-0.2-0.2-0.3-0.3-0.3-0.5s-0.2-0.2-0.2-0.3
		c0-0.2,0-0.3,0.2-0.5s0.3-0.5,0.6-0.6c0.3-0.3,0.8-0.4,1.2-0.4C18,12.8,18.4,12.8,18.9,13.1z M12,11.7c0,0-0.2,0-0.2-0.1
		c0.2,0,0.3,0,0.4-0.1c0,0,0,0-0.2,0c-0.3-0.2-0.6-0.3-0.9-0.5l0,0c0.1,0,0.3,0,0.4,0c0,0,0,0-0.1,0c-0.3-0.4-0.6-0.6-0.8-0.9l0,0
		c0.2,0,0.3,0,0.5,0c-0.3-0.3-0.6-0.4-0.8-0.8c0.1,0,0.1,0,0.3,0c0.2,0,0.2,0,0.3,0c0-0.2,0-0.2-0.1-0.2c-0.3-0.1-0.4-0.3-0.6-0.4
		l-0.1-0.1c0.1,0,0.3,0,0.5,0c0-0.1-0.1-0.4-0.5-0.9c0.3,0,0.8,0,1.1,0c0.1-0.2,0-0.3,0-0.3c0.1,0,0.3,0,0.4,0c0.3,0,0.5,0,0.8,0.1
		c0.2,0,0.2,0,0.2-0.1c0,0,0-0.2-0.2-0.2c0,0,0,0-0.2-0.2c0.2,0,0.2,0,0.3,0c0.2,0,0.4,0.2,0.6,0.2h0.2V7.1c0-0.1-0.2-0.1-0.2-0.1
		s0,0-0.2-0.1c0.2,0,0.2,0,0.3,0c0.3,0,0.5,0.1,0.6,0.3h0.2V6.9l-0.2-0.1c0,0,0,0,0.2,0c0.3,0.1,0.5,0.3,0.8,0.4H15
		c0-0.1,0-0.1,0-0.3l0,0c0.3,0.1,0.5,0.3,0.6,0.4c0,0,0,0,0.2,0c0.2-0.1,0.2-0.1,0.2-0.3c0,0,0,0,0-0.2c0.3,0.3,0.6,0.5,0.8,0.8
		c-0.1,0.1-0.1,0-0.1-0.2l0,0c0.5,0.5,0.8,1.1,0.9,1.6c0,0.3,0.1,0.5,0,0.8c-0.2,0.3-0.3,0.6-0.6,0.8c-0.1,0.2-0.1,0.2-0.3,0
		c-0.6-0.4-1.2-0.9-1.8-1.2C13.9,9,13,8.7,12.1,8.4l0,0c0.2,0,0.3,0.2,0.4,0.2c1.1,0.6,2.1,1.2,3,2.1c0.3,0.2,0.4,0.5,0.8,0.8v0.2
		c-0.2,0.4-0.5,0.8-0.9,1c-0.4,0-1,0.2-1.7,0.2c-0.2,0-0.2,0-0.3,0c0.2,0,0.3-0.2,0.3-0.3c-0.2,0-0.3,0-0.3,0c-0.3,0-0.6,0-0.8-0.1
		c0,0,0,0-0.2,0c0.2,0,0.3,0,0.3-0.2c0,0,0,0-0.2,0C12.4,11.9,12.1,11.9,12,11.7z M11.4,16.1c0-0.5,0.1-0.8,0.4-1.2
		c0.3-0.6,0.9-1,1.5-1.3c0.3-0.2,0.6-0.2,0.9-0.2c0,0,0,0,0.2,0s0.4,0,0.6,0.2c0.2,0,0.2,0.2,0.2,0.2c-0.2,0.3-0.5,0.6-0.6,0.9
		c-0.3,0.1-0.6,0.4-1,0.8c-0.3,0.3-0.8,0.6-1.1,0.8c-0.2,0.1-0.4,0.3-0.6,0.3c-0.1,0-0.1,0.2-0.3,0.2h-0.1c0,0,0,0,0-0.2
		C11.4,16.4,11.4,16.2,11.4,16.1z M10.8,21.9l-0.1,0.1c-0.1,0-0.1,0-0.1-0.1C10,21.5,9.9,21,9.7,20.4c0-0.5,0-0.8,0-1.2
		c0.1-0.6,0.6-1.2,1-1.5c0.2,0,0.2-0.1,0.3-0.1h0.1c0,0.1,0.1,0.1,0.1,0.3c0.1,0.2,0.1,0.5,0.1,0.8c0,0.2,0,0.3,0,0.6
		c0,0.2,0,0.5,0,0.6c0,0.3-0.1,0.8-0.1,1c0,0.3-0.1,0.6-0.3,0.8C10.9,21.6,10.9,21.8,10.8,21.9z M15,26.1C15,26.1,14.8,26.1,15,26.1
		c-0.2,0.2-0.2,0.3-0.3,0.3c-0.2,0.1-0.3,0.1-0.3,0.1c-0.3,0-0.5,0-0.8,0c-0.5-0.1-0.8-0.3-1.2-0.4c-0.4-0.3-0.9-0.8-1-1.4
		c-0.1-0.3-0.3-0.8-0.3-1c0-0.3,0-0.6,0-0.9c0-0.1,0.2-0.3,0.3-0.4c0.1-0.2,0.4-0.3,0.8-0.2c0.2,0,0.3,0,0.3,0c0.2,0,0.3,0.2,0.5,0.2
		c0.3,0.1,0.6,0.3,0.8,0.6c0.3,0.3,0.8,0.8,0.9,1.2c0,0.1,0.2,0.3,0.2,0.4c0.2,0.3,0.2,0.4,0.2,0.8c0,0.2,0,0.2,0,0.2
		C15,25.7,15,26,15,26.1z M15,21.3c-0.5,0-0.8,0-1.2-0.2c-0.6-0.1-0.9-0.5-1.2-1c-0.2-0.3-0.3-0.6-0.3-1c0-0.2,0-0.2,0-0.3
		c0-0.5,0.2-0.9,0.3-1.2c0.3-0.3,0.6-0.6,0.9-1c0.3-0.2,0.4-0.3,0.8-0.5c0.4-0.2,0.9-0.3,1.3-0.2c0.6,0.2,1.2,0.5,1.5,0.9
		c0.1,0.1,0.1,0.3,0.3,0.5c0.2,0.1,0.2,0.3,0.2,0.6s0,0.5,0,0.8c0,0.2,0,0.2,0,0.3c0,0.2,0,0.3-0.2,0.5c-0.1,0.3-0.3,0.6-0.6,0.9
		c-0.2,0.3-0.5,0.4-0.8,0.8C15.7,21.2,15.4,21.3,15,21.3z M20.7,27.8c-0.1,0.1-0.3,0.3-0.5,0.4c-0.3,0.3-0.6,0.5-0.9,0.6
		C19,29,18.7,29,18.4,29c-0.1,0-0.1,0-0.3,0c-0.6,0-1.2-0.1-1.6-0.4c-0.3-0.2-0.6-0.5-0.9-0.8c0,0-0.2-0.2-0.2-0.3
		c0-0.1,0-0.1,0.2-0.3c0.2-0.2,0.5-0.3,0.6-0.5c0.1,0,0.3-0.1,0.6-0.1s0.6-0.1,1-0.1c0.2,0,0.3,0,0.5,0c0.2,0,0.3,0,0.5,0
		c0.3,0,0.5,0,0.8,0.1c0.3,0,0.5,0.1,0.8,0.1c0.1,0,0.3,0.2,0.3,0.2c0.2,0,0.2,0.2,0.3,0.3C20.7,27.5,20.7,27.6,20.7,27.8z M20.7,24
		c0,0.1-0.1,0.3-0.1,0.4c-0.2,0.5-0.5,0.8-0.8,0.9c-0.3,0.3-0.8,0.4-1.2,0.4c-0.2,0-0.5,0-0.6,0.1l0,0c-0.4,0-0.9-0.1-1.2-0.3
		c-0.5-0.3-0.9-0.6-1.1-1.1c-0.2-0.3-0.3-0.6-0.3-0.9c0-0.5,0-0.9,0.3-1.2c0-0.1,0.2-0.1,0.2-0.3c0.1-0.3,0.6-0.6,0.9-0.8
		c0.5-0.1,0.8-0.3,1.2-0.3c0.3,0,0.6,0,0.9,0.1c0.1,0,0.4,0.2,0.6,0.2c0.2,0.1,0.3,0.1,0.5,0.3l0,0c0.1,0.2,0.3,0.3,0.5,0.5
		c0.1,0.3,0.4,0.6,0.4,1C20.7,23.3,20.7,23.7,20.7,24z M20.8,21.2c-0.2,0-0.2,0-0.3-0.1c-0.2-0.2-0.5-0.3-0.6-0.3s-0.1-0.1-0.1-0.1
		c-0.2-0.2-0.3-0.3-0.5-0.5c-0.2-0.2-0.2-0.3-0.3-0.5l0,0c-0.2-0.3-0.3-0.6-0.3-0.8v-0.1c0-0.3,0-0.8,0-1.1c0.2-0.3,0.3-0.6,0.5-0.9
		c0.2-0.1,0.5-0.3,0.6-0.5c0.3-0.1,0.8-0.3,1.2-0.1c0.6,0,1.1,0.3,1.5,0.6c0.5,0.5,0.8,0.9,1.1,1.4c0.1,0.4,0.3,0.8,0.1,1.2
		c0,0.5-0.1,0.8-0.3,1.1c-0.2,0.1-0.3,0.4-0.5,0.6c-0.1,0.2-0.3,0.2-0.5,0.3c-0.3,0.1-0.6,0.3-1,0.3C21.3,21.2,21.1,21.2,20.8,21.2z
		M24.6,25.4c-0.3,0.4-0.8,0.9-1.4,1.1c-0.4,0.1-0.9,0.3-1.3,0.3c-0.3,0-0.5-0.2-0.6-0.3s-0.1-0.3-0.1-0.6c0-0.1,0-0.3,0-0.4
		c0-0.2,0-0.5,0.1-0.6c0.2-0.4,0.3-0.8,0.5-1c0.2-0.2,0.3-0.3,0.3-0.6c0.2-0.3,0.5-0.5,0.6-0.8c0.1-0.1,0.3-0.3,0.5-0.3
		c0.1,0,0.1-0.2,0.3-0.2c0.3-0.1,0.5-0.1,0.8-0.1c0.1,0,0.4,0,0.6,0.1c0.2,0.2,0.2,0.3,0.3,0.5c0.2,0.3,0.2,0.6,0.2,0.9
		c0,0.1,0,0.1,0,0.3C25.2,24.2,24.9,24.8,24.6,25.4z M26.4,20.3c-0.2,0.6-0.3,1.2-0.8,1.6c0,0,0,0-0.2,0h-0.1
		c-0.2-0.1-0.2-0.1-0.3-0.3c-0.3-0.3-0.3-0.8-0.4-1.2c-0.2-0.3-0.2-0.8-0.2-1c0-0.2,0-0.5,0-0.6l0,0l0,0c0-0.1,0-0.3,0-0.5
		c0-0.1,0-0.4,0.2-0.6v-0.2c0-0.1,0.1-0.1,0.3-0.1c0.1,0.1,0.4,0.3,0.6,0.5c0.4,0.3,0.6,0.8,0.8,1.2C26.4,19.4,26.4,19.8,26.4,20.3z" />
</svg>
