<?xml version="1.0" encoding="utf-8"?>
<svg version="1.0" xmlns="http://www.w3.org/2000/svg" viewBox="0 0 24 24">
  <path className="fill-foreground" d="M7.1,11.3c0,0.3,0,0.5,0.1,0.7c0.1,0.2,0.1,0.3,0.2,0.5c0,0.1,0.1,0.1,0.1,0.2c0,0.1,0,0.1-0.1,0.2l-0.5,0.3
    c-0.1,0-0.1,0.1-0.2,0.1c-0.1,0-0.1,0-0.2-0.1c-0.1-0.1-0.2-0.2-0.3-0.4C6.1,12.7,6,12.6,6,12.4c-0.6,0.7-1.3,1-2.2,1
    c-0.6,0-1.1-0.2-1.5-0.5s-0.6-0.8-0.6-1.4c0-0.6,0.2-1.1,0.7-1.5c0.5-0.4,1.1-0.6,1.8-0.6c0.3,0,0.5,0,0.8,0.1
    c0.3,0,0.6,0.1,0.9,0.2V9c0-0.6-0.1-1-0.4-1.2C5.3,7.6,4.9,7.5,4.3,7.5c-0.3,0-0.5,0-0.8,0.1C3.2,7.6,3,7.7,2.7,7.8
    C2.6,7.9,2.5,7.9,2.4,7.9c-0.1,0-0.1,0-0.1,0C2.2,8,2.2,7.9,2.2,7.7V7.4c0-0.1,0-0.2,0.1-0.3C2.2,7,2.3,7,2.4,6.9
    C2.7,6.8,3,6.7,3.4,6.6c0.4-0.1,0.8-0.1,1.2-0.1c0.9,0,1.5,0.2,2,0.6c0.4,0.4,0.6,1,0.6,1.8L7.1,11.3L7.1,11.3z M4.1,12.5
    c0.2,0,0.5,0,0.8-0.1c0.3-0.1,0.5-0.3,0.7-0.5c0.1-0.1,0.2-0.3,0.3-0.5s0.1-0.4,0.1-0.6v-0.3c-0.2-0.1-0.4-0.1-0.7-0.1
    c-0.2,0-0.5,0-0.7,0c-0.5,0-0.9,0.1-1.1,0.3C3.1,10.7,3,11,3,11.4c0,0.4,0.1,0.6,0.3,0.8C3.5,12.4,3.7,12.5,4.1,12.5z M10.1,13.3
    c-0.1,0-0.2,0-0.3-0.1c-0.1,0-0.1-0.1-0.2-0.3L7.9,7.1c0-0.1-0.1-0.2-0.1-0.3c0-0.1,0.1-0.2,0.2-0.2h0.7c0.1,0,0.2,0,0.3,0.1
    c0.1,0,0.1,0.1,0.1,0.3l1.3,4.9L11.6,7c0-0.1,0.1-0.2,0.1-0.3c0.1,0,0.2-0.1,0.3-0.1h0.6c0.1,0,0.2,0,0.3,0.1C13,6.8,13,6.9,13.1,7
    l1.2,5l1.3-5c0-0.1,0.1-0.2,0.1-0.3c0.1,0,0.2-0.1,0.3-0.1h0.7c0.1,0,0.2,0.1,0.2,0.2c0,0,0,0.1,0,0.1c0,0,0,0.1-0.1,0.2L15,12.9
    c0,0.1-0.1,0.2-0.2,0.3c-0.1,0-0.2,0.1-0.3,0.1h-0.6c-0.1,0-0.2,0-0.3-0.1s-0.1-0.1-0.1-0.3l-1.2-4.8l-1.1,4.8
    c0,0.1-0.1,0.2-0.1,0.3c-0.1,0.1-0.2,0.1-0.3,0.1H10.1z M19.7,13.5c-0.4,0-0.8,0-1.1-0.1s-0.7-0.2-0.9-0.3c-0.1-0.1-0.2-0.1-0.2-0.2
    s0-0.1,0-0.2v-0.4c0-0.2,0.1-0.2,0.2-0.2c0,0,0.1,0,0.1,0c0,0,0.1,0,0.2,0.1c0.3,0.1,0.5,0.2,0.8,0.3c0.3,0.1,0.6,0.1,0.9,0.1
    c0.5,0,0.8-0.1,1.1-0.2c0.3-0.2,0.4-0.4,0.4-0.7c0-0.2-0.1-0.4-0.2-0.5c-0.1-0.1-0.4-0.3-0.8-0.4L19,10.2c-0.5-0.2-0.9-0.4-1.2-0.8
    c-0.2-0.3-0.4-0.7-0.4-1.1c0-0.3,0.1-0.6,0.2-0.8C17.8,7.3,18,7.1,18.2,7c0.2-0.2,0.5-0.3,0.8-0.4s0.6-0.1,0.9-0.1
    c0.2,0,0.3,0,0.5,0c0.2,0,0.3,0.1,0.5,0.1c0.1,0,0.3,0.1,0.4,0.1c0.1,0,0.2,0.1,0.3,0.1c0.1,0.1,0.2,0.1,0.2,0.2
    c0,0.1,0.1,0.1,0.1,0.2v0.4c0,0.2-0.1,0.2-0.2,0.2c-0.1,0-0.2,0-0.3-0.1C21,7.6,20.6,7.5,20,7.5c-0.4,0-0.8,0.1-1,0.2
    c-0.2,0.1-0.4,0.4-0.4,0.7c0,0.2,0.1,0.4,0.2,0.5c0.1,0.1,0.4,0.3,0.8,0.4l1.1,0.3c0.5,0.2,0.9,0.4,1.2,0.7c0.2,0.3,0.3,0.7,0.3,1
    c0,0.3-0.1,0.6-0.2,0.9c-0.1,0.3-0.3,0.5-0.5,0.7c-0.2,0.2-0.5,0.3-0.8,0.4C20.4,13.4,20,13.5,19.7,13.5z"/>
  <g className="fill-border">
    <path fill-rule="evenodd" clip-rule="evenodd" d="M20.6,16.7c-2.3,1.7-5.7,2.6-8.7,2.6c-4.1,0-7.8-1.5-10.6-4
      c-0.2-0.2,0-0.5,0.2-0.3c3,1.7,6.7,2.8,10.6,2.8c2.6,0,5.4-0.5,8.1-1.6C20.7,16,21,16.5,20.6,16.7z"/>
    <path fill-rule="evenodd" clip-rule="evenodd" d="M21.6,15.6c-0.3-0.4-2-0.2-2.7-0.1c-0.2,0-0.3-0.2-0.1-0.3
      c1.3-0.9,3.5-0.7,3.8-0.4c0.3,0.3-0.1,2.5-1.3,3.6c-0.2,0.2-0.4,0.1-0.3-0.1C21.3,17.6,21.9,16,21.6,15.6z"/>
  </g>
</svg>
