<?xml version="1.0" encoding="utf-8"?>
<svg version="1.0" xmlns="http://www.w3.org/2000/svg" width="36" height="36" viewBox="0 0 36 36">
	<g class="fill-foreground">
		<path d="M13.6,8.5H9.7L4.4,27.2h3.5l1.4-5.1h4.6l1.4,5.1h3.5L13.6,8.5z M9.6,19.3l1.8-7.1l1.6,7.1H9.6z"/>
		<path d="M31.6,21.3v-3c0-3.1-2.3-5.3-5.7-5.3c-3.6,0-5.7,2.1-5.7,5.9v2.4c0,3.7,2.3,5.9,5.9,5.9c3.4,0,5.6-1.9,5.6-4.8v-0.3h-2.4
			L29,22.4v0.3c0,2-2,2.1-2.9,2.1c-2.2,0-3.1-1.1-3.1-3.5l0,0H31.6z M28.8,18.3v0.5h-5.7c0-2.2,1-3.1,3.2-3.1
			C27.9,15.6,28.8,16.5,28.8,18.3z"/>
	</g>
</svg>
