<?xml version="1.0" encoding="utf-8"?>
<svg version="1.0" xmlns="http://www.w3.org/2000/svg" width="36px" height="36px" viewBox="0 0 36 36" xml:space="preserve">
  <g class="fill-background--medium">
    <path d="M13.7,6.1c-0.1,0.3-0.1,0.6-0.2,0.9c-0.2,0.9-0.2,1.9-0.1,2.8c0.2,3,1.7,5.4,4.1,7.2
      c1.1,0.8,2.2,1.5,3.4,1.9c1,0.4,2.1,0.5,3.1,0.6c1.6,0.1,3.1-0.2,4.6-0.9c0.8-0.4,1.4-0.8,2.1-1.4c0,0,0.1-0.1,0.1-0.1c0,0,0,0,0,0
      c-0.2,0.4-0.4,0.7-0.7,1.1c-1.4,1.9-3.3,3.2-5.6,3.6c-4.5,0.7-8.2-0.8-11-4.4c-1-1.3-1.6-2.7-1.9-4.3c-0.4-2-0.1-4,1-5.8
      c0.2-0.4,0.5-0.7,0.8-1.1C13.5,6.2,13.6,6.2,13.7,6.1C13.6,6.1,13.6,6.1,13.7,6.1z"/>
    <path d="M31.3,11.9c-0.4,0.9-0.9,1.7-1.7,2.2c-1,0.8-2.1,1.2-3.2,1.4c-1.6,0.3-3.2,0.1-4.6-0.7
      c-2.2-1.1-3.7-2.8-4.3-5.2c-0.3-1.4-0.3-2.7,0.3-4c0.2-0.5,0.6-1,0.9-1.4c-0.1,0.4-0.1,0.7-0.1,1c-0.2,2.3,0.3,4.3,1.9,6
      c1.3,1.3,2.8,2.2,4.5,2.6c2.3,0.5,4.4,0,6.1-1.7C31.2,11.9,31.3,11.9,31.3,11.9z"/>
    <path d="M30.5,8.5c-0.5,0.8-1.3,1.3-2.2,1.5c-1.3,0.2-2.6,0.1-3.7-0.7c-1.3-0.8-2-2-2.3-3.5c-0.2-1,0.2-1.9,0.8-2.7
      c0,0.2,0,0.3,0,0.4c-0.2,2,0.6,3.5,2.2,4.6C26,8.5,26.7,8.8,27.6,9c1,0.1,1.9,0,2.7-0.4C30.3,8.5,30.4,8.5,30.5,8.5z"/>
  </g>
  <g class="fill-foreground">
    <path d="M5.9,32.6c-0.2,0-0.5-0.1-0.7-0.1c0.2-0.8,0.4-1.5,0.6-2.3C5.8,30.1,5.9,30,6,30c0.3-0.1,0.6-0.1,0.9-0.1
      c0.3,0,0.5-0.2,0.7-0.4c0.7-1.2,0.9-2.5,1.2-3.9c0.3-1.4,0.6-2.7,0.9-4.1c0.1-0.3,0.2-0.4,0.5-0.4c0.8,0,1.6,0,2.5,0
      c-0.1,0.4-0.2,0.8-0.3,1.2c-0.6,2.4-1.1,4.9-1.7,7.3c-0.1,0.3-0.2,0.6-0.3,1C10,31.7,9.2,32.4,8,32.5c-0.1,0-0.1,0-0.2,0.1
      C7.2,32.6,6.6,32.6,5.9,32.6z"/>
    <path d="M24.8,25.7c0.5,0,0.9,0.1,1.4,0.1c-0.2,0.9-0.4,1.7-0.6,2.5c-0.7,0-1.4,0-2.2,0c-2.1,0-4.1,0-6.2-0.1
      c-1.9-0.1-3.3-1.4-3.5-3.3c-0.3-2.4,0.2-4.7,1.6-6.8c1.5-2.2,3.6-3.1,6.2-3c1.6,0.1,3,0.6,3.9,2c0.8,1.2,1.1,2.5,0.8,3.9
      c-0.4,1.5-0.9,2.9-1.3,4.3C24.9,25.4,24.9,25.5,24.8,25.7z M21.9,25.7c0.5-1.8,1-3.6,1.3-5.4c0.2-0.9-0.2-1.7-1-2.2
      c-1.2-0.8-3.6-0.5-4.4,1.3c-0.6,1.3-0.9,2.7-1,4.1c-0.1,1,0.4,1.8,1.5,2C19.5,25.7,20.7,25.7,21.9,25.7z"/>
    <path d="M13.4,18c-0.2,0.8-0.3,1.5-0.5,2.2c0,0.1-0.1,0.1-0.2,0.1c-0.9,0-1.8,0-2.8,0c0.2-0.8,0.3-1.5,0.5-2.2
      c0-0.1,0.1-0.2,0.2-0.2C11.5,18,12.4,18,13.4,18z"/>
  </g>
</svg>
