<?xml version="1.0" encoding="utf-8"?>
<svg version="1.0" xmlns="http://www.w3.org/2000/svg" width="36px" height="36px" viewBox="0 0 36 36" xml:space="preserve">
  <g class="fill-foreground">
    <path d="M14.1,9.7h-2.8H8.6V26h2.8v-5.9h2.8c0,0,4.6-0.6,4.6-5.4S14.1,9.7,14.1,9.7z M13.7,17.5h-2.3V12H14c0,0,2,0.3,2,2.9
    S13.7,17.5,13.7,17.5z"/>
    <path d="M26.9,17v-2.6c0,0-1.4-0.8-3.1-0.9c-2.6-0.2-4.3,1.7-4.3,3.5s1.4,3.2,2.7,3.9c1.3,0.6,2.8,1.2,2.2,2.2
    c-0.6,1-1.9,1-2.8,0.6c-1.1-0.5-2.1-0.9-2.1-0.9v2.8c0,0,1.2,0.8,3.6,0.8s4.4-1.6,4.4-3.7s-2-3.5-3.1-3.9c-1.1-0.5-2.1-1-1.6-2.4
    C23.4,15,26.9,17,26.9,17z"/>
  </g>
</svg>
