<?xml version="1.0" encoding="utf-8"?>
<svg version="1.0" xmlns="http://www.w3.org/2000/svg" width="48" height="48" viewBox="0 0 24 24">
  <path class="fill-background" d="M15.4,5.6c0.2-0.1,0.4-0.2,0.5-0.4c0.2-0.2,0.4-0.2,0.6,0c0.1,0.1,0.2,0.2,0.5,0.3c0-0.3,0-0.4,0-0.6c0-0.4,0-0.8-0.1-1.2
		c0-0.2,0.1-0.4,0.3-0.4c0.2,0,0.3,0,0.5,0c0.8,0,1.2,0.3,1.2,1.1c0,0.1,0,0.2,0,0.4c0,4.8,0,9.6,0,14.4c0,0.3-0.1,0.6-0.1,0.8
		c-0.1,0.3-0.5,0.6-1,0.6c-1.4-0.1-2.9-0.1-4.3-0.2c-1.9-0.1-3.9-0.2-5.8-0.3c-0.3,0-0.6,0-1,0c-0.7,0-1.2-0.4-1.2-1.2
		c0-0.4,0-0.8,0-1.3c-0.1-2.7-0.2-5.3-0.3-8c0-0.9,0-1.9-0.1-2.8c0-0.6-0.1-1.1-0.1-1.7c0-0.6,0.4-1,1-1.1c2.3-0.1,4.6-0.3,6.9-0.4
		c0.7,0,1.4-0.1,2.1-0.1c0.3,0,0.4,0.1,0.4,0.4c0,0.4,0,0.9-0.1,1.3C15.4,5.3,15.4,5.4,15.4,5.6z M10,13.6C10,13.6,10,13.6,10,13.6
		c-0.1,0-0.2,0-0.3,0c-0.9,0-0.9,0-0.9,0.9c0,0,0,0.1,0,0.1c0.1,1.1,0.6,1.9,1.6,2.3c1.1,0.4,2.3,0.4,3.4,0.1
		c0.6-0.2,1.2-0.6,1.5-1.2c0.8-1.4,0.4-3.1-1-4c-0.6-0.4-1.3-0.7-1.9-1.1c-0.3-0.2-0.7-0.5-0.9-0.8c-0.2-0.3-0.2-0.7,0-1
		c0.2-0.3,0.6-0.4,1-0.3c0.4,0.1,0.6,0.4,0.6,0.7c0,0.1,0.1,0.2,0.1,0.4c0,0.2,0.1,0.4,0.3,0.4c0.6,0,1.2-0.1,1.8-0.1
		c0.1,0,0.1-0.1,0.1-0.2c0.1-1.2-0.5-2.4-1.6-2.9C13,6.5,12,6.5,11,6.8C10.2,7,9.5,7.4,9.1,8.2c-0.6,1.5-0.2,3,1.2,3.9
		c0.5,0.3,1.1,0.6,1.6,1c0.5,0.3,0.9,0.6,1.1,1.1c0.2,0.4,0,0.9-0.4,1.1c-0.5,0.2-1.1,0.1-1.2-0.3c-0.1-0.3-0.1-0.6-0.2-0.9
		c0-0.2-0.1-0.4-0.3-0.4C10.6,13.7,10.3,13.6,10,13.6z"/>
</svg>
