<?xml version="1.0" encoding="utf-8"?>
<svg version="1.0" xmlns="http://www.w3.org/2000/svg" width="36px" height="36px" viewBox="0 0 36 36" xml:space="preserve">
	<path class="fill-foreground stroke-none" d="M14,9.4h-3.5l-4.9,17h3.2l1.3-4.6h4.2l1.3,4.6h3.2L14,9.4z M10.4,19.2l1.6-6.5l1.5,6.5H10.4z"/>
	<path class="fill-foreground stroke-none" d="M30.4,21v-2.7c0-2.8-2.1-4.8-5.2-4.8c-3.3,0-5.2,1.9-5.2,5.4v2.2c0,3.4,2.1,5.4,5.4,5.4c3.1,0,5.1-1.7,5.1-4.4v-0.3h-2.2
		l-0.3,0.2v0.3c0,1.8-1.8,1.9-2.6,1.9c-2,0-2.8-1-2.8-3.2V21H30.4z M27.8,18.3v0.5h-5.2c0-2,0.9-2.8,2.9-2.8
		C27,15.8,27.8,16.6,27.8,18.3z"/>
</svg>
