<?xml version="1.0" encoding="utf-8"?>
<svg version="1.0" xmlns="http://www.w3.org/2000/svg" width="36px" height="36px" viewBox="0 0 36 36" xml:space="preserve">
	<path class="fill-foreground stroke-none" d="M22.1,26.7h2.4v-9.9c0,0,0.4-0.3,1.3-0.3c0.9,0,1.8,0,1.8,0V14c0,0-2.2-0.2-3.6,0.2c-1.2,0.3-2.1,0.9-2.1,0.9
		S22.2,26.6,22.1,26.7z"/>
	<path class="fill-foreground stroke-none" d="M14.9,9.3H9.5v17.1h2.4l0.2-5.8h2.4c0,0,5.1-0.6,5.1-5.7S14.9,9.3,14.9,9.3z M14,17.9h-2.1v-5.7l2.7-0.2
		c0,0,2.2,0.2,2.2,2.8S14,17.9,14,17.9z"/>
</svg>
