<?xml version="1.0" encoding="utf-8"?>
<svg version="1.0" xmlns="http://www.w3.org/2000/svg" width="48" height="48" viewBox="0 0 24 24">
  <path class="fill-foreground" d="M13.7,12.9c-0.5,0-0.8,0.3-1,0.7H6.1l0,0c-1.1,0-2-0.9-2-2s0.9-2,2-2l0,0h0l0,0h0.9c0-0.2,0.1-0.5,0.2-0.7
  c0-0.1,0.1-0.1,0.1-0.2c0.5-0.8,1.3-1.3,2.3-1.3c0.9,0,1.7,0.5,2.1,1.1c0.3-0.1,0.6-0.2,0.9-0.3c-0.6-1-1.8-1.7-3-1.7
  C8.3,6.4,7,7.3,6.5,8.6c0,0,0,0,0,0l0,0c0,0,0,0,0,0H6.1c-1.6,0-2.9,1.3-2.9,3s1.3,2.9,2.9,2.9h6.5c0.2,0.4,0.6,0.7,1,0.7
  c0.6,0,1.1-0.5,1.1-1.1C14.8,13.4,14.3,12.9,13.7,12.9z"/>
  <path class="fill-border" d="M17.2,17.9c2,0,3.7-1.7,3.7-3.6s-1.6-3.5-3.5-3.6c-0.7-1.3-2-2.2-3.6-2.2c-1.9,0-3.5,1.4-3.9,3.1
  c-0.9,0.1-1.7,0.6-2.3,1.3h4.8c0.3-0.4,0.8-0.7,1.4-0.7c1,0,1.8,0.8,1.8,1.8c0,1-0.8,1.8-1.8,1.8c-0.6,0-1.1-0.2-1.4-0.7H7
  c0.2,1.5,1.4,2.7,3,2.7L17.2,17.9L17.2,17.9z"/>
</svg>
