<?xml version="1.0" encoding="utf-8"?>
<svg version="1.1" xmlns="http://www.w3.org/2000/svg" width="36" height="36" viewBox="0 0 36 36">
	<g class="fill-foreground">
		<path d="M14.3,10.3h-3.2L6.8,25.7h2.9l1.2-4.2h3.8l1.2,4.2h2.9L14.3,10.3z M11,19.2l1.5-5.8l1.3,5.8H11z"/>
		<path d="M29.2,20.8v-2.5c0-2.6-1.9-4.4-4.7-4.4c-3,0-4.7,1.7-4.7,4.9v2c0,3,1.9,4.9,4.9,4.9c2.8,0,4.6-1.6,4.6-4v-0.2h-2L27,21.7
			V22c0,1.6-1.6,1.7-2.4,1.7c-1.8,0-2.6-0.9-2.6-2.9l0,0H29.2z M26.9,18.4v0.4h-4.7c0-1.8,0.8-2.6,2.6-2.6
			C26.1,16.1,26.9,16.9,26.9,18.4z"/>
	</g>
</svg>
