<?xml version="1.0" encoding="utf-8"?>
<svg version="1.0" xmlns="http://www.w3.org/2000/svg" width="36px" height="36px" viewBox="0 0 36 36" xml:space="preserve">
  <g class="fill-border">
    <polygon points="12.5,8 16.4,4.4 21.1,13.3 	"/>
    <polygon points="16.4,22.3 21.1,13.3 12.5,18.8 	"/>
    <polygon points="12.5,16.4 12.5,10.3 21.1,13.3 	"/>
  </g>
  <g class="fill-background--medium">
    <polygon points="12.5,8 6,8 7.7,4.4 16.4,4.4 	"/>
    <polygon points="16.4,22.3 7.6,22.3 5.9,18.8 12.5,18.8 	"/>
    <polygon points="12.5,16.4 12.5,10.3 10.6,9.5 6.5,13.4 10.7,17.2 	"/>
  </g>
  <g class="fill-alwaysdark">
    <polygon points="21.1,13.3 12.5,8 6,8 		"/>
    <polygon points="5.9,18.8 12.5,18.8 21.1,13.3 	"/>
  </g>
  <g class="fill-foreground">
    <path d="M6.7,28.6l1.7-0.3c0,0.5,0.2,0.9,0.4,1.2C9.1,29.9,9.3,30,9.7,30c0.4,0,0.7-0.2,0.9-0.5c0.2-0.3,0.4-0.8,0.4-1.4
      c0-0.5-0.1-1-0.4-1.3c-0.2-0.3-0.5-0.5-0.9-0.5c-0.2,0-0.5,0.1-0.8,0.2l0.2-1.7c0.5,0,0.8-0.1,1.1-0.4c0.3-0.3,0.4-0.6,0.4-1.1
      c0-0.4-0.1-0.7-0.3-0.9c-0.2-0.2-0.4-0.3-0.7-0.3c-0.3,0-0.5,0.1-0.8,0.4c-0.2,0.3-0.3,0.6-0.4,1.1l-1.6-0.3c0.2-1,0.5-1.8,1-2.2
      c0.5-0.5,1.1-0.7,1.8-0.7c0.8,0,1.5,0.3,2,0.9s0.7,1.2,0.7,2c0,0.5-0.1,0.9-0.3,1.3s-0.5,0.7-1,1c0.5,0.1,0.9,0.4,1.2,0.9
      c0.3,0.5,0.5,1,0.5,1.7c0,1-0.3,1.9-0.9,2.5c-0.6,0.7-1.3,1-2.2,1c-0.8,0-1.5-0.3-2-0.8S6.8,29.6,6.7,28.6z"/>
    <path d="M14.2,20.5h3.4c0.8,0,1.5,0.1,1.9,0.3c0.4,0.2,0.8,0.5,1.2,1c0.4,0.4,0.6,1,0.9,1.8c0.2,0.7,0.3,1.6,0.3,2.7
      c0,1-0.1,1.8-0.3,2.5c-0.2,0.7-0.5,1.3-0.8,1.7c-0.3,0.4-0.7,0.7-1.2,0.9c-0.5,0.2-1.1,0.3-1.8,0.3h-3.5V20.5z M16,22.3v7.4h1.4
      c0.6,0,1-0.1,1.3-0.2c0.3-0.1,0.5-0.3,0.7-0.5c0.2-0.2,0.3-0.6,0.4-1.1s0.2-1.1,0.2-1.9c0-0.8-0.1-1.5-0.2-1.9
      c-0.1-0.5-0.3-0.8-0.5-1.1c-0.2-0.3-0.5-0.5-0.9-0.5c-0.3-0.1-0.8-0.1-1.5-0.1H16z"/>
    <path d="M22.9,27.9l1.8-0.2c0.2,1.4,0.9,2.1,2,2.1c0.6,0,1-0.1,1.3-0.4c0.3-0.3,0.5-0.7,0.5-1.1c0-0.3-0.1-0.5-0.2-0.6
      c-0.1-0.2-0.3-0.3-0.5-0.4s-0.8-0.3-1.7-0.6c-0.8-0.2-1.4-0.5-1.7-0.8c-0.4-0.3-0.7-0.6-0.9-1.1c-0.2-0.5-0.3-0.9-0.3-1.5
      c0-0.6,0.1-1.2,0.4-1.6c0.3-0.5,0.7-0.9,1.1-1.1c0.5-0.2,1.1-0.4,1.8-0.4c1.1,0,1.9,0.3,2.5,0.9c0.6,0.6,0.9,1.4,1,2.5l-1.8,0.1
      c-0.1-0.6-0.3-1-0.5-1.3c-0.3-0.2-0.6-0.4-1.1-0.4s-0.9,0.1-1.1,0.3c-0.3,0.2-0.4,0.5-0.4,0.8c0,0.3,0.1,0.6,0.4,0.8
      s0.8,0.4,1.7,0.7c0.9,0.3,1.6,0.5,2,0.8c0.4,0.3,0.7,0.7,0.9,1.1c0.2,0.5,0.3,1,0.3,1.7c0,1-0.3,1.8-0.9,2.4c-0.6,0.7-1.5,1-2.8,1
      C24.4,31.8,23.2,30.5,22.9,27.9z"/>
  </g>
</svg>
