<?xml version="1.0" encoding="utf-8"?>
<svg version="1.0" xmlns="http://www.w3.org/2000/svg" width="48" height="48" viewBox="0 0 24 24">
  <path fill="#949494" d="M6,13.7c0,0-2.8,3.8-0.6,6s5.7-0.2,5.7-0.2s2.4-1.4,3.8-1.6c1.5-0.2,4.2-0.2,4.4-2.6
    c0.2-2.4-2.1-3.4-2.1-3.4h-4.4c0,0-1,3.1-2.5,4.1s-2.4,1.4-2.4,1.4s-1.1-0.5-1.5-1.2c-0.4-0.7-0.5-1.7-0.1-2.5
    C6.8,12.9,6,13.7,6,13.7z"/>
  <g>
    <path fill="#949494" d="M6.5,13.5C5.7,13.5,5,12.8,5,12c0-0.9,0.7-1.6,1.6-1.6s1.6,0.7,1.6,1.6C8.1,12.8,7.4,13.5,6.5,13.5z"/>
    <path fill="#FFFFFF" d="M6.5,10.6c0.7,0,1.3,0.6,1.3,1.3c0,0.7-0.6,1.3-1.3,1.3c-0.7,0-1.3-0.6-1.3-1.3C5.2,11.2,5.8,10.6,6.5,10.6
      M6.5,10.1c-1,0-1.8,0.8-1.8,1.8s0.8,1.8,1.8,1.8S8.4,13,8.4,12S7.5,10.1,6.5,10.1L6.5,10.1z"/>
  </g>
  <polygon fill="#949494" points="10.5,3.6 12.8,10.3 15,5.6 17.2,10.1 19.4,3.6 "/>
  <g>
    <path fill="#949494" d="M12.2,13.5c-0.9,0-1.6-0.7-1.6-1.6c0-0.9,0.7-1.6,1.6-1.6s1.6,0.7,1.6,1.6C13.8,12.8,13.1,13.5,12.2,13.5z"
      />
    <path fill="#FFFFFF" d="M12.2,10.6c0.7,0,1.3,0.6,1.3,1.3c0,0.7-0.6,1.3-1.3,1.3s-1.3-0.6-1.3-1.3C10.9,11.2,11.5,10.6,12.2,10.6
      M12.2,10.1c-1,0-1.8,0.8-1.8,1.8s0.8,1.8,1.8,1.8s1.8-0.8,1.8-1.8S13.2,10.1,12.2,10.1L12.2,10.1z"/>
  </g>
  <g>
    <path fill="#949494" d="M17.9,13.5c-0.9,0-1.6-0.7-1.6-1.6c0-0.9,0.7-1.6,1.6-1.6s1.6,0.7,1.6,1.6C19.5,12.8,18.8,13.5,17.9,13.5z"
      />
    <path fill="#FFFFFF" d="M17.9,10.6c0.7,0,1.3,0.6,1.3,1.3c0,0.7-0.6,1.3-1.3,1.3s-1.3-0.6-1.3-1.3C16.6,11.2,17.2,10.6,17.9,10.6
      M17.9,10.1c-1,0-1.8,0.8-1.8,1.8s0.8,1.8,1.8,1.8s1.8-0.8,1.8-1.8S18.9,10.1,17.9,10.1L17.9,10.1z"/>
  </g>
</svg>
