<?xml version="1.0" encoding="utf-8"?>
<svg version="1.0" xmlns="http://www.w3.org/2000/svg" width="48" height="48" viewBox="0 0 24 24">
  <path class="fill-background--medium" d="M20.2,3.2c-0.8,0.8-1.4,2-1.9,3c-0.7,1.5-1.2,2.6-1.9,2.6c-0.7,0-1.2-1.1-1.9-2.6c-0.8-1.7-1.8-3.9-3.9-3.9
    c-5.4,0-3.1,2.1-3.9,3.9C5.9,7.7,3.3,11,2.6,11l2.1,0c2.2,0,3.1-2.1,3.9-3.9c0.7-1.5,1.2-2.6,1.9-2.6c0.7,0,1.2,1.1,1.9,2.6
    c0.8,1.7,1.8,3.9,3.9,3.9c2.1,0,3-1.9,3.8-3.6V3.2z"/>
  <path class="fill-background" d="M14.3,11c-2.2,0-3.2-2.1-3.9-3.9C9.7,5.6,9.1,4.6,8.4,4.6c-0.7,0-1.2,1.1-1.9,2.6C5.7,8.9,4.7,11,2.6,11V8.8
    c0.7,0,1.2-1.1,1.9-2.6c0.8-1.7,1.8-3.9,3.9-3.9c2.2,0,3.2,2.1,3.9,3.9c0.7,1.5,1.2,2.6,1.9,2.6c0.7,0,1.2-1.1,1.9-2.6
    C17,4.5,18,2.4,20.2,2.4v2.2c-0.7,0-1.2,1.1-1.9,2.6C17.5,8.9,16.5,11,14.3,11z"/>
  <g class="fill-foreground">
    <path d="M3.2,18h1.2v1.2H3.2V18z"/>
    <path d="M5.3,12.8h1.2l2.9,4.7h0v-4.7h1.1v6.4H9.3l-2.9-4.7h0v4.7H5.3V12.8z"/>
    <path d="M11.4,12.8H16v1h-3.5v1.7h3.2v0.9h-3.2v1.9h3.5v1h-4.7V12.8z"/>
    <path d="M16,12.8h5.2v1h-2v5.4H18v-5.4h-2V12.8z"/>
  </g>
</svg>
