<?xml version="1.0" encoding="utf-8"?>
<svg version="1.0" xmlns="http://www.w3.org/2000/svg" width="36px" height="36px" viewBox="0 0 36 36">
  <g class="stroke-foreground">
    <rect x="4.5" y="14.5" width="4" height="4"/>
    <rect x="8.5" y="14.5" width="4" height="4"/>
    <rect x="12.5" y="14.5" width="4" height="4"/>
    <rect x="16.5" y="14.5" width="4" height="4"/>
    <rect x="8.5" y="10.5" width="4" height="4"/>
    <rect x="12.5" y="10.5" width="4" height="4"/>
    <rect x="16.5" y="10.5" width="4" height="4"/>
    <rect x="16.5" y="6.5" width="4" height="4"/>
    <rect x="20.5" y="14.5" width="4" height="4"/>
  </g>
  <path class="fill-background" d="M32.3,16c-0.7-0.3-1.6-0.2-2.3-0.3c-0.1,0-0.2-0.1-0.2-0.2c-0.1-0.3-0.2-0.5-0.4-0.8c-0.3-0.5-0.6-0.9-1-1.3
    c-0.3-0.3-0.7-0.6-1.1-0.6c-0.2,0-0.6,0.3-0.7,0.5c-0.3,0.5-0.6,1.1-0.7,1.7c-0.1,0.8,0,1.6-0.1,2.4c0,0.1-0.5,0.2-1,0.4l0,0
    L6.9,17.8c-0.3,0-0.5,0-0.6,0H4.1c0,0,0,0,0,0c-0.3,0-0.7,0.4-0.8,0.5c0,2.1,0.2,4.2,1.3,6c0.5,0.9,1.2,1.9,2,2.6
    c1.5,1.3,3.4,1.9,5.3,2.1c2,0.3,4,0,5.9-0.5c0.9-0.2,1.8-0.6,2.7-1c0.8-0.4,1.7-0.7,2.4-1.2c1.1-0.7,2.1-1.5,3.1-2.4
    c0.9-0.8,1.6-1.8,2.3-2.7c0.3-0.4,0.6-1,1-1.1c1.3-0.3,2.4-0.9,3.4-1.8c0.4-0.4,1-0.8,1-1.2C33.8,16.3,32.8,16.2,32.3,16z"/>
</svg>
