<?xml version="1.0" encoding="utf-8"?>
<svg version="1.0" xmlns="http://www.w3.org/2000/svg" width="36px" height="36px" viewBox="0 0 36 36" xml:space="preserve">
	<path class="fill-foreground stroke-none" d="M18.1,18.8c0-0.9,0.5-1.6,1.1-2.1c0.6-0.5,1.5-0.9,2.4-0.9c0.9,0,1.7,0.3,2.4,0.9c0.6,0.6,1.1,1.2,1.1,2.1
		c0,0.9-0.3,1.7-0.9,2.2c-0.6,0.6-1.5,1.1-2.6,1.1s-1.9-0.5-2.5-1.1C18.4,20.5,18.1,19.6,18.1,18.8z"/>
	<path class="fill-background stroke-none" d="M12.7,20.5c0,0.3,0.2,0.9,0.3,1.5c0.3,1,0.9,2.1,1.7,2.9c0.8,0.9,1.8,1.7,3,2.1c1.2,0.6,2.5,0.8,3.9,0.8
		c1.4,0,2.7-0.3,3.9-0.8c1.2-0.4,2.1-1.2,3-2.1c0.8-0.9,1.3-1.8,1.6-2.8c0.2-0.6,0.3-1,0.3-1.7c0-0.6,0-1,0-1.6c-0.1-1-0.4-2.1-1.1-3
		c-0.4-0.8-1.2-1.5-1.9-2.1l0,0l-7.9-6l0,0c-0.5-0.5-1.4-0.5-2,0c-0.6,0.4-0.6,1-0.2,1.5l0,0l3.3,2.7h-10l0,0c-0.9,0-1.7,0.6-1.8,1.2
		c-0.3,0.6,0.1,1.2,1,1.2l0,0h5.1l-9.1,7l0,0c-0.9,0.6-1.2,1.8-0.6,2.4c0.6,0.8,1.7,0.8,2.5,0l5-4C12.8,19.6,12.7,20.2,12.7,20.5z
		M25.4,22.3c-1.1,1.1-2.4,1.7-4.1,1.7c-1.5,0-3-0.6-4-1.7c-0.5-0.4-0.9-1-1.1-1.6s-0.3-1.2-0.3-2c0-0.6,0.3-1.2,0.6-1.8
		c0.3-0.6,0.8-1.1,1.2-1.5c1.1-0.8,2.2-1.2,3.6-1.2c1.3,0,2.6,0.5,3.6,1.2c0.4,0.4,0.9,0.9,1.2,1.5c0.3,0.6,0.4,1.2,0.6,1.8
		c0,0.6,0,1.4-0.3,2C26.3,21.2,25.9,21.8,25.4,22.3z"/>
</svg>
