<?xml version="1.0" encoding="utf-8"?>
<svg version="1.0" xmlns="http://www.w3.org/2000/svg" width="36px" height="36px" viewBox="0 0 36 36" xml:space="preserve">>
	<g>
		<polygon class="fill-foreground" points="25.1,17.7 25.1,16.5 26.5,16.5 26.5,15.1 27.8,15.1 27.8,13.7 29.2,13.7 29.2,12.3 30.6,12.3 
			30.6,9.1 21.9,9.1 21.9,10.8 20.7,10.8 20.7,12.2 19.6,12.2 19.6,13.6 18.4,13.6 18.4,14.9 18.3,14.9 17.2,14.9 17,14.9 17,13.6 
			15.9,13.6 15.9,12.2 14.8,12.2 14.8,10.8 13.5,10.8 13.5,9.1 4.9,9.1 4.9,12.3 6.3,12.3 6.3,13.7 7.6,13.7 7.6,15.1 9,15.1 
			9,16.5 10.4,16.5 10.4,17.7 11.9,17.7 11.9,19.4 10.4,19.4 10.4,20.6 9,20.6 9,22 7.6,22 7.6,23.4 6.3,23.4 6.3,24.8 4.9,24.8 
			4.9,28 13.5,28 13.5,26.3 14.8,26.3 14.8,24.9 15.9,24.9 15.9,23.5 17,23.5 17,22.2 17.2,22.2 18.3,22.2 18.4,22.2 18.4,23.5 
			19.6,23.5 19.6,24.9 20.7,24.9 20.7,26.3 21.9,26.3 21.9,28 30.6,28 30.6,24.8 29.2,24.8 29.2,23.4 27.8,23.4 27.8,22 26.5,22 
			26.5,20.6 25.1,20.6 25.1,19.4 23.6,19.4 23.6,17.7 		"/>
	</g>
	<g class="fill-none stroke-background--medium" stroke-width="1">
		<line stroke-miterlimit="10" x1="4.9" y1="12.3" x2="15.9" y2="12.3"/>
		<line stroke-miterlimit="10" x1="6.3" y1="13.7" x2="17" y2="13.7"/>
		<line stroke-miterlimit="10" x1="7.6" y1="15.1" x2="27.8" y2="15.1"/>
		<line stroke-miterlimit="10" x1="14.8" y1="10.8" x2="4.9" y2="10.8"/>
		<line stroke-miterlimit="10" x1="18.4" y1="13.6" x2="29.2" y2="13.6"/>
		<line stroke-miterlimit="10" x1="19.6" y1="12.2" x2="30.6" y2="12.2"/>
		<line stroke-miterlimit="10" x1="20.7" y1="10.8" x2="30.6" y2="10.8"/>
		<line stroke-miterlimit="10" x1="9" y1="16.5" x2="26.5" y2="16.5"/>
		<line stroke-miterlimit="10" x1="10.4" y1="17.7" x2="25.1" y2="17.7"/>
		<line stroke-miterlimit="10" x1="4.9" y1="24.9" x2="15.9" y2="24.9"/>
		<line stroke-miterlimit="10" x1="6.3" y1="23.5" x2="17" y2="23.5"/>
		<line stroke-miterlimit="10" x1="7.6" y1="22.1" x2="27.8" y2="22.1"/>
		<line stroke-miterlimit="10" x1="14.8" y1="26.4" x2="4.9" y2="26.4"/>
		<line stroke-miterlimit="10" x1="18.4" y1="23.6" x2="29.2" y2="23.6"/>
		<line stroke-miterlimit="10" x1="19.6" y1="25" x2="30.6" y2="25"/>
		<line stroke-miterlimit="10" x1="20.7" y1="26.4" x2="30.6" y2="26.4"/>
		<line stroke-miterlimit="10" x1="9" y1="20.7" x2="26.5" y2="20.7"/>
		<line stroke-miterlimit="10" x1="10.4" y1="19.5" x2="25.1" y2="19.5"/>
	</g>
</svg>
