<?xml version="1.0" encoding="utf-8"?>
<svg version="1.0" xmlns="http://www.w3.org/2000/svg" width="48" height="48" viewBox="0 0 24 24">
  <g className="fill-foreground">
    <path d="M15.1,6.8c1.4-0.1,2.9-0.1,4.1,0.6c1,0.5,1.5,1.6,1.5,2.7c0,0.1-0.2,0.2-0.3,0.2c-0.4,0-0.8,0-1.2,0c-0.2,0-0.3-0.2-0.3-0.3
      c-0.1-0.5-0.4-1-0.9-1.3c-0.7-0.4-1.6-0.4-2.4-0.3c-0.6,0-1.2,0.1-1.7,0.4c-0.4,0.3-0.5,0.8-0.4,1.2c0.1,0.3,0.5,0.4,0.8,0.5
      c1.7,0.4,3.4,0.4,5.1,1c0.7,0.2,1.3,0.7,1.6,1.4c0.3,1,0.2,2.1-0.5,2.9c-0.5,0.6-1.3,1-2.1,1.2c-1.1,0.2-2.2,0.2-3.2,0.1
      c-1-0.1-2.1-0.4-2.8-1.1c-0.7-0.6-1-1.5-1-2.4c0-0.1,0.2-0.2,0.3-0.2c0.4,0,0.8,0,1.2,0c0.2,0,0.3,0.1,0.3,0.3
      c0.1,0.5,0.3,1,0.7,1.3c0.8,0.5,1.9,0.5,2.8,0.5c0.8,0,1.7,0,2.3-0.6c0.3-0.3,0.4-0.8,0.3-1.2c-0.1-0.4-0.5-0.5-0.8-0.6
      c-1.6-0.5-3.4-0.3-5.1-0.9c-0.7-0.2-1.3-0.7-1.6-1.4c-0.4-1-0.2-2.2,0.6-2.9C13.1,7.2,14.1,6.9,15.1,6.8"/>
    <path d="M5.8,16.9V8.5h-3V6.8h8v1.7h-3v8.3H5.8z"/>
  </g>
</svg>
