<?xml version="1.0" encoding="utf-8"?>
<svg version="1.0" xmlns="http://www.w3.org/2000/svg" width="36" height="36" viewBox="0 0 24 24">
  <path class="fill-background--medium" d="M8.1,11.5c-0.8,0.3-1.5,0.6-2.3,0.9c-0.9,0.4-1.9,0.8-2.9,1.2c1.4,1,2.7,1.9,4,2.8c0.8-0.2,1.4,0,1.9,0.8
    c0.7,1.2,1.2,2.5,1.8,3.8c0,0.1,0.2,0.2,0.2,0.2c0.9-0.2,1.7-0.6,2.3-1.3c0.9-1.1,1.7-2.2,2.6-3.3c0.6-0.8,1.7-1.2,2.5-0.8
    c0.5,0.3,1,0.7,1.4,1c0.5,0.4,0.9,0.8,1.4,1.2c0-0.1,0-0.1,0-0.1c-0.9-2.7-1.9-5.3-2.8-8c-0.6-1.7-1.3-3.5-2.1-5.1
    c-0.5-1-1.1-1.6-1.9-0.2c-0.2,0.4-0.5,0.8-0.7,1.2c-0.8,1.4-1.8,2.7-3.5,3.3C9.1,9.6,8.5,10.5,8.1,11.5z"/>
  <path class="fill-border" d="M10.3,13.4c-0.6,1-1.5,1.7-2.4,2.4c-0.3,0.2-0.7,0.5-1,0.7c-1.3-0.9-2.6-1.8-4-2.8c1-0.4,1.9-0.8,2.9-1.2
    c0.7-0.3,1.5-0.6,2.3-0.9c0.1,0.1,0.2,0.2,0.3,0.3C9,12.3,9.6,12.9,10.3,13.4z"/>
  <path class="fill-foreground" d="M10.3,13.4c-0.7-0.5-1.3-1.1-2-1.6c-0.1-0.1-0.2-0.2-0.3-0.3c0.4-1,1-1.9,2-2.2c1.6-0.6,2.6-1.9,3.5-3.3
    c0.2-0.4,0.5-0.8,0.7-1.2c-0.4,0.9-0.8,1.8-1.1,2.6c-0.7,1.5-1.3,3.1-2,4.6C10.9,12.5,10.5,13,10.3,13.4z"/>
</svg>
 