<?xml version="1.0" encoding="utf-8"?>
<svg version="1.0" xmlns="http://www.w3.org/2000/svg" width="36px" height="36px" viewBox="0 0 36 36" xml:space="preserve">>
	<path class="fill-border" d="M16.9,29.2c-1.7-0.2-3.5-0.8-5-1.8c-1.3-0.8-1.5-1.2-1.5-1.8c0-1.4,1.5-3.7,4-6.4
	c1.4-1.5,3.5-3.3,3.7-3.3c0.4,0.1,3.8,3.4,5.1,4.9c2,2.5,2.9,4.5,2.5,5.4c-0.4,0.7-2.6,2-4.2,2.5C20.1,29.1,18.3,29.3,16.9,29.2
	L16.9,29.2z M8.7,24.2c-1-1.6-1.6-3.2-1.8-5.5C6.8,17.9,6.8,17.5,7,16c0.3-1.9,1.4-4.2,2.7-5.5c0.6-0.6,0.6-0.6,1.3-0.4
	c0.8,0.3,1.7,0.9,3.1,2.1l0.8,0.7l-0.4,0.5c-2,2.5-4.2,6.1-5,8.2c-0.4,1.2-0.6,2.4-0.4,2.9C9.2,24.9,9.1,24.8,8.7,24.2z M27,24.4
	c0.1-0.5,0-1.4-0.3-2.4c-0.7-2-2.9-5.8-4.9-8.3l-0.6-0.8l0.7-0.6c0.9-0.8,1.5-1.3,2.2-1.8c0.5-0.3,1.3-0.6,1.6-0.6
	c0.2,0,0.9,0.7,1.5,1.5c0.9,1.3,1.5,2.8,1.9,4.3c0.2,1,0.2,3.2,0,4.2c-0.2,0.8-0.5,1.9-0.8,2.7c-0.3,0.6-0.9,1.6-1.1,2
	C26.9,24.8,26.9,24.8,27,24.4L27,24.4z M17.1,9.5c-0.9-0.5-2.4-1-3.2-1.1c-0.3,0-0.8-0.1-1.1-0.1c-0.7,0-0.6,0,0.4-0.5
	c0.9-0.4,1.6-0.7,2.6-0.9c1.1-0.2,3.2-0.2,4.3,0c1.2,0.3,2.6,0.8,3.4,1.3l0.2,0.1l-0.5,0c-1.1-0.1-2.6,0.4-4.3,1.2
	C18.5,9.8,18,10,18,10S17.5,9.8,17.1,9.5z"/>
</svg>
