<?xml version="1.0" encoding="utf-8"?>
<svg version="1.1" xmlns="http://www.w3.org/2000/svg" width="36" height="36" viewBox="0 0 36 36">
	<g class="fill-foreground">
		<path d="M13.9,9.5h-3.5L5.7,26.5h3.2l1.3-4.6h4.2l1.3,4.6h3.2L13.9,9.5z M10.3,19.3l1.6-6.4l1.4,6.4H10.3z"/>
		<path d="M30.3,21.1v-2.8c0-2.9-2.1-4.8-5.2-4.8c-3.3,0-5.2,1.9-5.2,5.4v2.2c0,3.3,2.1,5.4,5.4,5.4c3.1,0,5.1-1.8,5.1-4.4v-0.2h-2.2
			l-0.3,0.2v0.3c0,1.8-1.8,1.9-2.6,1.9c-2,0-2.9-1-2.9-3.2l0,0C22.4,21.1,30.3,21.1,30.3,21.1z M27.8,18.4v0.4h-5.2
			c0-2,0.9-2.9,2.9-2.9C26.9,15.9,27.8,16.8,27.8,18.4z"/>
	</g>
</svg>
