<?xml version="1.0" encoding="utf-8"?>
<svg version="1.0" xmlns="http://www.w3.org/2000/svg" width="36px" height="36px" viewBox="0 0 36 36" xml:space="preserve">
  <g>
    <path class="fill-background" d="M17.2,18c0.1-0.6-0.3-1.2-0.3-1.2l-4.5-0.8L4,23.3v6.4L17.2,18z"/>
    <path class="fill-background" d="M23,20.8L10.5,31.9h0.5h9.8c0,0,3.6-4,4.2-5.9C25.4,24.1,22.9,21.2,23,20.8z"/>
    <path class="fill-background" d="M23,20.1c0-0.3-0.1-0.5-0.2-0.8c-0.4-0.9-3.9-1.1-5-1.1L4,30.4v1.5h5.7L23,20.1z"/>
    <path class="fill-background" d="M27.7,16.9h-1.4c0,0-1.2,1.1-1.4,2.4c-0.2,1.3-0.4,1.8-1.2,2.3c-0.8,0.4-0.8,1,0.3,0.8c1.1-0.3,3.6-2.4,3.7-3.3
      S27.7,16.9,27.7,16.9z"/>
  </g>
  <g class="fill-foreground">
    <path d="M10.9,17.5c2.4-2.5,5.3-5.9,7-4.5c1.8,1.4-2.4,5.4-2.4,5.4S13.9,20,12.6,20S9.9,18.5,10.9,17.5z"/>
    <path d="M16.7,19.1c2.4-2.5,5.3-5.9,7-4.5S21.4,20,21.4,20s-1.6,1.7-2.9,1.7C17.2,21.7,15.7,20.1,16.7,19.1z"/>
    <path d="M19.2,24.5c2.4-2.5,5.3-5.9,7-4.5c1.8,1.4-2.4,5.4-2.4,5.4S22.2,27,20.9,27S18.1,25.5,19.2,24.5z"/>
    <path d="M26.8,4l-0.6,2.9c0,0,0.1,1.7,1.8,2.1c1.7,0.4,1.7,0.4,1.7,0.4s1.7,0.2,1.9-0.4c0.2-0.6,0-5,0-5H26.8z"/>
    <polyline points="26.3,16.9 28.1,9 29.7,9.4 27.7,16.9 "/>
  </g>
</svg>
