<?xml version="1.0" encoding="utf-8"?>
<svg version="1.0" xmlns="http://www.w3.org/2000/svg" width="36px" height="36px" viewBox="0 0 36 36" xml:space="preserve">
	<polygon class="fill-border stroke-none" points="28.2,6.9 23,10.9 23,19.6 9.2,9 7.1,10.1 23,25.8 28.3,23.9 "/>
	<polygon class="fill-background stroke-none" points="23,4.7 9.3,18.5 9.3,12.2 7.1,10.1 7.1,20.5 9.3,21.6 28.2,6.9 "/>
	<path class="fill-foreground stroke-none" d="M16.2,19.6c-0.2,0.6-0.2,0.9-0.2,2v4.9c0,1.1-0.3,1.8-0.9,2.2c-0.6,0.6-1.7,0.9-2.7,0.9c-1.4,0-2.2-0.3-3-1.1
		C9.2,28.4,9,28,8.7,27.3l2.4-0.8c0.3,0.9,0.6,1.2,1.4,1.2c0.9,0,1.2-0.4,1.2-1.2v-4.9c0-1.1,0-1.4-0.2-2H16.2z"/>
	<path class="fill-foreground stroke-none" d="M20,26.4c0,0.4,0.1,0.6,0.3,0.9c0.3,0.3,0.8,0.6,1.3,0.6c0.9,0,1.5-0.4,1.5-1.1c0-0.3-0.1-0.8-0.4-0.9
		c-0.3-0.1-0.6-0.1-1.8-0.4c-1-0.3-1.5-0.4-1.9-0.8c-0.8-0.6-1.2-1.3-1.2-2.2c0-1.8,1.5-3,3.9-3c1.5,0,2.7,0.5,3.3,1.4
		c0.3,0.5,0.4,0.8,0.6,1.5L23,22.6c-0.2-0.8-0.6-1-1.5-1c-0.8,0-1.2,0.5-1.2,0.9c0,0.3,0.1,0.6,0.6,0.8c0.3,0.2,0.3,0.2,1.7,0.5
		c0.9,0.2,1.5,0.5,1.9,0.7c0.9,0.6,1.3,1.4,1.3,2.4c0,0.9-0.3,1.6-0.9,2.2c-0.8,0.6-1.8,1.1-3.2,1.1c-1,0-2.1-0.2-2.7-0.6
		c-0.6-0.3-1.1-0.9-1.4-1.5c-0.1-0.3-0.1-0.6-0.3-1.1L20,26.4z"/>
</svg>
