<?xml version="1.0" encoding="utf-8"?>
<svg version="1.0" xmlns="http://www.w3.org/2000/svg" width="36px" height="36px" viewBox="0 0 36 36" xml:space="preserve">
	<path class="fill-foreground stroke-none" d="M6,23.7c0.6,0,1.2,0,2,0c0-3.8,0-7.5,0-11.2c-0.8,0-1.3,0-2,0C6,16.2,6,20,6,23.7z"/>
	<path class="fill-foreground stroke-none" d="M9,23.7c0.6,0,1.2,0,2,0c0-3.8,0-7.5,0-11.2c-0.6,0-1.2,0-2,0C9,16.2,9,20,9,23.7z"/>
	<path class="fill-foreground stroke-none" d="M12.3,23.7c0.6,0,1.2,0,2,0c0-3.8,0-7.5,0-11.2c-0.8,0-1.2,0-2,0C12.3,16.2,12.3,20,12.3,23.7z"/>
	<path class="fill-foreground stroke-none" d="M15.5,23.7c0.6,0,1.2,0,2,0c0-3.8,0-7.5,0-11.2c-0.8,0-1.4,0-2,0C15.5,16.2,15.5,20,15.5,23.7z"/>
	<path class="fill-background stroke-none" d="M18.6,21.8c0,0.6,0,1.2,0,1.8c3.8,0,7.7,0,11.4,0c0-0.6,0-1.2,0-1.8C26.2,21.8,22.5,21.8,18.6,21.8z"/>
	<path class="fill-background stroke-none" d="M30,12.3c-3.8,0-7.5,0-11.4,0c0,0.6,0,1.2,0,1.8c3.8,0,7.5,0,11.4,0C30,13.5,30,12.9,30,12.3z"/>
	<path class="fill-background stroke-none" d="M30,17.2c0-0.6,0-1.2,0-1.8c-3.8,0-7.5,0-11.4,0c0,0.6,0,1.2,0,1.8C22.5,17.2,26.2,17.2,30,17.2z"/>
	<path class="fill-background stroke-none" d="M30,18.6c-3.8,0-7.5,0-11.4,0c0,0.6,0,1.2,0,1.8c3.9,0,7.5,0,11.4,0C30,19.8,30,19.2,30,18.6z"/>
</svg>
