<?xml version="1.0" encoding="utf-8"?>
<svg version="1.0" xmlns="http://www.w3.org/2000/svg" width="36px" height="36px" viewBox="0 0 36 36" xml:space="preserve">
  <g class="fill-background">
    <path d="M28.4,18.1c1.3,0.4,1.9,1.2,1.9,2.3c0,0.7-0.3,1.3-0.8,1.7c-0.5,0.4-1.3,0.7-2.2,0.7c-1,0-1.9-0.3-2.7-0.7
      c0-0.2,0.1-0.5,0.2-0.8c0.1-0.3,0.3-0.5,0.4-0.7c0.8,0.4,1.4,0.6,2,0.6c0.3,0,0.5,0,0.6-0.1c0.1-0.1,0.2-0.2,0.2-0.4
      c0-0.3-0.2-0.5-0.7-0.6l-0.8-0.3c-1.2-0.4-1.8-1.1-1.8-2.1c0-0.7,0.2-1.3,0.7-1.7c0.5-0.4,1.2-0.8,2-0.8c0.4,0,0.9,0.1,1.4,0.2
      c0.5,0.1,0.9,0.4,1.2,0.6c0,0.3,0,0.5-0.2,0.9c-0.1,0.3-0.3,0.5-0.5,0.7c-0.8-0.4-1.5-0.5-2-0.5c-0.2,0-0.3,0-0.4,0.1
      C27,17,27,17.1,27,17.2c0,0.2,0.2,0.4,0.5,0.5L28.4,18.1L28.4,18.1z"/>
    <path d="M22.1,18.1c1.3,0.4,1.9,1.2,1.9,2.3c0,0.7-0.3,1.3-0.8,1.7c-0.5,0.4-1.3,0.7-2.2,0.7c-1,0-1.9-0.3-2.7-0.7
      c0-0.2,0.1-0.5,0.2-0.8c0.1-0.3,0.3-0.5,0.4-0.7c0.8,0.4,1.4,0.6,2,0.6c0.3,0,0.5,0,0.6-0.1c0.1-0.1,0.2-0.2,0.2-0.4
      c0-0.3-0.2-0.5-0.7-0.6l-0.8-0.3c-1.2-0.4-1.8-1.1-1.8-2.1c0-0.7,0.2-1.3,0.7-1.7c0.5-0.4,1.2-0.8,2-0.8c0.4,0,0.9,0.1,1.4,0.2
      c0.5,0.1,0.9,0.4,1.2,0.6c0,0.3,0,0.5-0.2,0.9c-0.1,0.3-0.3,0.5-0.5,0.7c-0.8-0.4-1.5-0.5-2-0.5c-0.2,0-0.3,0-0.4,0.1
      c-0.1,0.1-0.1,0.2-0.1,0.3c0,0.2,0.2,0.4,0.5,0.5L22.1,18.1L22.1,18.1z"/>
    <path d="M17.6,18.2c0-0.4-0.1-0.8-0.2-1.2c-0.1-0.4-0.3-0.7-0.6-0.9c-0.3-0.3-0.6-0.5-0.9-0.6
      c-0.4-0.1-0.8-0.4-1.2-0.4c-0.5,0-1,0.2-1.4,0.4c-0.4,0.2-0.7,0.4-1,0.8c-0.3,0.3-0.5,0.7-0.6,1.2c-0.1,0.4-0.2,0.9-0.2,1.4
      c0,0.5,0.1,1,0.2,1.5c0.1,0.5,0.3,0.9,0.5,1.2c0.2,0.3,0.6,0.6,1,0.8c0.4,0.2,0.9,0.3,1.5,0.3c1.1,0,2-0.3,2.8-0.8
      c-0.1-0.5-0.3-1-0.6-1.3c-0.4,0.1-0.7,0.2-1,0.3c-0.3,0.1-0.6,0.1-0.8,0.1c-0.5,0-0.8-0.1-1-0.3c-0.2-0.2-0.3-0.5-0.3-0.9h3.7
      C17.5,19.3,17.6,18.7,17.6,18.2z M13.7,18.3c0-0.5,0.1-1,0.3-1.2c0.1-0.2,0.4-0.3,0.7-0.3c0.3,0,0.5,0.1,0.7,0.3
      c0.2,0.2,0.2,0.7,0.2,1l0,0.2H13.7L13.7,18.3L13.7,18.3z"/>
    <path d="M10.7,20.8h-0.4c-0.4,0-0.6-0.2-0.6-0.7v-8.1c0-0.5-0.1-0.8-0.3-1c-0.2-0.2-0.5-0.2-0.9-0.2H7.7l-0.1,0v0
      l0,1.2v8.4c0,0.7,0.2,1.2,0.4,1.5c0.3,0.3,0.7,0.5,1.4,0.5c0.4,0,0.9,0,1.5-0.1c0-0.1,0-0.3,0-0.6C10.9,21.4,10.8,21.1,10.7,20.8
      L10.7,20.8z"/>
  </g>
  <g class="fill-foreground">
    <path d="M34.1,19.2c-0.4,0.3-0.6,0.9-0.6,1.5v2.4c0,0.8-0.2,1.4-0.8,1.9c-0.6,0.4-1.2,0.6-2,0.7l-0.4,0
      v-1.2c0.4-0.1,0.6-0.2,0.7-0.4c0.3-0.3,0.5-0.7,0.5-1.2v-2c0-0.7,0.1-1.2,0.3-1.6c0.2-0.4,0.7-0.7,1.4-1c-0.8-0.4-1.3-0.8-1.6-1.4
      c-0.2-0.3-0.2-0.8-0.2-1.4v-1.8c0-0.6-0.2-1-0.4-1.3c-0.2-0.2-0.3-0.3-0.8-0.4v-1.1c0.5,0,0.8,0,1.1,0c0.5,0,0.9,0.3,1.2,0.5
      c0.4,0.3,0.6,0.7,0.8,1.2c0.1,0.3,0.1,0.6,0.1,0.8v2.1c0,0.7,0.2,1.3,0.6,1.6c0.2,0.2,0.5,0.4,1,0.6v0.9
      C34.7,18.8,34.4,19,34.1,19.2L34.1,19.2z"/>
    <path d="M6,10.9L6,10.9c-0.2,0-0.3,0-0.4,0c-0.5,0-0.9,0.3-1.2,0.5c-0.4,0.3-0.7,0.7-0.8,1.2
      c-0.1,0.3,0,0.6,0,0.8v2.1c0,0.7-0.3,1.3-0.6,1.6c-0.2,0.2-0.7,0.4-1.2,0.6v0.9c0.5,0.1,0.9,0.3,1.1,0.5c0.4,0.3,0.7,0.9,0.7,1.5
      v2.4c0,0.8,0.2,1.4,0.8,1.9c0.6,0.4,1.2,0.6,2,0.7l0.5,0v-1.2C6.4,24.3,6.2,24.2,6,24c-0.3-0.3-0.4-0.7-0.4-1.2v-2
      c0-0.7-0.1-1.2-0.4-1.6c-0.2-0.4-0.7-0.7-1.4-1c0.8-0.4,1.3-0.8,1.6-1.4c0.2-0.3,0.2-0.8,0.2-1.4v-1.8c0-0.6,0.1-1,0.4-1.3
      c0.1-0.1,0.4-0.2,0.7-0.3l0.5,0c0-0.4,0-0.7,0-1.2L6,10.9L6,10.9L6,10.9L6,10.9z"/>
    </g>
</svg>
