<?xml version="1.0" encoding="utf-8"?>
<svg version="1.0" xmlns="http://www.w3.org/2000/svg" width="24px" height="24px" viewBox="0 0 24 24">
	<path fill="#3B4A51" d="M9.2,18.1c5.7,0,8.8-4.7,8.8-8.8c0-0.1,0-0.3,0-0.4c0.6-0.4,1.2-0.6,1.5-1.6c-0.6,0.2-1.7,0.8-2.3,0.6
		c0.6-0.4,1.9-0.9,1.9-1.8c-0.6,0.4-1.3,0.6-2,0.8c-0.6-0.6-1.4-1-2.3-1c-1.7,0-3.1,1.4-3.1,3.1c0,0.2,0,0.5,0.1,0.7
		C9.3,9.6,7,8.3,5.5,6.4C5.2,6.9,5.1,7.4,5.1,8c0,1.1,0.5,2,1.4,2.6c-0.5,0-1-0.2-1.4-0.4l0,0c0,1.5,1.1,2.7,2.5,3
		c-0.3,0.1-0.6,0.2-0.9,0.2c-0.2,0-0.4,0-0.6-0.1c0.4,1.2,1.5,2.1,2.9,2.1c-1,0.9-2.4,1.4-3.8,1.4c-0.2,0-0.5,0-0.7,0
		C5.8,17.6,7.5,18.1,9.2,18.1"/>
</svg>
