<?xml version="1.0" encoding="utf-8"?>
<svg version="1.1" xmlns="http://www.w3.org/2000/svg" width="36px" height="36px" viewBox="0 0 36 36" style="enable-background:new 0 0 36 36;" xml:space="preserve">
<path class="fill-foreground stroke-none" d="M14.3,26.1c7.6,0,11.7-6.3,11.7-11.7c0-0.1,0-0.4,0-0.5c0.8-0.5,1.6-0.8,2-2.1c-0.8,0.3-2.3,1.1-3.1,0.8
	c0.8-0.5,2.5-1.2,2.5-2.4c-0.8,0.5-1.7,0.8-2.7,1.1c-0.8-0.8-1.9-1.3-3.1-1.3c-2.3,0-4.1,1.9-4.1,4.1c0,0.3,0,0.7,0.1,0.9
	c-3.3-0.1-6.4-1.9-8.4-4.4c-0.4,0.7-0.5,1.3-0.5,2.1c0,1.5,0.7,2.7,1.9,3.5c-0.7,0-1.3-0.3-1.9-0.5l0,0c0,2,1.5,3.6,3.3,4
	c-0.4,0.1-0.8,0.3-1.2,0.3c-0.3,0-0.5,0-0.8-0.1c0.5,1.6,2,2.8,3.9,2.8c-1.3,1.2-3.2,1.9-5.1,1.9c-0.3,0-0.7,0-0.9,0
	C9.8,25.4,12,26.1,14.3,26.1"/>
</svg>
